<svg xmlns="http://www.w3.org/2000/svg" viewBox="0 0 180 180"><defs><style>.cls-1{fill:#1d1d1d;}.cls-2{opacity:0.85;}</style></defs><title>LOGO-AG</title><g id="Calque_3" data-name="Calque 3"><path class="cls-1" d="M19.75,107.57c0,.05,0,.07,0,0Z"/><path class="cls-1" d="M18.08,67.85v0L18,67.7Z"/><path class="cls-1" d="M20.3,61.74l0,0S20.27,61.69,20.3,61.74Z"/><path class="cls-1" d="M16.35,82.65a.33.33,0,0,0,0,.12A.43.43,0,0,1,16.35,82.65Z"/><path class="cls-1" d="M24.72,118.3v0Z"/><path class="cls-1" d="M24.58,118.22c0-.14.09,0,.13.06a.81.81,0,0,0-.2-.44C24.44,117.88,24.6,118.14,24.58,118.22Z"/><path class="cls-1" d="M37.79,135.12l-.07,0Z"/><path class="cls-1" d="M20.15,82.21l0,.09S20.17,82.23,20.15,82.21Z"/><path class="cls-1" d="M35.47,132.67l-.11.06A.19.19,0,0,0,35.47,132.67Z"/><path class="cls-1" d="M18,67.7l0-.06A.21.21,0,0,0,18,67.7Z"/><path class="cls-1" d="M22.67,56.26h0Z"/><path class="cls-1" d="M42.07,34l0,0,0,.15A.49.49,0,0,0,42.07,34Z"/><path class="cls-1" d="M27,49.34s0,0,0-.05a5.21,5.21,0,0,0-.56.8l.11.11Z"/><path class="cls-1" d="M34.89,44.31l-.75.46c.38-.54.74-1,1.07-1.41s.68-.73,1-1.07a27.27,27.27,0,0,0,1.92-2.22l0,.13c.29-.16,2.85-2.69,2.85-2.69.23-.31-1.85-1.6-2.24-1.24s-.8.87-1.33,1.26c-.77.71-.53.22-1,.5s.22,0,0,.22-.48.27-.7.42c.3-.34.06-.23,0-.21-.48.49-1.4,1.12-1.32,1.47-.72.6-.81.52-1.09.81.13-.06.34-.23.39-.19-.35.19-.09.15,0,.06-.3.47-2.29,1.91-2.11,2.21l-.05,0c.11.25.43.24.29.63l-.25.14-.16.37c-.22.16-.2,0-.22,0a21.91,21.91,0,0,1-1.42,1.84l1-.28c-.5.44-1.44,1.23-1.34,1.46l-.41.19c-1.12.83-.36.87-.75,1.23l-.56.43.35-.56a9.34,9.34,0,0,1-1.08,1h0a.09.09,0,0,1,.06,0l0,.09c.06.13-.05.47-.31.86a11.72,11.72,0,0,1-1.21,1.88l.09.35-.51.62L24.91,53c.4-.67,1-2,1.53-2.87L26.37,50c-.32.5-.58,1.14-.78,1.47-.12.15-.54.48-.49.1V52c-.93,1.76-1,1.75-2.05,3.54l.16-.12c-.12.4-.24.8-.44.83a22.16,22.16,0,0,1-1.72,2.92l.15.25c-.12.24-.6.48-.34.72l-.11.56a3.91,3.91,0,0,1-.37.93h0l-.05.06h0c-.36.74.2.07-.22.91-.26.23.17.41,0,.82l-.46.33c-.44.73-.22.95-.52,2.11-.27.52-.62.71-.76.27a1.63,1.63,0,0,1,.09,1c-.15.07-.16,0-.23-.19-.31.56,0,.4-.12.85.19.19.52.44.5.59l.12-.16a4.32,4.32,0,0,1-.32,1.57l-.11,0-.07.6h-.16l-.13.86.06-.11a5,5,0,0,1-.26,1.23l-.08,0c-.52,1-.24,2-.42,3.2l-.15-.19c-.24.4.25.16.09.65h-.22c.21.48-.15.57-.3.86l.3-.1c0,.19-.1.38-.14.57-.15.63-.38.36-.52.24l.18.47-.26.06c.26.35-.07.32,0,.9-.1,0-.14-.11-.2.08l.27,1-.1-.58.35.1c.22.61-.11.79,0,1.21l-.09-.29c0,.68-.14.71-.23,1.09.08-.12.18-.3.22,0s-.13.11-.18.29c.24.06.36.56.23,1a.11.11,0,0,1-.09,0,.39.39,0,0,1,0,.36L16.14,83l.24.39c-.08.25.11.62-.07.58l0-.14c0,.63-.1,1.27-.11,1.91l-.22,0c.31.18-.08,1,.29,1-.19.36.18,1.41-.24,1.21,0,1.27.44,1.92.37,3.46-.31.58-.08,2.06,0,3s.38,1.72.56,2.5l.67,2.5c-.3,1.27.84,2.82.86,4.13l.27.28c-.07.9.69,2,.74,3.24a3.05,3.05,0,0,1,.26.45.21.21,0,0,1,.12-.21c0,.35.36,1,.11,1l-.05-.07c-.26,0,.46.93.38,1.36l.18-.29.18.62-.11-.15A14.21,14.21,0,0,1,22,112.9a14.49,14.49,0,0,0,.54,1.41,8.36,8.36,0,0,0,.93,1.49c-.41-.18.37.39.1.57-.07.77.6,1.06,1,1.47a.06.06,0,0,1,.07,0l.42.84c-.62-.3.62.43.08.14a17.6,17.6,0,0,0,.84,1.78c.35.59.74,1.2,1.13,1.81.77,1.25,1.71,2.44,2.46,3.65v-.16a14.6,14.6,0,0,1,1.25,1.76c.21.53.94.78,1.08.93.5.37.59,1,.43.79.46.46,1.13.67,1.59,1.44,0,.23.42.64.86,1s.87.69.74.83l0,0c.6,1,1.64,1.48,2.37,2.47h-.08l2.58.83.36-1.42L40,132.36c-.72-.59-1.35-1.27-2-1.9s-1.32-1.3-2-2c-.88-1.19-1.68-2.44-2.47-3.69a68.67,68.67,0,0,1-5.88-9c-.21-.18-.4-.37-.6-.56-.51-2.11-2.16-4.34-2.62-6.62l-.25,0a1.06,1.06,0,0,1-.09-.77,70.84,70.84,0,0,1-2.66-8.58c-.29-1.46-.65-2.89-.79-4.31l-.25-2.11c-.06-.69-.06-1.38-.09-2,.12-.53-.11-2.1.08-2.52A21,21,0,0,1,20,85.66c0-.9,0-1.81.06-2.68l0,.07,0-.83s.06,0,.07,0a11.36,11.36,0,0,1,.37-3.52l0,.07C21.21,72.19,22.42,66,25.26,60c.36-.68.75-1.37,1.11-2.11s.69-1.51,1.06-2.28a26.28,26.28,0,0,1,2.65-4.5c.28-.21,1.29-1.85,2.41-3.42l.8-1.18.75-1C34.49,44.91,34.81,44.45,34.89,44.31Z"/><path class="cls-1" d="M41.88,36.53l0,0C41.93,36.63,41.94,36.57,41.88,36.53Z"/><polygon class="cls-1" points="29.73 45.81 29.76 45.77 29.54 45.83 29.73 45.81"/><path class="cls-1" d="M35.93,38.16c-.34.29-.34.32-.26.3A1.31,1.31,0,0,0,35.93,38.16Z"/><path class="cls-1" d="M42.78,33.61V33.5C42.69,33.6,42.72,33.62,42.78,33.61Z"/><path class="cls-1" d="M32.87,129.43c.07.09.12.13,0,0Z"/><path class="cls-1" d="M29.88,44.84l.06-.07a.88.88,0,0,1,0-.23Z"/><path class="cls-1" d="M41.12,39l0,.07S41.13,39.06,41.12,39Z"/><path class="cls-1" d="M17.92,76a.74.74,0,0,0,0,.25A2.36,2.36,0,0,1,17.92,76Z"/><path class="cls-1" d="M57.56,135.3l-.06,0h.06Z"/><path class="cls-1" d="M57.3,135.47c-.32.05.07-.1.2-.15a3.87,3.87,0,0,0-1,.27C56.47,135.66,57.13,135.46,57.3,135.47Z"/><path class="cls-1" d="M88.64,100.7l.1.16Z"/><path class="cls-1" d="M21.87,75.18v.21A.52.52,0,0,0,21.87,75.18Z"/><path class="cls-1" d="M87.15,108.83l.08.13C87.21,108.87,87.18,108.84,87.15,108.83Z"/><path class="cls-1" d="M29.94,44.54l0-.11S30,44.5,29.94,44.54Z"/><path class="cls-1" d="M38.4,51.2a.15.15,0,0,0-.1.06v0Z"/><path class="cls-1" d="M74.41,98.1a.13.13,0,0,0,0,0l-.28,0A1.13,1.13,0,0,0,74.41,98.1Z"/><path class="cls-1" d="M40.28,68.37s0,0,.06,0c-.05-.3-.37-1-.64-2h-.16A19.24,19.24,0,0,0,40.28,68.37Z"/><path class="cls-1" d="M47.86,86.93l-1.14-1.69,1.56,1.64,1.48,1.35a31.76,31.76,0,0,0,2.67,2.32c.89.68,1.75,1.35,2.7,2s2,1.2,3.25,1.86l-.29-.1a11.58,11.58,0,0,0,1.87.81c.6.26,1.42.65,2.57,1.26.56.33,1.26.57,2,.94l2.7,1.23v0a3.27,3.27,0,0,1,.89.24,11.85,11.85,0,0,1-1.42-.6c.89.24,1.72.24,2.9.54.24.1.31.18.32.24l1.46.34c.48.12,1,.15,1.48.23l.87.33a6,6,0,0,1,3,.11c-.89-.33,1.22-.1.93-.27.12,0,.39.11.61.17L81,100a17.22,17.22,0,0,0,2.12-.22l-.9-.08a16.2,16.2,0,0,1-2.09-.26,37.46,37.46,0,0,1-4-.8c2,.23.52,0,.15-.11l-.14,0A12.68,12.68,0,0,1,74.35,98s0,0,0,.06l.08,0c.05,0,0,.06,0,.07s0,.06-.37,0h.06c-.49,0-1.33-.2-1.69-.27l0-.15c-.94.14-5.6-1.81-6.61-2.35A9.82,9.82,0,0,0,64,94.61a16.92,16.92,0,0,1-1.94-.91c-2.06-1-.94-.7-1.92-1.31-1.19-.84.16.3-.34,0l-1.37-1.08c.86.5.44.14.32,0-.63-.4-1.41-.95-2.09-1.43a4.33,4.33,0,0,0-1.48-1c-1.5-1.33-1.47-1.37-2.08-2,.16.25.57.64.55.68-.55-.6-.33-.2-.09,0A25.07,25.07,0,0,1,51,85.09c-.52-.51-.94-1.09-1.29-1.49s-.6-.66-.71-.65l0,0c-.38,0-.24.45-.93-.1l-.3-.49c-.22-.2-.45-.38-.65-.58-.29-.52-.07-.33,0-.35-.47-.53-1-1.21-1.48-1.92l-.76-1.1-.65-1.14a16.9,16.9,0,0,0,.43,1.9c-.72-1.29-1.74-3.71-2.09-3.84a6.15,6.15,0,0,1-.22-.87c-.86-2.78-1-1.73-1.42-2.83a8.49,8.49,0,0,1-.33-1.43,10.89,10.89,0,0,0,.54,1.33,21.68,21.68,0,0,1-.79-3.06h0a.24.24,0,0,1,0,.14l-.07-.19a4.5,4.5,0,0,1-.82-1.75c-.16-.7-.36-1.31-.55-2-.1-.36-.2-.75-.29-1.19,0-.22-.1-.45-.13-.7l0-.81-.34-.52L38,59.64l.2,0c.13.83.3,2,.54,3.26s.68,2.51,1,3.54h.1c-.32-1.23-.76-2.61-1-3.43-.08-.4,0-1.48.24-.76l-.31-.73a27.31,27.31,0,0,1-.52-4.24l0-1.79a22.7,22.7,0,0,1,.07-2.61l-.11.38a4.71,4.71,0,0,1,.12-2,25.27,25.27,0,0,1,1.43-6.92l-.14-.42c.15-.54.71-1.25.47-1.6l.24-1.17a9.76,9.76,0,0,1,.7-2h0l.08-.15h0c.35-.79.31-.8.27-.85s0,0,0-.18a2.28,2.28,0,0,1,.12-.29l0-.11,0-.06,0,0h0a1.46,1.46,0,0,0,.07-.19,1.56,1.56,0,0,0,.07-.44,1.83,1.83,0,0,0-.86-1.64,1.85,1.85,0,0,0-2,0l-.2.14-.09.08,0,0,0,0-.07.06c-.61.35-.34.74-1.1,1.42l-1,.51C35,38.74,35,39.19,33.27,41.25c-.92.92-1.54,1.24-1.2.4a7.39,7.39,0,0,1-1,1.89c-.24.11-.16,0,0-.38-1,1-.43.76-1.06,1.61,0,.39.12.89-.06,1.18l.29-.29a22.84,22.84,0,0,1-1.94,3l-.08-.1-.66,1.2h-.18c-.33.56-.64,1.14-.95,1.71l.17-.21c-.21.41-.9,1.75-1.36,2.48l-.06-.06c-1.36,2-1.9,4-2.91,6.68l0-.41c-.52.84.15.35-.35,1.39l-.22,0c-.08,1.06-.5,1.23-.83,1.86l.37-.22c-.17.41-.32.82-.47,1.24-.53,1.36-.61.75-.69.5l-.09,1-.29.12c.09.79-.24.69-.43,2-.12.08-.09-.25-.24.16l-.15,2.14.14-1.28.32.24a23.44,23.44,0,0,1-.53,2.68l0-.66a12,12,0,0,1-.61,2.42c.11-.26.27-.65.22,0-.06.45-.17.22-.28.64.23.14.15,1.24-.07,2.22a.17.17,0,0,1-.08-.11,1.94,1.94,0,0,1-.06.83l-.23-.29.14.88c-.14.55,0,1.4-.19,1.31l0-.33c-.17,1.43-.27,2.87-.36,4.31L17,83c.29.43-.15,2.36.22,2.22-.21.82.22,3.2-.22,2.74a24.38,24.38,0,0,0,.38,3.67c.13,1.17.36,2.39.5,4.12a10.63,10.63,0,0,0,.26,3c.19,1.27.55,2.63.8,3.71s.59,2,.91,2.89.57,1.75.92,2.58l1,2.56c.4.87.81,1.79,1.26,2.8a17.72,17.72,0,0,0,1.91,4.28c.86,1.45,1.76,2.91,2.42,4.18l.57.57c.74,1.79,2.72,4,4.13,6.24l.82.82c-.07-.1-.16-.26-.1-.39.42.64,1.5,1.74,1.24,1.82l-.14-.13c-.13,0,.27.46.75,1a8.79,8.79,0,0,1,1.3,1.44l-.13-.52,1,1.08-.3-.24c.58.53,1.14,1,1.66,1.45l1.68,1.51.32.17.15.08.08,0h0l0,.08h0a4.23,4.23,0,0,0,.68.12l1.11.07,1.71.12a22,22,0,0,0,3.45,0,18.21,18.21,0,0,0,1.89-.15c.65-.11,1.34-.25,2.06-.4-.74.38,1.14-.3,1.27,0,1.54.09,2.72-.63,3.88-1,0,0,0,0,.07-.08l2.07-.57c-1.11.74,1.38-.76.35-.1,5.5-1.29,11.89-5.2,16.79-9.42l-.27.12L79,122.1a6.62,6.62,0,0,0,1.21-1.45c.32-.5.51-1,.66-1.16.69-1.18,1.72-2,1.35-1.5A14,14,0,0,0,83.29,116c.34-.7.82-1.4,1.35-2.26a11.09,11.09,0,0,0,1.44-2.64c.45-1.22.88-2.36,1.07-2.31l0,0c.16-.28.32-.57.45-.86s.23-.59.34-.89c.21-.6.4-1.21.59-1.82l.14-.46a3.45,3.45,0,0,0,.14-.52,6.07,6.07,0,0,0,.15-1.21,6.59,6.59,0,0,0-.42-2.49,1.22,1.22,0,0,1,.12.15,5.47,5.47,0,0,0-2.58-2.2,5,5,0,0,0-3-.23,3.85,3.85,0,0,1,1.24,1.43,2.77,2.77,0,0,1,1.29,2.74,2.73,2.73,0,0,1,0,.81,10.51,10.51,0,0,1-.38,1.25c-.35,1-.59,2-1,2.9s-.78,1.91-1.24,2.83S82,112.06,81.5,113a47,47,0,0,1-6.32,7.51,42.76,42.76,0,0,1-20.4,11.7l-1.61.63c-2.36.23-5,.49-7.75.6-.68,0-1.36,0-2,0l-1.53-.05c-.06,0-.08-.07-.13-.12L41,132.5c-.46-.49-.94-.94-1.34-1.45l-.25.1a4.44,4.44,0,0,1-1-1.38A65.85,65.85,0,0,1,27,113.06a58.12,58.12,0,0,1-5.33-18.47c-.05-1.17-.43-4.71-.31-5.64-.1-1-.19-2-.26-3s-.05-2,0-3a51.61,51.61,0,0,1,.51-6v.15c.06-.62.12-1.24.21-1.85,0-.08.07-.08.07,0a33.61,33.61,0,0,1,1.81-7.76v.15A67.88,67.88,0,0,1,33,47.81a61.23,61.23,0,0,1,6.92-8.35l1-1,.24-.24.07-.06h0c1.17,1.21-1.58-1.66-1.3-1.37h0c-3.48-1.47-1-.4-1.75-.73h0l-.28.69c-.37.91-.72,1.83-1,2.77a52,52,0,0,0-1.58,5.76,35.88,35.88,0,0,0-.77,11.91l.1,1.57.26,1.57.51,3.15.77,3.13c.14.52.22,1.06.4,1.56l.5,1.54A34.89,34.89,0,0,0,41.38,79c.32.5.6,1,1,1.49l1,1.37,1,1.3.47.6.49.53C46.62,85.67,47.58,86.67,47.86,86.93Z"/><path class="cls-1" d="M70,99l-.06,0C69.87,99.1,70,99.09,70,99Z"/><polygon class="cls-1" points="44.18 77.14 44.23 77.23 44.15 76.81 44.18 77.14"/><path class="cls-1" d="M59.54,91.74c-.8-.53-.86-.53-.76-.42A7.06,7.06,0,0,0,59.54,91.74Z"/><path class="cls-1" d="M78.24,100.06c.54,0,.33,0,0-.13l-.92,0Z"/><path class="cls-1" d="M76.21,98.51l.17-.06C76.07,98.42,76.08,98.45,76.21,98.51Z"/><path class="cls-1" d="M80.38,113.26s0,.09,0,0Z"/><path class="cls-1" d="M51.75,91.13l0,0-.16,0Z"/><path class="cls-1" d="M45.66,85.12l0-.05S45.59,85.11,45.66,85.12Z"/><path class="cls-1" d="M69.66,99a.22.22,0,0,0,.15,0A.44.44,0,0,1,69.66,99Z"/><path class="cls-1" d="M71.1,124.26l0,0-.09,0Z"/><path class="cls-1" d="M71.17,124.09c.16-.08,0,.08,0,.14a1.14,1.14,0,0,0,.47-.34S71.28,124.08,71.17,124.09Z"/><path class="cls-1" d="M47.08,134l.07,0Z"/><path class="cls-1" d="M69.77,95.15h.11A.15.15,0,0,0,69.77,95.15Z"/><path class="cls-1" d="M51.23,133.62l0-.13A.14.14,0,0,0,51.23,133.62Z"/><path class="cls-1" d="M51.55,91.14h0Z"/><path class="cls-1" d="M40.94,78.82a.24.24,0,0,0,.06-.09v0Z"/><path class="cls-1" d="M37.51,41.22h0l0,.17A.53.53,0,0,0,37.51,41.22Z"/><path class="cls-1" d="M36.76,68.93s0,0,0,0a8.64,8.64,0,0,0,.39,1.22l.16,0Z"/><path class="cls-1" d="M37.89,57.25l-.25,1.08c-.15-1.69-.17-2.94-.21-4.13s.07-2.3.06-3.77l.06.17c.05-.21-.09-.39-.08-1.09a12.28,12.28,0,0,1,1-4.16h0a.92.92,0,0,1,.12-.47l-.35.75a8.2,8.2,0,0,1,.1-1.57c.06-.13.14-.16.19-.16.1-.52.22-1,.35-1.55l.32-.41c0-.49-.42-.41.2-1.57-.43.37.05-.67-.14-.57l.24-.27A21.06,21.06,0,0,0,40.28,37l-.93,1.39c-.49.74-1,1.6-1.3,2,.43-1,.06-.3-.1-.11l0,.09c-.27.62-.44.57-.58.88h.05v0s0,0,.06,0,.06,0,0,.21v0c-.06.28-.22.74-.29,1l-.14,0c.12.54-1.23,3.19-1.33,3.88a13.73,13.73,0,0,0-.4,2.37c-.2,1.35-.29.65-.49,1.33-.17.85.19-.16.17.19l-.28,1c0-.6-.09-.28-.16-.18-.09.89-.41,2.31-.1,2.59-.14,1.21-.22,1.22-.23,1.74,0-.18.08-.52.14-.53-.1.49,0,.24.07,0,.17.72-.36,3.88,0,4h-.06c.27.15.47-.15.68.34l-.06.35.19.5c0,.36-.12.2-.15.2a21.29,21.29,0,0,1,.4,3L36,62c-.08.88,0,2.44.29,2.56l-.1.55c0,1.79.49,1.12.53,1.82a9,9,0,0,0,0,.9,6,6,0,0,1-.24-.83c.08.88.19,1.21.26,1.92h0a.16.16,0,0,1,0-.1l0,.12a2,2,0,0,1,.59,1c.29.82.59,1.42,1,2.76l.37.21.32,1-.18.09c-.22-.47-.55-1.12-.9-1.82s-.61-1.46-.86-2.07H37c.28.73.63,1.55.85,2,.07.24.16.91-.17.54l.39.36c1.18,2.34,1.09,2.4,2.35,4.84l0-.25c.34.43.67.86.61,1.08l.61,1.08.64,1a15,15,0,0,1,1,1.78l.33,0c.19.29.24.93.59.86l.58.49a4.94,4.94,0,0,1,.87,1h0l0,.09a0,0,0,0,0,0,0c.65.87.15-.15.88.86.14.41.51.11.87.59.06.23.14.43.2.65.68.88,1,.76,2.22,1.82.48.6.57,1.07,0,.92A3.51,3.51,0,0,1,51,90.4c0,.18-.06.15-.3.11.57.61.48.22,1,.59.29-.08.69-.26.85-.16l-.14-.2a6.16,6.16,0,0,1,1.72,1.2l-.09.09a6.8,6.8,0,0,0,.7.38l0,.16,1,.55L55.6,93a9.91,9.91,0,0,1,1.41.87l-.06.06c1.06,1,2.34,1.14,3.83,1.86l-.27.06c.44.4.26-.18.83.19l-.06.22c.65,0,.67.4,1,.63l-.07-.33.7.32c.76.38.36.52.19.61h.63l0,.28c.5-.13.39.19,1.14.3,0,.11-.16.1.06.22l1.28.09-.75-.11.19-.31c.8,0,1,.34,1.55.39h-.4a3.22,3.22,0,0,1,1.37.51c-.13-.11-.34-.26,0-.22s.11.16.35.26c.12-.22.77-.18,1.31.07a.16.16,0,0,1-.08.08.74.74,0,0,1,.48.07l-.21.23.54-.13c.31.14.83,0,.75.19l-.19,0,2.48.45v.22c.29-.26,1.35.31,1.31-.07.46.29,1.89,0,1.57.39a15.26,15.26,0,0,0,2.17,0c.69,0,1.41,0,2.42,0a2.68,2.68,0,0,0,.76.17l.49,0h.47a1.85,1.85,0,0,1,.9.24,1.92,1.92,0,0,1,1.06,1.07,1.9,1.9,0,0,1,.12,1V103l-.06.19-.23.83a6.74,6.74,0,0,0-.94,2.33,11.16,11.16,0,0,1-1,2.39v.48c-.73.77-1.12,2.34-2.09,3.44-.12.34-.2.51-.23.58a.22.22,0,0,1,.25-.07c-.3.3-.65,1.06-.83.88l0-.11c-.18-.19-.55,1.13-1,1.37a2.08,2.08,0,0,0,.36,0c-.16.21-.33.4-.5.6l.08-.19A11.57,11.57,0,0,1,76.34,119c-.42.43-.85.85-1.27,1.33s-.91,1-1.38,1.64c.1-.51-.35.54-.6.34-.83.28-1,1.06-1.49,1.56a.1.1,0,0,1,0,.08l-.92.7c.28-.75-.44.8-.16.12-2.55,1.6-5.68,4-9,5.28l.18,0a10.26,10.26,0,0,1-2.47,1c-.69.08-1.27.8-1.53.87-.66.38-1.4.24-1.1.16a7.64,7.64,0,0,1-2.45,1c-.44-.25-2.87,1-3,.58v0c-1.43-.11-2.68.59-4.22.43l.08-.06L44,135.31l.92,1.25,2.9.92,3.86-.59,3.79-.91,3-.69c1-.21,2-.6,3-.89a46.63,46.63,0,0,0,12.87-8c.21-.31.44-.59.63-.91,2.53-1.66,4.76-4.83,6.86-7.25l-.16-.19a2.24,2.24,0,0,1,.77-.76A45.41,45.41,0,0,0,87.93,106l.48-1.47.12-.37c0-.14.09-.34.12-.51a5.49,5.49,0,0,0,.13-1.07,6,6,0,0,0-1.4-4,5.92,5.92,0,0,0-3.59-2,6.07,6.07,0,0,0-1-.08H82l-1.31,0a29.65,29.65,0,0,1-3.19-.35c-.56,0-1.13.08-1.71.1s-1.14-.1-1.72-.17l-1.71-.23a10.32,10.32,0,0,1-1.67-.35h.09l-1-.22s0-.06,0-.07a9.77,9.77,0,0,1-2.12-.47c-.76-.25-1.51-.66-2.18-.94h.09a55.69,55.69,0,0,1-5.75-2.49A48.15,48.15,0,0,1,54.59,88a42.29,42.29,0,0,1-4.71-4,35.65,35.65,0,0,1-3.94-4.85c-.51-.84-1.11-1.66-1.61-2.59s-1.14-1.79-1.67-2.74l-1.48-3a27.09,27.09,0,0,1-1.09-3.18,3,3,0,0,0-.16-.65,9.33,9.33,0,0,1-.32-1.19c-.22-1-.53-2.14-.86-3.33l-.59-3.39C38,58.17,38,57.45,37.89,57.25Z"/><path class="cls-1" d="M38.6,43.91v0C38.69,44,38.67,43.91,38.6,43.91Z"/><polygon class="cls-1" points="35.47 63.23 35.45 63.17 35.37 63.43 35.47 63.23"/><path class="cls-1" d="M34.58,50.38c-.07.57,0,.6,0,.52A2.23,2.23,0,0,0,34.58,50.38Z"/><path class="cls-1" d="M39.68,39.59c.11-.27,0-.18-.11-.05l-.15.48Z"/><path class="cls-1" d="M38,40.26l-.05-.12C37.86,40.31,37.9,40.32,38,40.26Z"/><path class="cls-1" d="M149.61,98s0,0,0,0Z"/><path class="cls-1" d="M146.07,110.09h0a.94.94,0,0,1,0,.09Z"/><path class="cls-1" d="M144.46,110.24h0S144.52,110.26,144.46,110.24Z"/><path class="cls-1" d="M157.31,106.77a.09.09,0,0,0,0-.07A.36.36,0,0,1,157.31,106.77Z"/><path class="cls-1" d="M157.83,94.82h0Z"/><path class="cls-1" d="M157.73,94.93c-.17,0,0-.06.07-.1a1.45,1.45,0,0,0-.53.19S157.63,94.93,157.73,94.93Z"/><path class="cls-1" d="M148.35,85.51h0Z"/><path class="cls-1" d="M153.31,105.44h0Z"/><path class="cls-1" d="M150.44,86.55l.07-.06A.14.14,0,0,0,150.44,86.55Z"/><path class="cls-1" d="M146,110.19l0,0Z"/><path class="cls-1" d="M146,112.07a.09.09,0,0,0,0,.06h0Z"/><path class="cls-1" d="M138.7,119.7a0,0,0,0,0,0,0l.08,0Z"/><path class="cls-1" d="M149.34,116.8h0a4.14,4.14,0,0,0-.39-.57l-.11,0Z"/><path class="cls-1" d="M147.42,119a.89.89,0,0,0,.17.24l-.13,0h-.34l-1.1-.08a16.68,16.68,0,0,0-2.19-.08l.1,0c-.24-.08-.41.43-3.05-.46a.36.36,0,0,1-.27,0l.45.18a3.86,3.86,0,0,1-.89.08c-.07,0-.1-.08-.1-.12l-.91-.08-.27-.17c-.28,0-.17.33-.9.07.27.23-.37.06-.28.17l-.19-.12a7.67,7.67,0,0,0-1.45-.06s1.67.69,2.11,1c-.61-.15-.16,0,0,.08l0,0c.36.1.35.23.54.29,0,0,0,0,0,0s0,0,0,0,0,0,.09,0,.42.07.54.09v.11c.29-.16,1.83.55,2.2.6s.84.07,1.3.19c.75.11.36.2.73.33s-.08-.14.11-.13l.55.21c-.33,0-.16.07-.1.11.49.07,1.23.34,1.4.12.64.16.64.25.92.28-.09,0-.28-.1-.28-.15.26.12.13,0,0,0a1.35,1.35,0,0,1,.49,0l.34.07a3.41,3.41,0,0,0,.43.09c.74.13,1.51.23,1.51.1l0,.05c0-.19-.27-.38,0-.48l.3.08.28-.11c.27,0,.2.08.22.11.22-.1.5-.13.78-.22a1,1,0,0,0,.54-.84,1.36,1.36,0,0,1-.66.41.67.67,0,0,0,.27-.76c-.05-.24-.14-.47-.26-.53a2,2,0,0,0,.06-.26,1.13,1.13,0,0,0-.46-.81c-.14-.09-.26-.08-.35-.3s-.13-.39-.21-.6l.39.53-.35-.7c-.07-.17-.11-.3-.18-.49t0,.06l0,0c-.11,0-.31-.15-.5-.42a5.91,5.91,0,0,1-.91-1.31l-.27,0-.27-.51.12-.09c.34.43,1.05,1.22,1.48,1.78l.06,0c-.25-.33-.61-.68-.77-.91s-.16-.49.08-.35l-.28-.12a20.31,20.31,0,0,1-1.73-2.3l0,.14c-.22-.2-.44-.39-.4-.52-.28-.34-.55-.69-.78-1-.11-.16-.22-.32-.31-.47s-.06-.09,0-.1v0l0-.06-.17.06c0-.05.23-.13-.05-.09l-.15-.06s-.19-.09-.09-.12-.29-.06-.13-.16c.22,0-.34-.22-.16-.22a4.28,4.28,0,0,1,.43.19c.27.1,0-.11.27-.14s.19.27.22.45v-.07l.06-.05.08-.07.34-.12c.1.08,0,.1,0,.2.44,0,.24-.12.56-.15.06-.19.11-.47.21-.49l-.13,0a2.39,2.39,0,0,1,1.09-.21v.09l.41-.11.05.11.59-.14h-.09a3.23,3.23,0,0,1,.88-.14v.06a7,7,0,0,0,2.22-.52l-.09.15c.33.07,0-.21.41-.22l.05.15c.26-.28.41,0,.64,0l-.14-.19.41,0c.46,0,.33.2.29.33l.27-.24.1.18c.09-.14.15-.14.23-.14a.65.65,0,0,0,.14,0l.3-.11c.08.06-.1.14.16.11.4-.19.76-.37,1.1-.55l-.66.29,0-.28c.58-.36,1-.21,1.41-.41l-.27.16.76-.25a2.21,2.21,0,0,0,.5-.16c-.16,0-.39.08-.2-.09s.18,0,.35-.09c-.17-.16,0-.4.29-.64,0,0,.05,0,.05.06a.55.55,0,0,1,.12-.32l.15.16a2.07,2.07,0,0,0-.08-.42c.12-.27-.1-.61.05-.56l.06.13a2.51,2.51,0,0,0-.19-.69,2.78,2.78,0,0,0-.5-.77l.18-.07a.81.81,0,0,1-.31-.15c-.34-.23-.75-.68-.89-.52a3.73,3.73,0,0,0-.81-.64c-.33-.23-.39-.28-.25-.38a16.33,16.33,0,0,1-2.09-1.29c-.17-.43-1.09-.94-1.65-1.34a20,20,0,0,0-2.39-1.17c.13-.12.07-.12-.12-.18s-.18-.09-.17-.15.09,0,.21,0l-.16-.1c.48.1.22-.11.8-.06a3,3,0,0,1,.31-.18.14.14,0,0,1-.15-.08c.24,0,.67-.22.7,0l0,0c0,.18.65-.28,1-.22l-.21-.14.44-.1-.1.07a11.29,11.29,0,0,1,3-1.09c.81-.28,1.53-.78,2.32-1.1.56-.22,1.41-.38,1.74-.94a.82.82,0,0,0,.12-.25,1.07,1.07,0,0,0-.12-.7,3.31,3.31,0,0,0-.92-1.45c-.43-.38-.83-.8-1.23-1.22l-.8-.84-.65-.7a3.73,3.73,0,0,1-.45-.52,1.42,1.42,0,0,0-.29-.39c-.11-.08-.27-.08-.38-.16s-.3-.31-.16-.25a4.59,4.59,0,0,1-1.43-.53c-.07-.31-1.63-.55-1.53-.77-.62-.51-1.46-.55-2.14-1h-1.91v.94l1,1.24c1.25.55,2.52,1.13,3.73,1.73.9.61,1.79,1.23,2.69,1.88a7.83,7.83,0,0,0,.79.47c.36.21,1,.4.45.74-.39.22-.31.62-.7.79s-.87.33-1.31.51a12.9,12.9,0,0,1-2.7.94l0,.18a.77.77,0,0,1-.58.06c-.51.19-1,.37-1.56.54l-1.37.44c-.47.16-1,.28-1.41.45a2.12,2.12,0,0,0-.79.59,1.37,1.37,0,0,0-.21.28,1.14,1.14,0,0,0-.15.43,1.18,1.18,0,0,0,.13.83,3,3,0,0,0,.57.75,8.5,8.5,0,0,0,1.17.79l1.24.79,1.38.93c.87.6,1.69,1.22,2.46,1.85.24.33,1.23,1,1.39,1.27l.39.21c.07,0,.06,0,.1,0a.53.53,0,0,1,.16,0l.18.11a.08.08,0,0,1,0,.15l0,0a.07.07,0,0,1,0,.06l-.08,0c.07.06,0,.09-.13.09l-.14,0s-.26,0-.46.06l0,0c-2.37.63-4.74,1.17-7,1.61-.7.13-1.42.24-2.13.34-.52.08-1.09.11-1.54.23a2.45,2.45,0,0,0-.91.49,1.41,1.41,0,0,0-.43.93,2.2,2.2,0,0,0,.21.93,6.05,6.05,0,0,0,.92,1.21l.54.64.27.32.14.19c1.24,1.88,3.16,3.7,4.51,6a1.85,1.85,0,0,0,.19.35c0,.08,0,0,0,.06S147.44,118.93,147.42,119Z"/><path class="cls-1" d="M140.07,118.66h0C140.09,118.59,140.06,118.61,140.07,118.66Z"/><polygon class="cls-1" points="151.13 120.26 151.13 120.3 151.22 120.21 151.13 120.26"/><path class="cls-1" d="M143.82,121.19c.31.06.33,0,.29,0A.92.92,0,0,0,143.82,121.19Z"/><path class="cls-1" d="M137.53,118.45c-.16,0-.1,0,0,.08l.28,0Z"/><path class="cls-1" d="M138.14,119.52l-.06,0C138.18,119.57,138.17,119.55,138.14,119.52Z"/><path class="cls-1" d="M132.38,131Z"/><path class="cls-1" d="M122.79,139.18h0l-.09.06Z"/><path class="cls-1" d="M121.36,138.42h0S121.4,138.47,121.36,138.42Z"/><path class="cls-1" d="M134,142.53a.1.1,0,0,0,.07-.05A.18.18,0,0,1,134,142.53Z"/><path class="cls-1" d="M141,132.82h0l.08,0Z"/><path class="cls-1" d="M140.85,132.86c-.18-.06,0-.05.11,0a1.44,1.44,0,0,0-.55-.14C140.4,132.74,140.76,132.8,140.85,132.86Z"/><path class="cls-1" d="M138.14,119.83l0,0Z"/><path class="cls-1" d="M131.4,139.23h0S131.39,139.22,131.4,139.23Z"/><path class="cls-1" d="M139.35,121.87l.09,0C139.39,121.85,139.37,121.85,139.35,121.87Z"/><path class="cls-1" d="M122.68,139.23h0Z"/><path class="cls-1" d="M121.66,140.81l-.06,0v0Z"/><path class="cls-1" d="M111.38,143.21s0,0,0,0h.1A.25.25,0,0,0,111.38,143.21Z"/><path class="cls-1" d="M121.88,146.58l0,0a4.07,4.07,0,0,0,0-.69l-.12,0Z"/><path class="cls-1" d="M119.09,147.36a.58.58,0,0,0,0,.29l-.12-.06-.06,0-.22-.16-.88-.66a16.3,16.3,0,0,0-1.79-1.26l.1,0c-.16-.2-.58.13-2.32-2h0c-.07-.06-.1,0-.21-.19l.29.4a4.1,4.1,0,0,1-.79-.42.16.16,0,0,1,0-.16l-.72-.56-.13-.29c-.26-.13-.33.18-.79-.43.09.34-.35-.15-.34,0a1.38,1.38,0,0,0-.08-.2,7.21,7.21,0,0,0-1.19-.85s1,1.49,1.24,2c-.42-.45-.13-.09-.08,0h.06c.25.28.17.38.29.53,0,0,0,0,0,0h0s0,0,0,0,0,0,.11,0h0a2.88,2.88,0,0,1,.4.36l-.06.09c.33,0,1.23,1.46,1.51,1.7s.67.51,1,.87c.57.5.2.36.43.67s0-.16.16,0l.35.48c-.27-.2-.17,0-.15,0,.38.32.86,1,1.11.86.46.48.41.56.63.73,0-.09-.18-.23-.15-.27.15.24.11.06,0,0a1.89,1.89,0,0,1,.39.31l.24.25a3,3,0,0,0,.31.31c.55.51,1.14,1,1.21.9v0c.14-.14,0-.47.3-.38l.21.23.29.06c.21.17.12.18.13.21.24.05.49.16.77.25a1,1,0,0,0,.91-.41,1.39,1.39,0,0,1-.78,0,.69.69,0,0,0,.65-.49c.08-.23.14-.47.06-.59l.2-.18a1.15,1.15,0,0,0,.05-.93c-.07-.16-.17-.21-.13-.44s.11-.4.16-.62l0,.66.09-.79c0-.17.07-.3.12-.5h0s0,0,0,.05v-.07c-.1-.05-.18-.29-.2-.62a6.48,6.48,0,0,1-.05-1.6l-.2-.17,0-.57.15,0c.05.55.21,1.6.27,2.31H122c0-.41-.15-.89-.16-1.17s.14-.51.26-.26l-.17-.25a19.22,19.22,0,0,1-.19-2.87l0,.13c-.08-.28-.16-.57-.06-.66,0-.43-.08-.87-.09-1.27,0-.2,0-.39,0-.57a.49.49,0,0,0,0-.11l0,0,.06,0-.18,0c0-.06.27,0,0-.1l-.09-.13s-.12-.18,0-.15h0l0,0c.09,0-.21-.2,0-.21.16.17-.17-.36,0-.27s.18.27.26.4.07-.08.3,0,0,.33-.06.5l0-.07H122l.36.08c0,.12,0,.12-.15.15.35.28.27,0,.56.18.14-.12.34-.33.44-.3l-.09-.1a2.45,2.45,0,0,1,1,.42l-.05.07.41.14,0,.11.57.22-.06-.06a3.64,3.64,0,0,1,.81.35l0,.06a7,7,0,0,0,2.13.77l-.15.08c.24.23.15-.16.46,0l0,.16c.38-.08.37.19.55.34l0-.23.37.18c.41.23.17.35.07.44l.35,0V142a.25.25,0,0,1,.27,0,.36.36,0,0,0,.12.08,1.14,1.14,0,0,0,.3.07c0,.09-.16.07.08.19.44,0,.84.1,1.22.13l-.71-.11.12-.26c.68,0,.92.35,1.41.42H132l.77.21a2.54,2.54,0,0,0,.51.13c-.15,0-.37-.14-.12-.18s.15.1.34.11c0-.22.23-.32.59-.37,0,0,0,.05,0,.07a.59.59,0,0,1,.27-.2l0,.22a2.27,2.27,0,0,0,.16-.39c.24-.16.25-.56.34-.44s0,.09,0,.14a2.54,2.54,0,0,0,.21-.68,2.74,2.74,0,0,0,0-.91l.19,0a.75.75,0,0,1-.18-.3c-.17-.38-.26-1-.47-.92a3.69,3.69,0,0,0-.33-1c-.15-.38-.17-.46,0-.46a17.2,17.2,0,0,1-1-2.22c.1-.46-.4-1.39-.65-2a16.71,16.71,0,0,0-1.36-2.29c.17,0,.12-.08,0-.23s-.09-.17-.06-.21.11,0,.21.08a1,1,0,0,1-.09-.17c.35.34.25,0,.7.39a2,2,0,0,1,.36,0,.17.17,0,0,1-.08-.15c.21.12.69.18.61.35h-.06c-.07.16.71.11.92.34l-.09-.23.42.15H134c2,.09,2.71.92,4.59.91-.29.17.38,0,.35.2.43.4.74.09,1.49.15,0,0,0,0,0,0l1.08.23c-.28.11-.1.08.08,0s.34-.09.11,0A2.75,2.75,0,0,0,143,133a1.57,1.57,0,0,0,.93-.46,1.79,1.79,0,0,0,.34-.55,1.51,1.51,0,0,0,.06-.51,2.85,2.85,0,0,0-.24-1.28c-.29-.63-.58-1.24-.89-1.85-.19-.37-.36-.74-.52-1.1l0,.12a8.39,8.39,0,0,1-.68-1.39c-.07-.4-.57-.65-.65-.78-.32-.31-.27-.76-.2-.6-.25-.38-.69-.62-.9-1.22.12-.29-1.06-1.35-.82-1.48h0c-.24-.77-.93-1.26-1.24-2.06a.12.12,0,0,1,.06,0l-1.65-1.09-.49.81.14,1.57c.74,1.14,1.46,2.3,2.17,3.49.44,1,.82,2,1.22,3l.75,1.52.18.39,0,.05h0l0,0s.1.12,0,.14h-.17s-.12.06-.22.08l-.3.06c-1.48-.64-3.56-.66-5.14-1.32l-.06.17a.8.8,0,0,1-.52-.26l-1.59-.39-1.39-.39c-.48-.13-1-.32-1.43-.4a2.14,2.14,0,0,0-1,.06,1.18,1.18,0,0,0-.33.12,1.1,1.1,0,0,0-.36.28,1.41,1.41,0,0,0-.26.41,1.39,1.39,0,0,0-.08.36,2.9,2.9,0,0,0,.06.94,9.14,9.14,0,0,0,.55,1.3l.6,1.34.65,1.53c.41,1,.75,1.94,1,2.9,0,.4.5,1.49.48,1.82l.21.39c0,.05.05,0,.07.05a1.36,1.36,0,0,1,.12.12,1.07,1.07,0,0,1,.09.19.08.08,0,0,1-.08.13v0s0,0-.06,0l0-.07c0,.1-.08.06-.16,0l-.11-.1c.06,0-.23-.12-.42-.2h.06c-2.33-.77-4.62-1.61-6.74-2.47-.66-.27-1.32-.57-2-.88-.47-.2-1-.5-1.41-.64a2.27,2.27,0,0,0-1-.08,1.36,1.36,0,0,0-.87.54,2.07,2.07,0,0,0-.33.9,5.89,5.89,0,0,0,.11,1.51l.1.83,0,.42,0,.23c0,2.26.64,4.83.51,7.5a2.08,2.08,0,0,0,0,.39c0,.09,0,0,0,.05s0,0,0,0S119.13,147.34,119.09,147.36Z"/><path class="cls-1" d="M113.09,143.09h0S113.1,143.05,113.09,143.09Z"/><polygon class="cls-1" points="121.49 150.46 121.47 150.5 121.6 150.47 121.49 150.46"/><path class="cls-1" d="M114.85,147.26c.24.22.26.21.24.16A.56.56,0,0,0,114.85,147.26Z"/><path class="cls-1" d="M111.08,141.53c-.12-.11-.1,0,0,.07l.21.17Z"/><path class="cls-1" d="M111,142.76h-.07C111,142.82,111,142.8,111,142.76Z"/><path class="cls-1" d="M100,149.19s0,0,0,0Z"/><path class="cls-1" d="M87.42,150.82l0,0h-.1Z"/><path class="cls-1" d="M86.63,149.39h0S86.64,149.45,86.63,149.39Z"/><path class="cls-1" d="M95,159.78a.12.12,0,0,0,.09,0Z"/><path class="cls-1" d="M106.13,155.46l0,0,0,.08Z"/><path class="cls-1" d="M106,155.42c-.11-.15.06,0,.12,0a1.4,1.4,0,0,0-.39-.41C105.69,155.08,106,155.32,106,155.42Z"/><path class="cls-1" d="M110.83,143l0,0A.08.08,0,0,0,110.83,143Z"/><path class="cls-1" d="M94.59,155.58h0S94.59,155.57,94.59,155.58Z"/><path class="cls-1" d="M110.74,145.39l.08,0Z"/><path class="cls-1" d="M87.3,150.8h0Z"/><path class="cls-1" d="M85.58,151.59h0Z"/><path class="cls-1" d="M75.64,148l0,0,.08.06Z"/><path class="cls-1" d="M82.6,156.52s0,0,0,0A3.3,3.3,0,0,0,83,156l-.09-.07Z"/><path class="cls-1" d="M79.84,155.64a.66.66,0,0,0-.14.25.44.44,0,0,1-.08-.11l0-.07-.1-.25-.38-1c-.23-.64-.45-1.27-.81-2l.08.07c0-.24-.56-.2-.84-3h0a.42.42,0,0,1-.08-.27l0,.49a4.77,4.77,0,0,1-.42-.79.14.14,0,0,1,.06-.14l-.3-.85.05-.32c-.15-.24-.38,0-.43-.78-.11.34-.21-.31-.27-.19,0,0,0-.14,0-.22a7,7,0,0,0-.53-1.36s0,1.81,0,2.33c-.11-.62-.06-.15-.09,0l.06,0c0,.38-.07.42,0,.61l0,0,0,0s0,0,0,0,0,0,.07.1h0a4.38,4.38,0,0,1,.13.52l-.1,0c.26.2.23,1.9.34,2.26s.28.78.36,1.25c.2.72,0,.41,0,.8s.09-.14.16,0l0,.58c-.11-.3-.12-.11-.14,0,.14.47.19,1.26.46,1.33.12.66,0,.69.12,1,0-.1,0-.29,0-.31,0,.28.07.11.05,0a1.42,1.42,0,0,1,.15.48l.07.34c0,.12,0,.23.09.43.19.73.41,1.48.52,1.42l0,.05c.19-.05.24-.4.46-.16a2.61,2.61,0,0,0,0,.31,1.33,1.33,0,0,0,.22.2c.08.26,0,.22,0,.25.17.16.32.39.51.61a1,1,0,0,0,1,.15,1.33,1.33,0,0,1-.65-.45.7.7,0,0,0,.82,0c.19-.15.36-.31.37-.45s.17,0,.26,0a1.09,1.09,0,0,0,.55-.74c0-.17,0-.27.14-.44s.3-.27.46-.43l-.33.57.5-.61.37-.37h0s0,0,0,0l0-.06c0-.09,0-.34.18-.63a6.12,6.12,0,0,1,.83-1.37l-.07-.25.35-.45.13.07L83,156l.05,0c.21-.37.38-.83.52-1.07s.39-.34.36-.07v-.3a19.46,19.46,0,0,1,1.41-2.49l-.12.08c.09-.28.18-.56.31-.57.2-.4.41-.79.62-1.14l.31-.49s.06-.09.07-.09h.1a.49.49,0,0,1-.12-.13s.2.17.06-.08v-.16s0-.21.07-.13h0v0c.09,0-.07-.29.09-.18s.06-.4.14-.24v.47c0,.29.1,0,.23.2s-.17.28-.32.38l.06,0,.07,0L87,150s.09.1.26.27c0,.12-.08.08-.2,0,.13.43.2.18.36.46.19,0,.47-.08.54,0l0-.14a2.45,2.45,0,0,1,.64.93l-.08,0,.26.33-.07.09.36.49,0-.09a3.68,3.68,0,0,1,.48.73l-.06,0c.27.74.83,1.1,1.37,1.82l-.18,0c.08.32.22,0,.37.28l-.12.11c.36.13.21.36.28.59l.11-.21.21.36c.21.41,0,.39-.18.4l.32.15-.12.16c.16,0,.19.08.22.16a.69.69,0,0,0,.06.13l.21.23c0,.09-.17,0,0,.19.33.29.65.56.94.79l-.52-.49.24-.14c.56.39.58.79.94,1.11l-.26-.18.53.58a2.52,2.52,0,0,0,.35.39c-.09-.13-.22-.32,0-.22s.08.17.23.29c.07-.21.36-.15.7,0a.06.06,0,0,1,0,.06.58.58,0,0,1,.34,0l-.09.2a1.92,1.92,0,0,0,.35-.23c.3,0,.52-.33.53-.18l-.09.1a2.72,2.72,0,0,0,.56-.44,2.76,2.76,0,0,0,.49-.77l.15.12a.7.7,0,0,1,0-.35c.07-.41.32-1,.11-1a3.43,3.43,0,0,0,.26-1c.08-.4.11-.47.25-.38a16,16,0,0,1,.35-2.43,5.46,5.46,0,0,0,.56-2,19.27,19.27,0,0,0,.11-2.68c.16.07.14,0,.12-.18s0-.2.06-.22.09.06.13.18a1.11,1.11,0,0,1,0-.19c.11.48.2.16.38.72a2,2,0,0,1,.29.21.15.15,0,0,1,0-.17c.11.22.48.53.32.62l0,0c-.15.1.53.49.59.79l0-.24.28.36-.11-.06c1.61,1.17,1.76,2.25,3.34,3.27-.33,0,.34.18.19.36.14.57.57.48,1.16.94,0,0,0,0,.06,0l.78.79c-.3-.07-.13,0,0,.07s.34.11.08.06a2.76,2.76,0,0,0,1,.72,1.52,1.52,0,0,0,1.61-.16,1.56,1.56,0,0,0,.34-.39,2.86,2.86,0,0,0,.49-1.2c.1-.69.19-1.35.26-2,0-.41.1-.82.16-1.21l-.08.09a7.43,7.43,0,0,1,.19-1.53c.15-.38-.12-.86-.12-1-.1-.44.19-.79.16-.61a4.84,4.84,0,0,1-.09-1.51c.26-.19-.15-1.72.12-1.7h0c.22-.78-.09-1.57.08-2.41l0,.05-.79-1.81-.85.41-.74,1.39c0,1.36,0,2.73-.08,4.11-.18,1.08-.4,2.13-.64,3.21l-.2,1.69-.06.42v.05h0v.06s0,.16,0,.14l-.15-.1s-.13,0-.22-.05l-.28-.12c-.89-1.33-2.63-2.5-3.59-3.9l-.15.1a.8.8,0,0,1-.29-.5l-1.11-1.2c-.32-.35-.64-.72-.95-1.08s-.66-.81-1-1.12a2.19,2.19,0,0,0-.85-.49,1.56,1.56,0,0,0-.34-.09,1.27,1.27,0,0,0-.46,0,1.3,1.3,0,0,0-.44.22,1.25,1.25,0,0,0-.26.25,2.57,2.57,0,0,0-.46.82,8.48,8.48,0,0,0-.26,1.38l-.23,1.45c-.09.55-.19,1.09-.29,1.63-.2,1.05-.43,2.07-.71,3-.2.35-.4,1.51-.6,1.77l0,.44c0,.07,0,.06,0,.09a.47.47,0,0,1,0,.17.76.76,0,0,1,0,.21.08.08,0,0,1-.13.06v0h-.07v-.09c0,.09-.1,0-.14-.08a.39.39,0,0,1,0-.14s-.13-.23-.24-.4l0,0c-1.54-1.93-3-3.84-4.3-5.77l-1.17-1.78a13.62,13.62,0,0,0-.83-1.32,2.31,2.31,0,0,0-.82-.65,1.24,1.24,0,0,0-1,0,2.34,2.34,0,0,0-.77.59,5.74,5.74,0,0,0-.74,1.32l-.36.74-.19.37-.11.21a32.67,32.67,0,0,0-1.71,3.2,23.77,23.77,0,0,1-2,3.35,1.74,1.74,0,0,0-.25.31c-.06.07,0,0,0,0s0,0,0,0S79.89,155.64,79.84,155.64Z"/><path class="cls-1" d="M77.15,148.79v0C77.22,148.78,77.19,148.76,77.15,148.79Z"/><polygon class="cls-1" points="80.16 159.56 80.13 159.57 80.25 159.62 80.16 159.56"/><path class="cls-1" d="M76.35,153.25c.08.31.1.31.12.26A.7.7,0,0,0,76.35,153.25Z"/><path class="cls-1" d="M76.31,146.41c0-.16-.06-.08-.08,0l.09.27Z"/><path class="cls-1" d="M75.58,147.39l-.07,0C75.55,147.44,75.57,147.43,75.58,147.39Z"/><path class="cls-1" d="M62.81,146.74s0,0,0,0Z"/><path class="cls-1" d="M50.42,144.28v0l-.09-.05Z"/><path class="cls-1" d="M50.53,142.66h0S50.51,142.72,50.53,142.66Z"/><path class="cls-1" d="M52.86,152.9s0,0,.07,0Z"/><path class="cls-1" d="M64.57,155.38v.07Z"/><path class="cls-1" d="M64.47,155.27c0-.18.06,0,.09.08a1.64,1.64,0,0,0-.1-.56C64.4,154.81,64.49,155.16,64.47,155.27Z"/><path class="cls-1" d="M75.3,147.51v.05A.09.09,0,0,1,75.3,147.51Z"/><path class="cls-1" d="M54.83,149.18h0Z"/><path class="cls-1" d="M73.93,149.43l0,.07S74,149.44,73.93,149.43Z"/><path class="cls-1" d="M50.33,144.2l0,0S50.32,144.19,50.33,144.2Z"/><path class="cls-1" d="M48.47,143.9a.08.08,0,0,0,0-.05h0Z"/><path class="cls-1" d="M42.13,135.45h0l0,.09A.14.14,0,0,0,42.13,135.45Z"/><path class="cls-1" d="M43.27,146.41v0a2.65,2.65,0,0,0,.63-.29l0-.11Z"/><path class="cls-1" d="M40.45,147.18a6.48,6.48,0,0,0,1.4-.2,14.71,14.71,0,0,1,2.24-.89,6.13,6.13,0,0,0,.73-.11,2.86,2.86,0,0,0,.66-.37A14.61,14.61,0,0,1,48,144.16h-.14c.22-.18.45-.37.57-.31.38-.22.77-.43,1.13-.6a5.68,5.68,0,0,1,.53-.23l.1,0,0,0,0,0a1.13,1.13,0,0,1,0-.18c.05,0,.08.26.09,0l.09-.14s.12-.17.13-.06.11-.28.18-.11.22-.13.25-.15c-.41.69.14,1.56.33,2.27a21.68,21.68,0,0,1,.47,3.49,17.17,17.17,0,0,0,.26,1.75c.09.48,0,1,.14,1.45l-.11-.3.12.79a3.67,3.67,0,0,0,.08.52c0-.16,0-.4.12-.19s0,.18,0,.36c.17-.13.38.08.57.4a.07.07,0,0,1-.06,0,.62.62,0,0,1,.3.17l-.19.12h.43c.24.15.61,0,.54.13l-.14,0a2.35,2.35,0,0,0,.71-.07,2.51,2.51,0,0,0,.84-.37l0,.18a.86.86,0,0,1,.2-.28c.28-.31.79-.63.66-.8a3.48,3.48,0,0,0,.75-.69c.29-.29.35-.33.42-.18.64-.62.76-1.17,1.62-1.85.45-.09,1.1-.91,1.58-1.4a17.12,17.12,0,0,0,1.55-2.19c.1.15.12.09.2-.09s.13-.16.18-.14,0,.1,0,.22a.64.64,0,0,1,.13-.15c-.17.46.07.24-.08.81a1.61,1.61,0,0,1,.13.33.14.14,0,0,1,.1-.13c0,.24.11.7-.07.7l0-.06c-.18,0,.18.7.07,1l.16-.18,0,.45,0-.11c.71,1.87.26,2.82,1,4.56-.27-.2.19.34,0,.41-.2.55.21.71.46,1.42,0,0,0,0,.05,0l.23,1.08c-.22-.21-.11-.06,0,.09s.22.27,0,.1a2.6,2.6,0,0,0,.46,1.13,1.62,1.62,0,0,0,.79.67,1.49,1.49,0,0,0,.65.09,1.63,1.63,0,0,0,.49-.14,2.69,2.69,0,0,0,1.07-.73c.45-.53.89-1.07,1.34-1.59.26-.32.52-.62.79-.92l-.12,0a7.46,7.46,0,0,1,1-1.16c.34-.23.37-.79.45-.91.16-.42.59-.56.47-.42.24-.38.29-.89.75-1.32.32,0,.81-1.53,1-1.4.61-.54.78-1.36,1.38-2a.15.15,0,0,1,0,.06l.32-1.95-.93-.13c-.46.27-.92.54-1.38.78-.74,1.13-1.51,2.26-2.31,3.38-.74.8-1.51,1.61-2.29,2.37l-1.09,1.29-.28.32,0,.06,0,.05s-.07.14-.12.08l-.07-.16s-.1-.08-.15-.16l-.18-.26c0-1.61-.85-3.49-.88-5.22h-.18a.8.8,0,0,1,0-.58c-.09-.54-.18-1.08-.28-1.63l-.21-1.4c-.08-.5-.11-1-.21-1.48a2.17,2.17,0,0,0-.45-.88,1.51,1.51,0,0,0-.24-.26,1.16,1.16,0,0,0-.4-.22,1.4,1.4,0,0,0-.49-.06,1.27,1.27,0,0,0-.36.08,2.75,2.75,0,0,0-.83.43,8.75,8.75,0,0,0-1,1l-1,1.09-1.13,1.21c-.75.77-1.49,1.48-2.24,2.13a4.81,4.81,0,0,0-.89.73c-.17.15-.64.66-.86.68-.55.08-.53-2.23-.66-2.72a22.47,22.47,0,0,1-1.15-5.37c0-.71-.29-1.55-1.12-1.69a2.16,2.16,0,0,0-1,.06,6.34,6.34,0,0,0-1.35.71l-.71.43-.37.21-.2.12c-2,.89-4.18,2.53-6.66,3.47a1.49,1.49,0,0,0-.38.12c-.08,0,0,0,0,0s-.09,0-.13,0a.79.79,0,0,0-.26.13.66.66,0,0,1,0-.14v-.06l0-.27.25-1.07a17.37,17.37,0,0,0,.43-2.13l0,.1c.11-.23-.38-.46.94-2.94a.43.43,0,0,1,.09-.27l-.26.42a5,5,0,0,1,.08-.89c0-.08.1-.09.13-.09l.23-.88.21-.24c0-.28-.3-.22.07-.89-.27.23,0-.37-.13-.3a1.38,1.38,0,0,0,.15-.17c.12-.43-.73.3-.81.36l-.21.17-.58.45a1.37,1.37,0,0,1-.6.19.36.36,0,0,0-.17.07A.43.43,0,0,0,41,136c-.18,1.52-.9,2.91-1.17,4.42-.06.31-.62,1.15-.36,1.44-.26.62-.35.6-.43.87.06-.08.14-.26.19-.25-.16.24,0,.13,0,0a1.83,1.83,0,0,1-.13.48l-.13.33c0,.11-.09.21-.16.41a6.28,6.28,0,0,0-.4,2.31.3.3,0,0,0,0,.13c0,.06.07.09.11.13.26.24.23.61.4.89.31.51.45.23.88.09A3.27,3.27,0,0,1,40.45,147.18Z"/><path class="cls-1" d="M42.94,137v0C43,137,43,137,42.94,137Z"/><polygon class="cls-1" points="39.55 147.62 39.52 147.62 39.59 147.72 39.55 147.62"/><path class="cls-1" d="M39.84,140.24c-.11.3-.09.32-.05.29A1.18,1.18,0,0,0,39.84,140.24Z"/><path class="cls-1" d="M43.55,134.5c.06-.16,0-.11-.08,0l-.07.27Z"/><path class="cls-1" d="M42.39,134.92l0-.06C42.34,135,42.36,135,42.39,134.92Z"/><path class="cls-1" d="M50.73,30.22Z"/><path class="cls-1" d="M62.3,24.39l0,0,.1,0Z"/><path class="cls-1" d="M63.53,25.47h0S63.5,25.42,63.53,25.47Z"/><path class="cls-1" d="M52.05,18.5a.1.1,0,0,0-.08,0Z"/><path class="cls-1" d="M42.71,26.44h0l-.07-.06Z"/><path class="cls-1" d="M42.86,26.43c.15.09,0,0-.12,0a1.61,1.61,0,0,0,.51.25C43.26,26.64,42.93,26.51,42.86,26.43Z"/><path class="cls-1" d="M42.28,39.87l0,0Z"/><path class="cls-1" d="M53.8,22.33v0S53.8,22.34,53.8,22.33Z"/><path class="cls-1" d="M41.62,37.61h0Z"/><path class="cls-1" d="M62.42,24.37h0Z"/><path class="cls-1" d="M63.83,23.06l.07,0h0Z"/><path class="cls-1" d="M74.64,23.2l0,0-.09,0Z"/><path class="cls-1" d="M65.1,17.38l0,0a3.35,3.35,0,0,0-.16.69l.11,0Z"/><path class="cls-1" d="M68.07,17.31a.62.62,0,0,0,.06-.29l.11.08.05,0,.17.2.7.86a20,20,0,0,0,1.45,1.66l-.1,0c.11.22.61,0,1.79,2.53h0c.06.07.09,0,.16.23l-.18-.46a5,5,0,0,1,.67.6.2.2,0,0,1,0,.16l.56.72,0,.31c.22.18.38-.1.68.61,0-.35.3.23.33.09,0,.05,0,.14,0,.22a7.35,7.35,0,0,0,1,1.11s-.63-1.69-.73-2.21c.31.55.11.12.1,0h-.07c-.17-.34-.07-.42-.15-.59l0,0h0a0,0,0,0,1,0,0s0,0-.1-.07h0a3.38,3.38,0,0,1-.31-.46l.09-.06c-.32-.11-.84-1.72-1.06-2s-.53-.66-.76-1.08c-.43-.63-.1-.4-.26-.77s0,.16-.16,0l-.22-.54c.21.25.15.06.15,0-.28-.4-.6-1.13-.88-1.1-.33-.58-.25-.64-.43-.87,0,.1.12.27.08.3-.08-.27-.1-.08,0,0a1.49,1.49,0,0,1-.31-.4l-.18-.3a4.26,4.26,0,0,0-.23-.38c-.41-.63-.87-1.26-1-1.17l0-.05c-.17.11-.11.46-.39.3l-.15-.28-.28-.12c-.16-.22-.07-.21-.07-.24-.22-.1-.44-.28-.7-.43a1.05,1.05,0,0,0-1,.19,1.53,1.53,0,0,1,.78.21.73.73,0,0,0-.78.32c-.13.2-.25.42-.21.55l-.24.13a1.18,1.18,0,0,0-.3.89c0,.17.12.25,0,.46s-.21.36-.32.57l.14-.65-.29.74a5.07,5.07,0,0,1-.24.45h0s0,0,0,0v.06c.08.08.1.32,0,.66a6,6,0,0,1-.35,1.57l.15.22-.2.54-.15,0,.33-2.3-.07,0c-.07.42-.09.91-.15,1.19,0,.13-.26.45-.32.19l.1.28a18.1,18.1,0,0,1-.55,2.83L64,22.4c0,.29,0,.58-.11.64-.07.44-.15.87-.23,1.27-.05.21-.09.4-.14.57s0,.11,0,.11l0,0h-.07a.8.8,0,0,1,.16.08c0,.06-.25-.08,0,.1l.06.15s.07.2,0,.14h0v0c-.1,0,.16.25,0,.2s.07.4-.05.27a3.42,3.42,0,0,1-.16-.44c-.11-.27-.09.06-.29-.11s.07-.32.19-.46l-.05.05H63l-.34-.17c0-.12,0-.1.18-.1-.27-.36-.25-.1-.5-.31-.18.08-.43.23-.52.17l.07.13a2.39,2.39,0,0,1-.92-.66L61,24l-.37-.23.05-.11-.51-.34,0,.07a3.67,3.67,0,0,1-.7-.52l0-.05c-.49-.61-1.16-.76-1.91-1.25l.17,0c-.17-.28-.19.12-.45-.14l.08-.15c-.39,0-.32-.27-.45-.46L57,21l-.33-.27c-.34-.32-.07-.38,0-.43l-.37,0,.07-.19c-.17,0-.21,0-.26-.07L56,19.89l-.28-.14c0-.1.18,0,0-.2-.42-.16-.81-.31-1.17-.41l.67.27-.19.22c-.66-.15-.81-.54-1.27-.72l.31.08-.71-.37a2.06,2.06,0,0,0-.47-.25c.14.09.33.23.08.21s-.13-.14-.31-.19c0,.22-.31.25-.69.21a.06.06,0,0,1,0-.07.65.65,0,0,1-.32.13v-.22a2.18,2.18,0,0,0-.26.34c-.29.1-.39.48-.46.35L51,19a2.12,2.12,0,0,0-.38.62,2.82,2.82,0,0,0-.23.91l-.18-.07a.68.68,0,0,1,.1.33c.07.41,0,1,.23,1a3.46,3.46,0,0,0,.07,1c.06.41,0,.49-.12.45a16,16,0,0,1,.46,2.4,5.33,5.33,0,0,0,.15,2.15,17.26,17.26,0,0,0,.77,2.56c-.18,0-.14,0,0,.22s0,.19,0,.22-.11,0-.18-.12a1.49,1.49,0,0,1,0,.18c-.26-.41-.24-.08-.6-.54a2.07,2.07,0,0,1-.35-.11.15.15,0,0,1,0,.17c-.17-.18-.63-.34-.52-.49l.07,0c.11-.14-.67-.29-.83-.55l0,.24-.38-.24.12,0c-1.91-.52-2.41-1.49-4.28-1.92.32-.1-.39-.06-.3-.28-.32-.49-.72-.27-1.43-.49l0,0-1-.46c.3-.05.12-.06-.07-.06s-.35,0-.1,0a2.6,2.6,0,0,0-1.19-.32,1.61,1.61,0,0,0-1,.23,1.63,1.63,0,0,0-.48.46,1.5,1.5,0,0,0-.19.48,3,3,0,0,0-.07,1.33l.43,2c.08.4.16.8.23,1.19l.06-.11a7.79,7.79,0,0,1,.3,1.5c0,.42.41.78.46.92.23.38.08.82,0,.64A4.87,4.87,0,0,1,41.16,36c-.18.27.72,1.58.46,1.66h0c0,.81.6,1.44.7,2.29l-.06,0,1.35,1.44.71-.67.24-1.59c-.46-1.3-.88-2.6-1.26-3.91-.18-1.08-.33-2.18-.46-3.29-.13-.56-.25-1.12-.36-1.67l-.08-.41v-.06h0v0l0,0s-.07-.15,0-.15l.18,0c0-.05.13,0,.23,0h.31c1.32,1,3.32,1.4,4.73,2.43l.11-.15c.43.21.35.3.44.38l1.49.76,1.26.68c.44.23.89.53,1.3.7a2.43,2.43,0,0,0,1,.18,2.1,2.1,0,0,0,.36,0,1.42,1.42,0,0,0,.43-.19,1.72,1.72,0,0,0,.36-.35,2.14,2.14,0,0,0,.16-.35,3.14,3.14,0,0,0,.16-.94,8.57,8.57,0,0,0-.2-1.4l-.25-1.43c-.09-.56-.17-1.1-.26-1.64-.14-1.06-.25-2.09-.31-3.11.07-.41-.11-1.56,0-1.88l-.11-.43c0-.06,0,0-.06-.07a.36.36,0,0,1-.08-.15.73.73,0,0,1-.05-.2.09.09,0,0,1,.11-.11v0a.08.08,0,0,1,.07,0l0,.08c0-.1.09,0,.16,0a.83.83,0,0,1,.08.12c-.06,0,.19.18.36.3h0l3.09,1.95c1,.67,2,1.35,3,2L62.11,28a14.44,14.44,0,0,0,1.23,1,2.49,2.49,0,0,0,1,.34,1.41,1.41,0,0,0,1-.33,2.55,2.55,0,0,0,.55-.81,5.49,5.49,0,0,0,.28-1.49l.11-.83.07-.42,0-.23c.56-2.22.62-4.86,1.43-7.41a2,2,0,0,0,.14-.38c0-.08,0,0,0,0h0C68,17.35,68,17.32,68.07,17.31Z"/><path class="cls-1" d="M72.92,22.9l0,0C72.85,22.93,72.89,22.94,72.92,22.9Z"/><polygon class="cls-1" points="66.49 13.71 66.51 13.69 66.38 13.68 66.49 13.71"/><path class="cls-1" d="M72.24,18.42c-.18-.27-.2-.27-.2-.21A1,1,0,0,0,72.24,18.42Z"/><path class="cls-1" d="M74.5,24.9c.09.14.09.06.07,0l-.17-.23Z"/><path class="cls-1" d="M74.9,23.73H75C74.91,23.67,74.89,23.68,74.9,23.73Z"/><path class="cls-1" d="M87.53,20.22s0,0,0,0Z"/><path class="cls-1" d="M100.38,21.84v0l.11,0Z"/><path class="cls-1" d="M100.8,23.42h0S100.81,23.36,100.8,23.42Z"/><path class="cls-1" d="M95.17,11.23a.18.18,0,0,0-.09,0Z"/><path class="cls-1" d="M83,12.62l0,0,0-.09Z"/><path class="cls-1" d="M83.13,12.7c.07.16-.07,0-.11-.06a1.35,1.35,0,0,0,.28.5S83.14,12.8,83.13,12.7Z"/><path class="cls-1" d="M75.13,23.52v-.05S75.13,23.5,75.13,23.52Z"/><path class="cls-1" d="M94.48,15.38v0Z"/><path class="cls-1" d="M75.84,21.25l-.08-.06A.14.14,0,0,0,75.84,21.25Z"/><path class="cls-1" d="M100.5,21.88l0,0Z"/><path class="cls-1" d="M102.4,21.59a.09.09,0,0,0,.06,0h0Z"/><path class="cls-1" d="M111.29,27.74h0l-.07-.08A.46.46,0,0,0,111.29,27.74Z"/><path class="cls-1" d="M106.62,17.61s0,0,0,0a2.88,2.88,0,0,0-.52.47l.07.1Z"/><path class="cls-1" d="M109.13,19.19a.77.77,0,0,0,.21-.2l0,.13v.07l0,.27.11,1.09a20.06,20.06,0,0,0,.28,2.18l-.06-.09c0,.25.5.35.06,3.09h0a.46.46,0,0,1,0,.28l.1-.48a4.34,4.34,0,0,1,.22.88.16.16,0,0,1-.1.12l.07.91-.13.29c.08.27.37.12.22.87.2-.3.13.36.23.26s-.06.13-.1.2a8.27,8.27,0,0,0,.17,1.47s.43-1.76.63-2.25c0,.63,0,.17.1,0l0,0c0-.38.17-.38.2-.57h0v0s0,0,0,0-.05,0,0-.11v0a3.28,3.28,0,0,1,0-.55h.1c-.2-.26.27-1.89.26-2.26s-.08-.84,0-1.32c0-.75.14-.38.22-.77s-.13.11-.15-.08l.12-.58c0,.33.09.15.13.08,0-.49.14-1.28-.1-1.41,0-.67.14-.68.12-1,0,.1-.05.29-.1.29.08-.27,0-.12,0,0a2.19,2.19,0,0,1,0-.5l0-.35c0-.12,0-.23,0-.44,0-.75,0-1.54-.15-1.51l0,0c-.2,0-.34.31-.49,0,0-.11,0-.22,0-.31a1.64,1.64,0,0,0-.16-.26c0-.27.06-.21.08-.24a5.55,5.55,0,0,1-.35-.73,1,1,0,0,0-.94-.42,1.39,1.39,0,0,1,.52.61.7.7,0,0,0-.81-.18c-.23.09-.45.21-.49.34l-.27,0a1.11,1.11,0,0,0-.74.57c-.07.16,0,.27-.25.39s-.37.18-.57.3l.48-.47-.66.46a5,5,0,0,1-.46.25h0l0,0,0,.06c0,.1-.1.32-.34.56a5.78,5.78,0,0,1-1.17,1.09v.27l-.47.33-.11-.1c.38-.41,1-1.2,1.55-1.72l0-.05c-.3.3-.58.7-.79.89s-.47.22-.37,0l-.07.29a18.79,18.79,0,0,1-2,2.05l.14-.05c-.16.25-.32.5-.46.48-.29.33-.6.65-.9.93l-.43.39L101,23h0l-.06,0a.83.83,0,0,1,.09.16s-.16-.22-.08.05l0,.16s-.06.21-.1.11h0v0c-.08-.06,0,.3-.14.15,0-.23-.16.37-.19.19s.08-.32.12-.45c.06-.29-.11,0-.18-.26s.24-.22.41-.28l-.06,0-.07-.06a.22.22,0,0,1-.07-.07c0-.05-.07-.12-.19-.33.07-.1.1-.06.21,0,0-.45-.16-.23-.25-.54-.19,0-.48,0-.53-.13v.13a2.32,2.32,0,0,1-.39-1.05h.09l-.18-.4.1-.06-.24-.57v.09a3.73,3.73,0,0,1-.29-.83H99a7.25,7.25,0,0,0-.88-2.12l.16.06c0-.34-.22,0-.29-.37l.14-.08c-.32-.22-.11-.4-.12-.63l-.16.17-.12-.4c-.11-.45.15-.36.29-.34l-.29-.23.16-.12c-.15-.07-.16-.13-.17-.21a1.21,1.21,0,0,0,0-.14,2.2,2.2,0,0,0-.16-.28c0-.08.16.08.09-.18-.26-.36-.51-.69-.74-1l.4.6-.28.08c-.46-.5-.37-.91-.65-1.31l.21.24-.38-.71a2,2,0,0,0-.25-.47c.07.15.15.37-.05.21s0-.18-.15-.33c-.13.18-.4,0-.69-.2a.09.09,0,0,1,0-.06.58.58,0,0,1-.34-.07l.14-.17a2,2,0,0,0-.41.14c-.29-.07-.6.19-.57,0l.12-.08a2.4,2.4,0,0,0-.67.3,2.76,2.76,0,0,0-.69.62l-.11-.16a.7.7,0,0,1-.1.33c-.17.38-.56.84-.37,1a3.27,3.27,0,0,0-.51.89c-.18.36-.23.42-.35.3a16.25,16.25,0,0,1-1,2.27c-.41.23-.77,1.23-1.08,1.84A17.63,17.63,0,0,0,88.39,21c-.15-.1-.14,0-.17.15s-.06.19-.12.19-.07-.08-.08-.21a.75.75,0,0,1-.07.18c0-.48-.15-.2-.19-.79a1.7,1.7,0,0,1-.23-.28.15.15,0,0,1-.06.16c0-.24-.33-.63-.16-.69l0,0c.18-.06-.39-.6-.38-.91l-.1.22-.18-.41.09.09c-1.3-1.53-1.18-2.61-2.48-4,.32.1-.29-.26-.09-.4,0-.59-.45-.61-.91-1.2h-.06l-.57-1c.27.14.12,0,0-.08s-.31-.19-.07-.09a2.73,2.73,0,0,0-.81-.94,1.63,1.63,0,0,0-1.65-.25,1.66,1.66,0,0,0-.43.3,2.84,2.84,0,0,0-.8,1c-.27.64-.53,1.27-.78,1.92-.16.38-.31.76-.47,1.12l.11-.06a7.82,7.82,0,0,1-.59,1.44c-.25.32-.1.86-.14,1,0,.44-.39.72-.32.55a4.37,4.37,0,0,1-.3,1.48c-.3.12-.29,1.7-.55,1.63h0c-.42.71-.32,1.54-.7,2.31a.14.14,0,0,1,0-.05l.32,1.95,1-.19c.35-.4.72-.78,1.09-1.17.35-1.31.73-2.64,1.14-4,.46-1,1-2,1.46-3l.64-1.58.16-.4,0-.05h0v-.05s0-.16.09-.12l.12.13s.12.05.2.1l.25.18c.54,1.52,2,3.08,2.56,4.68l.17-.06a.78.78,0,0,1,.16.56l.8,1.44L86,23.27c.24.44.45.95.69,1.33a2.23,2.23,0,0,0,.73.68,1.72,1.72,0,0,0,.32.18,1.46,1.46,0,0,0,.46.08,1.52,1.52,0,0,0,.49-.09,1.44,1.44,0,0,0,.33-.19,2.88,2.88,0,0,0,.67-.68,8.47,8.47,0,0,0,.6-1.28l.6-1.34.7-1.5c.47-.95,1-1.88,1.48-2.74.29-.29.78-1.36,1-1.57l.14-.42c0-.07,0-.06,0-.09a.33.33,0,0,1,0-.17.84.84,0,0,1,.08-.19.08.08,0,0,1,.15,0v0l.06,0a.15.15,0,0,1,0,.08c0-.08.1,0,.11.12a.71.71,0,0,1,0,.14s.06.25.13.45l0,0c1,2.29,2,4.47,2.79,6.68l.7,2.05c.17.48.29,1.06.49,1.48a2.47,2.47,0,0,0,.65.83,1.41,1.41,0,0,0,1,.3,2.27,2.27,0,0,0,.91-.37,5.55,5.55,0,0,0,1.07-1.09l.56-.62.28-.32.16-.16c1.69-1.5,3.23-3.71,5.32-5.36a1.15,1.15,0,0,0,.33-.23c.07,0,0,0,0,0s0,0,0,0S109.08,19.18,109.13,19.19Z"/><path class="cls-1" d="M110,26.54v0C109.94,26.53,110,26.56,110,26.54Z"/><polygon class="cls-1" points="109.83 15.32 109.86 15.31 109.75 15.23 109.83 15.32"/><path class="cls-1" d="M112,22.45c0-.32,0-.33,0-.29A1,1,0,0,0,112,22.45Z"/><path class="cls-1" d="M110.23,29.07c0,.17,0,.1.08,0v-.28Z"/><path class="cls-1" d="M111.21,28.33l.06.05C111.25,28.28,111.23,28.29,111.21,28.33Z"/><path class="cls-1" d="M123.63,32.49s0-.06,0,0Z"/><path class="cls-1" d="M133.39,41v0l.07.08Z"/><path class="cls-1" d="M132.85,42.56h0Z"/><path class="cls-1" d="M135,29.31a.11.11,0,0,0-.06-.07Z"/><path class="cls-1" d="M124.14,23.63v0l0-.09Z"/><path class="cls-1" d="M124.2,23.77c0,.18,0,0-.06-.11a1.43,1.43,0,0,0,0,.57C124.15,24.22,124.15,23.86,124.2,23.77Z"/><path class="cls-1" d="M111.52,28.29l0-.05S111.52,28.27,111.52,28.29Z"/><path class="cls-1" d="M132.1,32.36h0Z"/><path class="cls-1" d="M113.37,26.81l0-.09A.19.19,0,0,0,113.37,26.81Z"/><path class="cls-1" d="M133.45,41.12l0,0Z"/><path class="cls-1" d="M135.19,41.94a.13.13,0,0,0,0,.06h0Z"/><path class="cls-1" d="M139.16,52h0v-.1A.18.18,0,0,0,139.16,52Z"/><path class="cls-1" d="M140.92,41s0,0,0,0a2.89,2.89,0,0,0-.69.11v.11Z"/><path class="cls-1" d="M142.12,43.7a.6.6,0,0,0,.28-.05.61.61,0,0,1,0,.13l0,.06-.12.24-.52,1a18,18,0,0,0-1,2v-.11c-.17.19.22.57-1.67,2.6h0c0,.09,0,.1-.15.24l.36-.34a4.35,4.35,0,0,1-.32.85.15.15,0,0,1-.15,0l-.45.79-.27.17c-.08.27.24.31-.3.85.33-.14-.1.37,0,.34l-.19.11a6.53,6.53,0,0,0-.65,1.31s1.32-1.22,1.76-1.51c-.39.49-.07.15.06.08l0-.06c.24-.29.36-.22.49-.36h0v0s0,0,0,0,0,0,0-.11v0a3.51,3.51,0,0,1,.3-.45l.1,0c0-.33,1.27-1.42,1.47-1.74s.41-.74.71-1.11c.41-.63.33-.24.61-.52s-.17,0-.08-.15l.42-.42c-.15.3,0,.18.07.15.26-.42.83-1,.69-1.24.42-.52.5-.48.64-.72-.08.06-.2.21-.24.19.21-.19,0-.13,0,0a1.67,1.67,0,0,1,.26-.43l.21-.28c.07-.1.14-.18.26-.36.43-.62.84-1.28.72-1.33h.05c-.16-.12-.46.07-.42-.25l.2-.24c0-.11,0-.21,0-.31s.16-.14.2-.15c0-.25.09-.52.12-.81a1,1,0,0,0-.55-.86,1.42,1.42,0,0,1,.09.79.7.7,0,0,0-.58-.59.83.83,0,0,0-.59,0l-.21-.17a1.15,1.15,0,0,0-.93.06c-.14.09-.19.2-.42.19a6.17,6.17,0,0,0-.65-.07l.66-.13-.8,0c-.18,0-.32,0-.53-.05h0s0,0,0,0l-.06,0c0,.1-.27.21-.59.27a6.22,6.22,0,0,1-1.59.26l-.14.22-.58,0,0-.15,2.25-.55V41c-.41.08-.87.25-1.15.3s-.51-.08-.29-.23l-.22.2a21.63,21.63,0,0,1-2.84.56l.14,0c-.27.12-.54.23-.64.14-.43.11-.87.2-1.27.27-.2,0-.39.06-.57.07h-.11l0,0,0-.06c0,.06,0,.12,0,.18s0-.27-.1,0l-.12.12s-.16.13-.14,0h0v0c0-.09-.18.25-.2,0,.14-.18-.34.21-.27,0a4.64,4.64,0,0,1,.36-.31c.21-.21-.09-.06,0-.31s.32-.06.5,0l-.07,0,0-.08a.93.93,0,0,1,0-.1c0-.06,0-.13,0-.38.11,0,.12,0,.17.13.23-.38,0-.27.09-.58-.14-.13-.38-.3-.36-.41l-.09.11a2.35,2.35,0,0,1,.26-1.09l.08,0,.07-.43h.12l.12-.6-.05.08a4.36,4.36,0,0,1,.23-.87l.06,0a6.92,6.92,0,0,0,.44-2.25l.11.15c.19-.27-.18-.13,0-.47l.16,0c-.14-.37.13-.4.26-.6l-.23,0,.13-.4c.16-.43.32-.21.42-.12l-.1-.35h.19c-.08-.14-.06-.2,0-.27a.94.94,0,0,0,.08-.45c.08-.05.09.15.17-.1,0-.45,0-.86-.06-1.24v.72l-.27-.09c-.11-.67.19-1,.19-1.45l0,.32.09-.8a2.75,2.75,0,0,0,.06-.52c0,.15-.09.38-.17.14s.08-.17.06-.36c-.21.08-.35-.19-.45-.56,0,0,0,0,.07,0a.63.63,0,0,1-.24-.25l.21-.07a2,2,0,0,0-.42-.11c-.2-.22-.61-.17-.5-.28h.14a2.58,2.58,0,0,0-.72-.12,2.91,2.91,0,0,0-.92.12v-.19a.67.67,0,0,1-.27.22c-.35.22-.93.37-.84.58a3.47,3.47,0,0,0-.92.45c-.36.2-.43.23-.46.06A16.18,16.18,0,0,1,127.93,31c-.47,0-1.32.59-1.92.93a18.64,18.64,0,0,0-2.09,1.67c-.06-.17-.09-.11-.22,0s-.16.12-.2.09,0-.11,0-.21l-.16.11c.28-.4,0-.26.28-.76a1.76,1.76,0,0,1,0-.36.16.16,0,0,1-.14.1c.1-.23.08-.71.26-.66V32c.17.05,0-.72.19-1l-.21.12.09-.44,0,.12c-.22-2,.47-2.8.18-4.7.21.26-.1-.38.15-.38.33-.48,0-.77-.09-1.51,0,0,0,0,0,0l0-1.1c.16.26.09.09,0-.09s-.15-.32,0-.1a2.78,2.78,0,0,0-.15-1.23,1.66,1.66,0,0,0-.6-.88,1.53,1.53,0,0,0-.62-.26,2.26,2.26,0,0,0-.52,0A2.91,2.91,0,0,0,121,21l-1.72,1.15-1,.67h.12a7.75,7.75,0,0,1-1.28.86c-.39.13-.57.66-.68.76-.26.36-.73.38-.57.28-.34.3-.52.78-1.08,1.07-.32-.08-1.19,1.25-1.37,1v0c-.74.35-1.12,1.1-1.87,1.52a.21.21,0,0,1,0-.06l-.83,1.79.89.38c.52-.14,1-.25,1.56-.37,1-.89,2.08-1.78,3.16-2.65.94-.56,1.89-1.1,2.87-1.64l1.41-1,.36-.24,0,0h0l0,0s.11-.12.14-.05l0,.18s.08.11.11.2l.11.3c-.42,1.59-.06,3.61-.49,5.3l.18,0a.82.82,0,0,1-.18.56l-.15,1.65-.16,1.43c0,.49-.16,1-.17,1.48a2.34,2.34,0,0,0,.21,1,3.1,3.1,0,0,0,.17.32,1.51,1.51,0,0,0,.34.32,1.7,1.7,0,0,0,.46.21,1.76,1.76,0,0,0,.38,0,3,3,0,0,0,.93-.2,9,9,0,0,0,1.22-.72l1.25-.78,1.42-.84c.92-.53,1.84-1,2.75-1.45.4-.08,1.42-.7,1.75-.72l.36-.26c.05,0,0-.06.05-.09a.57.57,0,0,1,.1-.13l.17-.11a.08.08,0,0,1,.14.06l0,0s0,0,0,.06a.15.15,0,0,1-.06,0c.09,0,.08.08,0,.16a.36.36,0,0,1-.08.12,1.74,1.74,0,0,0-.14.45V33c-.43,2.47-.86,4.81-1.42,7.09-.18.7-.36,1.39-.56,2.09-.14.51-.35,1-.43,1.51a2.57,2.57,0,0,0,.08,1.05,1.44,1.44,0,0,0,.66.8,2.07,2.07,0,0,0,1,.21,5.56,5.56,0,0,0,1.51-.31l.8-.2.41-.1.22,0c2.24-.3,4.76-1.29,7.41-1.48a1.37,1.37,0,0,0,.4,0c.09,0,0,0,.05,0s0,0,0,0S142.08,43.66,142.12,43.7Z"/><path class="cls-1" d="M138.76,50.3v0C138.71,50.25,138.72,50.29,138.76,50.3Z"/><polygon class="cls-1" points="144.85 40.88 144.89 40.89 144.84 40.76 144.85 40.88"/><path class="cls-1" d="M142.65,48c.18-.26.18-.29.13-.26A.7.7,0,0,0,142.65,48Z"/><path class="cls-1" d="M137.52,52.52c-.09.13,0,.1.07,0l.15-.24Z"/><path class="cls-1" d="M138.76,52.44l0,.07C138.82,52.42,138.8,52.42,138.76,52.44Z"/><path class="cls-1" d="M120.37,75.39s-.06,0,0,0Z"/><path class="cls-1" d="M146.54,81.84h0l.11-.07Z"/><path class="cls-1" d="M149.88,84.69v0S149.93,84.68,149.88,84.69Z"/><path class="cls-1" d="M137.33,77.64a.07.07,0,0,0-.08,0A.11.11,0,0,1,137.33,77.64Z"/><path class="cls-1" d="M112.57,77.56h0Z"/><path class="cls-1" d="M112.63,77.45c.1,0,0,.08,0,.1a.37.37,0,0,0,.32-.08C112.88,77.4,112.69,77.49,112.63,77.45Z"/><path class="cls-1" d="M100.54,85.6v-.06A.13.13,0,0,0,100.54,85.6Z"/><path class="cls-1" d="M136.39,81.32h-.07A.08.08,0,0,0,136.39,81.32Z"/><path class="cls-1" d="M102.24,84.06l-.06-.1A.29.29,0,0,0,102.24,84.06Z"/><path class="cls-1" d="M146.67,81.78l.06,0Z"/><path class="cls-1" d="M152.89,87.43a.35.35,0,0,0,0,.08h0Z"/><path class="cls-1" d="M156.06,92.08h0a2.16,2.16,0,0,0-.34-.57l-.13.07Z"/><path class="cls-1" d="M156.36,93.1c-.13-.45-.18-.64-.26-1t0,.06l0,0c-.14,0-.34-.12-.51-.39s-.6-.55-.83-1.28h-.3l-.23-.5.15-.13c.35.4,1,1.16,1.42,1.71l.08,0c-.23-.33-.59-.64-.74-.87s-.09-.52.17-.41l-.31-.08a16.74,16.74,0,0,1-1.72-2.24l0,.16c-.24-.16-.47-.33-.42-.5a9.11,9.11,0,0,1-1.43-1.86l-.24.1c-.13-.12-.11-.56-.39-.37l-.36-.16c-.18-.17-.38-.16-.51-.44,0,0,0,0,0,0-.36-.43-.13.17-.53-.34,0-.26-.36.09-.56-.15l0-.46c-.33-.5-.62-.26-1.28-.73-.25-.32-.24-.66.12-.72-.47,0-.25.07-.73-.08,0-.14.07-.14.22-.17-.26-.36-.27,0-.53-.24-.21.15-.51.41-.6.36l.06.13a1.56,1.56,0,0,1-.92-.55l.07-.1-.38-.15.05-.15-.53-.24.05.07a2.61,2.61,0,0,1-.74-.42l.06-.07c-.51-.6-1.21-.59-2-1l.18-.11c-.18-.28-.19.21-.47,0l.08-.2c-.4.13-.33-.21-.48-.4l0,.3-.34-.22c-.36-.27-.1-.44,0-.54l-.37.07.05-.25c-.32.18-.18-.13-.6-.15,0-.1.12-.11,0-.2l-.72.06.41,0-.19.31c-.46.09-.47-.26-.77-.28l.22,0c-.45-.11-.42-.25-.64-.41.05.09.13.22-.06.2s0-.14-.13-.22a.48.48,0,0,1-.72,0,.11.11,0,0,1,.06-.07c-.09,0-.15,0-.25,0l.16-.22-.33.15c-.14-.12-.44,0-.36-.18l.11,0-1.21-.49,0-.21c-.21.23-.65-.34-.71,0-.19-.25-1-.09-.73-.46-.84-.24-1.38,0-2.35-.4-.29-.45-1.34-.46-2-.6l-1.76,0-1.77.09c-.8-.52-2,0-2.88-.13l-.24.21c-.59-.28-1.44.14-2.28-.11a2,2,0,0,1-.33.17s.09,0,.12.16c-.23-.06-.68.12-.68-.13l0,0c0-.25-.68.22-1,0l.19.24-.44,0,.1-.07a7.67,7.67,0,0,1-2.24.6,5,5,0,0,0-2.12.69c.14-.34-.29.24-.41-.06-.55-.23-.76.38-1.06.6a.2.2,0,0,1,0,.07l-.61.19c.21-.51-.31.48-.11,0a10.21,10.21,0,0,0-1.3.36,12.37,12.37,0,0,0-1.32.65l-1.33.71-.68.34-.63.37.12,0c-.42.25-.87.69-1.27.75s-.54.66-.65.76c-.25.35-.73.3-.59.21-.31.31-.4.86-1,1.11-.38-.13-1.06,1.28-1.32,1l0,0c-.77.3-1,1.18-1.71,1.58a.35.35,0,0,1,0-.07c-.12.67-.23,1.33-.33,2l1.26.55,1.7-.22c.41-.44.78-.92,1.21-1.33l1.33-1.21c.42-.24.81-.52,1.25-.72l1.31-.6c.48-.31.93-.67,1.43-1l1.53-.8a23.89,23.89,0,0,1,3.14-1.41l.37-.45A6.65,6.65,0,0,0,117,80c.37-.11.75-.25,1.14-.34a5.54,5.54,0,0,1,1.15,0v-.25c.41-.08.4.08.51.11a25.45,25.45,0,0,1,11.25.24c.3.24,1.31.39,1.53.62a8.44,8.44,0,0,1,3.39.77h-.05l.52.13a0,0,0,0,1,0,.07c.66,0,1.44.61,2.08,1h-.05c.34,0,1.22.58,1.54.73.54.26,1.07.53,1.59.8a36,36,0,0,1,3.14,1.81c2,1.27,3.53,3,5.41,4.31a13.91,13.91,0,0,1,3.19,3.17,1,1,0,0,1,.2.38c.19.82.45.33.94-.06S156.14,92.34,156.36,93.1Z"/><polygon class="cls-1" points="157.38 94.81 157.4 94.84 157.47 94.66 157.38 94.81"/><g class="cls-2"><path class="cls-1" d="M45.47,84.66l-.3-.22a.52.52,0,0,1,.07.24C45.28,84.77,45.37,84.71,45.47,84.66Z"/><path class="cls-1" d="M44.89,84.23l0,0h-.07Z"/><path class="cls-1" d="M44.27,84a.59.59,0,0,0,.3.14A.39.39,0,0,0,44.27,84Z"/><path class="cls-1" d="M44.66,84.37c0-.08,0-.15.11-.17h0l-.2,0A.5.5,0,0,1,44.66,84.37Z"/><path class="cls-1" d="M44.66,84.37c0,.08,0,.17,0,.21A1.48,1.48,0,0,0,44.66,84.37Z"/><path class="cls-1" d="M43.67,85.76c-.08,0,.17-.39,0-.36a2.22,2.22,0,0,1-.83,0c-.15,0-.08-.52-.24-.47s-1.18.34-.8.47c.57.17,1,.21,1.49.4a9.15,9.15,0,0,1,1.45.19.75.75,0,0,1,.28.25,3.08,3.08,0,0,0-.3-.47C44.61,85.48,44,85.85,43.67,85.76Z"/><path class="cls-1" d="M47.42,86.56h-.25c0-.44-.3-.54-.61-.62l-.05.26c.14.09.25,0,.2-.18a1.22,1.22,0,0,0,.55.88C47.34,86.78,47.44,86.68,47.42,86.56Z"/><path class="cls-1" d="M47.43,87l-.17-.1,0,0,.19.08Z"/><path class="cls-1" d="M42.87,83.81c-.77-.32-1.5-.6-2.22-.86-.09.08-.15.17-.21.1a.59.59,0,0,0-.14-.21L40,82.73h-.12c-.08,0-.07.12,0,.2a1.07,1.07,0,0,1,.07.19s-.05-.12-.07-.19a.5.5,0,0,0-.15-.17.67.67,0,0,1-.31,0,.36.36,0,0,1,.31,0l.2,0,.06,0c-.24-.07-.49-.16-.74-.22H39c-.2,0-.39.07-.47-.18l-.13,0,0,0,0,0a3.73,3.73,0,0,0-.58-.12c-.13.08-.27.18-.4.25l-.12-.25a.47.47,0,0,1-.23.23c.1.14.18.31.26.41s.33-.46.44,0c-.11-.46-.33.25-.44,0s-.16-.27-.26-.41c-.19.07-.41,0-.6-.27.24-.19.44,0,.6.27a.47.47,0,0,0,.23-.23l.12.25c.13-.07.27-.17.4-.25L36.65,82a15.19,15.19,0,0,0-7.58,1.13,27.65,27.65,0,0,0-4,1.81,8,8,0,0,0-1.73,1.3l-.75.75-.68.82A43.1,43.1,0,0,1,19,91.21a8.52,8.52,0,0,0-1.37,4.36c.55,1.63,2.73,1,2.84,1,.94-.29,1.18-.58,1.35-1a3.29,3.29,0,0,1,1-1.47c-.41.39-.65.14-.56-.3a1.66,1.66,0,0,1,1.25-1.22,2.32,2.32,0,0,0,1.22-.58,2.5,2.5,0,0,0,.69-.94L26,90a2.82,2.82,0,0,1,.87-.85,9.4,9.4,0,0,0,1-.8c1.14-.5,2-1.17,3.07-1.71a8.3,8.3,0,0,1,3.41-1.18,8.52,8.52,0,0,0,1.81-.85c.44-.09.9.2,1.25.21A5.21,5.21,0,0,0,39,84.67c-.54,0-.93,0-1.5.1-.39,0,.32-.62.61-.7.12-.09.23.46.35.36s.49-.14.78-.21,0,.38.09.34c.36,0,.79-.55,1-.37s.28.24.41.36a.64.64,0,0,0,.27.11l.23,0a2.35,2.35,0,0,1,.08-.51c.08,0,.18.2.26.26-.08-.06-.18-.21-.26-.26a2.35,2.35,0,0,0-.08.51A6.79,6.79,0,0,1,43,84.53v0a1.15,1.15,0,0,1-.77-.64c.1.15,0,.26-.13.23l0-.27c.31,0,.64,0,.75.4l.23-.07c.06.09,0,.23,0,.35l.19.05A2.21,2.21,0,0,0,42.87,83.81Z"/><path class="cls-1" d="M39.66,82.75h.16a6.36,6.36,0,0,0-.62-.19C39.27,82.8,39.46,82.77,39.66,82.75Z"/></g><g class="cls-2"><path class="cls-1" d="M45.47,84.66l-.3-.22a.52.52,0,0,1,.07.24C45.28,84.77,45.37,84.71,45.47,84.66Z"/><path class="cls-1" d="M44.89,84.23l0,0h-.07Z"/><path class="cls-1" d="M44.27,84a.59.59,0,0,0,.3.14A.39.39,0,0,0,44.27,84Z"/><path class="cls-1" d="M44.66,84.37c0-.08,0-.15.11-.17h0l-.2,0A.5.5,0,0,1,44.66,84.37Z"/><path class="cls-1" d="M44.66,84.37c0,.08,0,.17,0,.21A1.48,1.48,0,0,0,44.66,84.37Z"/><path class="cls-1" d="M43.67,85.76c-.08,0,.17-.39,0-.36a2.22,2.22,0,0,1-.83,0c-.15,0-.08-.52-.24-.47s-1.18.34-.8.47c.57.17,1,.21,1.49.4a9.15,9.15,0,0,1,1.45.19.75.75,0,0,1,.28.25,3.08,3.08,0,0,0-.3-.47C44.61,85.48,44,85.85,43.67,85.76Z"/><path class="cls-1" d="M47.42,86.56h-.25c0-.44-.3-.54-.61-.62l-.05.26c.14.09.25,0,.2-.18a1.22,1.22,0,0,0,.55.88C47.34,86.78,47.44,86.68,47.42,86.56Z"/><path class="cls-1" d="M47.43,87l-.17-.1,0,0,.19.08Z"/><path class="cls-1" d="M42.87,83.81c-.77-.32-1.5-.6-2.22-.86-.09.08-.15.17-.21.1a.59.59,0,0,0-.14-.21L40,82.73h-.12c-.08,0-.07.12,0,.2a1.07,1.07,0,0,1,.07.19s-.05-.12-.07-.19a.5.5,0,0,0-.15-.17.67.67,0,0,1-.31,0,.36.36,0,0,1,.31,0l.2,0,.06,0c-.24-.07-.49-.16-.74-.22H39c-.2,0-.39.07-.47-.18l-.13,0,0,0,0,0a3.73,3.73,0,0,0-.58-.12c-.13.08-.27.18-.4.25l-.12-.25a.47.47,0,0,1-.23.23c.1.14.18.31.26.41s.33-.46.44,0c-.11-.46-.33.25-.44,0s-.16-.27-.26-.41c-.19.07-.41,0-.6-.27.24-.19.44,0,.6.27a.47.47,0,0,0,.23-.23l.12.25c.13-.07.27-.17.4-.25L36.65,82a15.19,15.19,0,0,0-7.58,1.13,27.65,27.65,0,0,0-4,1.81,8,8,0,0,0-1.73,1.3l-.75.75-.68.82A43.1,43.1,0,0,1,19,91.21a8.52,8.52,0,0,0-1.37,4.36c.55,1.63,2.73,1,2.84,1,.94-.29,1.18-.58,1.35-1a3.29,3.29,0,0,1,1-1.47c-.41.39-.65.14-.56-.3a1.66,1.66,0,0,1,1.25-1.22,2.32,2.32,0,0,0,1.22-.58,2.5,2.5,0,0,0,.69-.94L26,90a2.82,2.82,0,0,1,.87-.85,9.4,9.4,0,0,0,1-.8c1.14-.5,2-1.17,3.07-1.71a8.3,8.3,0,0,1,3.41-1.18,8.52,8.52,0,0,0,1.81-.85c.44-.09.9.2,1.25.21A5.21,5.21,0,0,0,39,84.67c-.54,0-.93,0-1.5.1-.39,0,.32-.62.61-.7.12-.09.23.46.35.36s.49-.14.78-.21,0,.38.09.34c.36,0,.79-.55,1-.37s.28.24.41.36a.64.64,0,0,0,.27.11l.23,0a2.35,2.35,0,0,1,.08-.51c.08,0,.18.2.26.26-.08-.06-.18-.21-.26-.26a2.35,2.35,0,0,0-.08.51A6.79,6.79,0,0,1,43,84.53v0a1.15,1.15,0,0,1-.77-.64c.1.15,0,.26-.13.23l0-.27c.31,0,.64,0,.75.4l.23-.07c.06.09,0,.23,0,.35l.19.05A2.21,2.21,0,0,0,42.87,83.81Z"/><path class="cls-1" d="M39.66,82.75h.16a6.36,6.36,0,0,0-.62-.19C39.27,82.8,39.46,82.77,39.66,82.75Z"/></g><circle cx="44.51" cy="108.49" r="4"/><g class="cls-2"><path d="M48.31,106.42l-.13-.24a.43.43,0,0,1,0,.16C48.18,106.4,48.24,106.4,48.31,106.42Z"/><path d="M48.05,106l0,0,0,0Z"/><path d="M47.71,105.63a.69.69,0,0,0,.16.18A.39.39,0,0,0,47.71,105.63Z"/><path d="M47.9,106s0-.08.08-.06h0l-.11-.09A.37.37,0,0,1,47.9,106Z"/><path d="M47.9,106l0,.12A.5.5,0,0,0,47.9,106Z"/><path d="M47.16,106.39s.15-.16.06-.18a4.14,4.14,0,0,1-.47-.23c-.08,0,0-.29-.11-.3s-.72,0-.5.11a3.52,3.52,0,0,1,.82.5,3,3,0,0,1,.74.55.63.63,0,0,1,.09.24c0-.11,0-.24,0-.36S47.35,106.54,47.16,106.39Z"/><path d="M48.69,108.34l-.09-.13a.53.53,0,0,0-.05-.62l-.1.11c0,.11.1.12.14,0a1.31,1.31,0,0,0-.07.72C48.58,108.41,48.66,108.41,48.69,108.34Z"/><path d="M48.54,108.56l0-.14h0l0,.13Z"/><path d="M46.84,105.15a4.74,4.74,0,0,0-1.55-.68s-.08.09-.13,0a.6.6,0,0,0-.12-.11l-.24,0h-.08s0,.06,0,.09a.36.36,0,0,1,.07.1l-.07-.1a.33.33,0,0,0-.13-.07.54.54,0,0,1-.22,0,.34.34,0,0,1,.22,0l.14,0h0a3.39,3.39,0,0,0-.55,0l-.12,0c-.13,0-.25.1-.35,0h-.1l0,0,0,0c-.14,0-.28,0-.42.08a2.23,2.23,0,0,1-.21.22l-.13-.07a.4.4,0,0,1-.1.18l.27.1c.12.07.1-.3.28-.12-.18-.18-.16.19-.28.12l-.27-.1a.56.56,0,0,1-.44.1.31.31,0,0,1,.44-.1.4.4,0,0,0,.1-.18l.13.07a2.23,2.23,0,0,0,.21-.22,4,4,0,0,0-.8.29,4.35,4.35,0,0,0-2.3,4.8,5.17,5.17,0,0,0,1.59,2.88,4.3,4.3,0,0,0,3.08,1.06,7.42,7.42,0,0,0,3.34-1,3.6,3.6,0,0,0,1.26-1.39,5,5,0,0,0,.55-1.78c-.11-.66-.49-.79-.8-.79a2,2,0,0,0-.63.15,1.43,1.43,0,0,0-.7.69,1.5,1.5,0,0,1-.73.83c.28-.18.35,0,.21.24a.94.94,0,0,1-1,.46,2.58,2.58,0,0,0-1.38.1,1.62,1.62,0,0,1-1.33-.07,6.88,6.88,0,0,1-.61-.36A4.21,4.21,0,0,1,42,109a2.24,2.24,0,0,1,.3-1.93c.19-.3.28-.7.51-1a1.69,1.69,0,0,1,.7-.27c.3-.11.56-.24.84-.35a3,3,0,0,0-.84.3c-.21.1,0-.35.21-.45s.22.17.28.11a3.41,3.41,0,0,0,.44-.21c.08-.06.06.18.1.16.21,0,.44-.34.58-.24s.2.13.29.18l.17.08h.14a1.27,1.27,0,0,1,0-.26c.06,0,.13.11.18.15s-.12-.11-.18-.15a1.27,1.27,0,0,0,0,.26,2.42,2.42,0,0,1,1.1.21v0a1.33,1.33,0,0,1-.48-.49c.07.09,0,.14-.08.1l0-.14a.47.47,0,0,1,.48.34h.15c0,.07,0,.12-.05.18l.11.07A1.39,1.39,0,0,0,46.84,105.15Z"/><path d="M44.58,104.41h.11a3.44,3.44,0,0,0-.46,0C44.32,104.48,44.45,104.45,44.58,104.41Z"/></g></g></svg>