<?xml version="1.0" encoding="utf-8"?>
<!-- Generator: Adobe Illustrator 22.1.0, SVG Export Plug-In . SVG Version: 6.00 Build 0)  -->
<svg version="1.1" id="Calque_1" xmlns="http://www.w3.org/2000/svg" xmlns:xlink="http://www.w3.org/1999/xlink" x="0px" y="0px"
	 viewBox="0 0 180 180" style="enable-background:new 0 0 180 180;" xml:space="preserve">
<style type="text/css">
	.st0{fill:#1D1D1D;}
	.st1{fill:#FFFFFF;}
	.st2{opacity:0.85;}
</style>
<title>LOGO-AG</title>
<g id="Calque_3">
	<path class="st0" d="M19.8,107.6C19.8,107.6,19.8,107.6,19.8,107.6z"/>
	<path class="st0" d="M18.1,67.8L18.1,67.8L18,67.7L18.1,67.8z"/>
	<path class="st0" d="M20.3,61.7L20.3,61.7C20.3,61.7,20.3,61.7,20.3,61.7z"/>
	<path class="st0" d="M16.4,82.6c0,0,0,0.1,0,0.1C16.3,82.7,16.3,82.7,16.4,82.6z"/>
	<path class="st0" d="M24.7,118.3L24.7,118.3z"/>
	<path class="st0" d="M24.6,118.2c0-0.1,0.1,0,0.1,0.1c0-0.2-0.1-0.3-0.2-0.4C24.4,117.9,24.6,118.1,24.6,118.2z"/>
	<path class="st0" d="M37.8,135.1L37.8,135.1L37.8,135.1z"/>
	<path class="st0" d="M20.1,82.2L20.1,82.2C20.1,82.3,20.2,82.2,20.1,82.2z"/>
	<path class="st0" d="M35.5,132.7l-0.1,0.1C35.4,132.7,35.4,132.7,35.5,132.7z"/>
	<path class="st0" d="M18,67.7L18,67.7C18,67.7,18,67.7,18,67.7z"/>
	<path class="st0" d="M22.7,56.3L22.7,56.3z"/>
	<path class="st0" d="M42.1,34L42.1,34v0.2C42.1,34.1,42.1,34,42.1,34z"/>
	<path class="st0" d="M27,49.3C27,49.3,27,49.3,27,49.3c-0.2,0.2-0.4,0.5-0.6,0.8l0.1,0.1L27,49.3z"/>
	<path class="st1" d="M34.9,44.3l-0.8,0.5c0.4-0.5,0.7-1,1.1-1.4s0.7-0.7,1-1.1c0.7-0.7,1.3-1.4,1.9-2.2v0.1
		c0.3-0.2,2.8-2.7,2.8-2.7c0.2-0.3-1.8-1.6-2.2-1.2s-0.8,0.9-1.3,1.3c-0.8,0.7-0.5,0.2-1,0.5s0.2,0,0,0.2s-0.5,0.3-0.7,0.4
		c0.3-0.3,0.1-0.2,0-0.2c-0.5,0.5-1.4,1.1-1.3,1.5c-0.7,0.6-0.8,0.5-1.1,0.8c0.1-0.1,0.3-0.2,0.4-0.2c-0.3,0.2-0.1,0.2,0,0.1
		c-0.3,0.5-2.3,1.9-2.1,2.2h0c0.1,0.3,0.4,0.2,0.3,0.6l-0.3,0.1L31.4,44c-0.2,0.2-0.2,0-0.2,0c-0.4,0.6-0.9,1.3-1.4,1.8l1-0.3
		c-0.5,0.4-1.4,1.2-1.3,1.5L29,47.2c-1.1,0.8-0.4,0.9-0.8,1.2l-0.6,0.4l0.4-0.6c-0.3,0.4-0.7,0.7-1.1,1l0,0c0,0,0,0,0.1,0v0.1
		c0.1,0.1,0,0.5-0.3,0.9c-0.3,0.7-0.7,1.3-1.2,1.9l0.1,0.3l-0.5,0.6L24.9,53c0.4-0.7,1-2,1.5-2.9L26.4,50c-0.3,0.5-0.6,1.1-0.8,1.5
		c-0.1,0.2-0.5,0.5-0.5,0.1V52c-0.9,1.8-1,1.8-2,3.5l0.2-0.1c-0.1,0.4-0.2,0.8-0.4,0.8c-0.5,1-1.1,2-1.7,2.9l0.1,0.3
		c-0.1,0.2-0.6,0.5-0.3,0.7l-0.1,0.6c-0.1,0.3-0.2,0.6-0.4,0.9l0,0l0,0.1l0,0c-0.4,0.7,0.2,0.1-0.2,0.9c-0.3,0.2,0.2,0.4,0,0.8
		l-0.5,0.3c-0.4,0.7-0.2,1-0.5,2.1c-0.3,0.5-0.6,0.7-0.8,0.3c0.1,0.3,0.2,0.7,0.1,1c-0.1,0.1-0.2,0-0.2-0.2c-0.3,0.6,0,0.4-0.1,0.8
		c0.2,0.2,0.5,0.4,0.5,0.6l0.1-0.2c0,0.5-0.1,1.1-0.3,1.6h-0.1l-0.1,0.6h-0.2l-0.1,0.9l0.1-0.1c0,0.4-0.1,0.8-0.3,1.2h-0.1
		c-0.5,1-0.2,2-0.4,3.2l-0.1-0.2c-0.2,0.4,0.3,0.2,0.1,0.7H17c0.2,0.5-0.1,0.6-0.3,0.9l0.3-0.1c0,0.2-0.1,0.4-0.1,0.6
		c-0.1,0.6-0.4,0.4-0.5,0.2l0.2,0.5l-0.3,0.1c0.3,0.3-0.1,0.3,0,0.9c-0.1,0-0.1-0.1-0.2,0.1l0.3,1l-0.1-0.6l0.4,0.1
		c0.2,0.6-0.1,0.8,0,1.2l-0.1-0.3c0,0.7-0.1,0.7-0.2,1.1c0.1-0.1,0.2-0.3,0.2,0s-0.1,0.1-0.2,0.3c0.2,0.1,0.4,0.6,0.2,1
		c0,0-0.1,0-0.1,0c0.1,0.1,0.1,0.2,0,0.4L16.1,83l0.2,0.4c-0.1,0.3,0.1,0.6-0.1,0.6v-0.1c0,0.6-0.1,1.3-0.1,1.9H16
		c0.3,0.2-0.1,1,0.3,1c-0.2,0.4,0.2,1.4-0.2,1.2c0,1.3,0.4,1.9,0.4,3.5c-0.3,0.6-0.1,2.1,0,3s0.4,1.7,0.6,2.5l0.7,2.5
		c-0.3,1.3,0.8,2.8,0.9,4.1l0.3,0.3c-0.1,0.9,0.7,2,0.7,3.2c0.1,0.1,0.2,0.3,0.3,0.4c0-0.1,0-0.2,0.1-0.2c0,0.3,0.4,1,0.1,1l0-0.1
		c-0.3,0,0.5,0.9,0.4,1.4l0.2-0.3l0.2,0.6l-0.1-0.2c0.6,1,1.1,2,1.4,3.1c0.2,0.5,0.3,0.9,0.5,1.4c0.3,0.5,0.6,1,0.9,1.5
		c-0.4-0.2,0.4,0.4,0.1,0.6c-0.1,0.8,0.6,1.1,1,1.5c0,0,0,0,0.1,0l0.4,0.8c-0.6-0.3,0.6,0.4,0.1,0.1c0.2,0.6,0.5,1.2,0.8,1.8
		c0.4,0.6,0.7,1.2,1.1,1.8c0.8,1.3,1.7,2.4,2.5,3.7v-0.2c0.5,0.6,0.9,1.1,1.3,1.8c0.2,0.5,0.9,0.8,1.1,0.9c0.5,0.4,0.6,1,0.4,0.8
		c0.5,0.5,1.1,0.7,1.6,1.4c0,0.2,0.4,0.6,0.9,1s0.9,0.7,0.7,0.8l0,0c0.6,1,1.6,1.5,2.4,2.5h-0.1l2.6,0.8l0.4-1.4l-0.8-2.2
		c-0.7-0.6-1.3-1.3-2-1.9s-1.3-1.3-2-2c-0.9-1.2-1.7-2.4-2.5-3.7c-2.2-2.8-4.2-5.9-5.9-9c-0.2-0.2-0.4-0.4-0.6-0.6
		c-0.5-2.1-2.2-4.3-2.6-6.6h-0.3c-0.1-0.2-0.2-0.5-0.1-0.8c-1.1-2.8-2-5.7-2.7-8.6c-0.3-1.5-0.6-2.9-0.8-4.3l-0.3-2.1
		c-0.1-0.7-0.1-1.4-0.1-2c0.1-0.5-0.1-2.1,0.1-2.5c-0.2-0.9-0.3-1.8-0.4-2.6c0-0.9,0-1.8,0.1-2.7V83v-0.8c0,0,0.1,0,0.1,0
		c-0.1-1.2,0.1-2.4,0.4-3.5v0.1c0.7-6.6,1.9-12.8,4.8-18.8c0.4-0.7,0.8-1.4,1.1-2.1s0.7-1.5,1.1-2.3c0.7-1.6,1.6-3.1,2.6-4.5
		c0.3-0.2,1.3-1.8,2.4-3.4l0.8-1.2l0.8-1C34.5,44.9,34.8,44.4,34.9,44.3z"/>
	<path class="st0" d="M41.9,36.5L41.9,36.5C41.9,36.6,41.9,36.6,41.9,36.5z"/>
	<polygon class="st0" points="29.7,45.8 29.8,45.8 29.5,45.8 	"/>
	<path class="st0" d="M35.9,38.2c-0.3,0.3-0.3,0.3-0.3,0.3C35.8,38.4,35.9,38.3,35.9,38.2z"/>
	<path class="st0" d="M42.8,33.6v-0.1C42.7,33.6,42.7,33.6,42.8,33.6z"/>
	<path class="st0" d="M32.9,129.4C32.9,129.5,33,129.6,32.9,129.4z"/>
	<path class="st0" d="M29.9,44.8L29.9,44.8c0-0.1,0-0.2,0.1-0.3L29.9,44.8z"/>
	<path class="st0" d="M41.1,39L41.1,39C41.1,39.1,41.1,39.1,41.1,39z"/>
	<path class="st0" d="M17.9,76c0,0.1,0,0.2,0,0.3C17.9,76.2,17.9,76.1,17.9,76z"/>
	<path class="st0" d="M57.6,135.3L57.6,135.3L57.6,135.3z"/>
	<path class="st0" d="M57.3,135.5c-0.3,0.1,0.1-0.1,0.2-0.1c-0.3,0-0.7,0.1-1,0.3C56.5,135.7,57.1,135.5,57.3,135.5z"/>
	<path class="st0" d="M88.6,100.7l0.1,0.2L88.6,100.7z"/>
	<path class="st0" d="M21.9,75.2v0.2C21.9,75.3,21.9,75.2,21.9,75.2z"/>
	<path class="st0" d="M87.2,108.8l0.1,0.1C87.2,108.9,87.2,108.8,87.2,108.8z"/>
	<path class="st0" d="M29.9,44.5v-0.1C29.9,44.4,30,44.5,29.9,44.5z"/>
	<path class="st0" d="M38.4,51.2C38.4,51.2,38.3,51.2,38.4,51.2L38.4,51.2L38.4,51.2z"/>
	<path class="st0" d="M74.4,98.1L74.4,98.1h-0.3C74.2,98.1,74.3,98.1,74.4,98.1z"/>
	<path class="st0" d="M40.3,68.4C40.3,68.4,40.3,68.4,40.3,68.4c0-0.3-0.3-1-0.6-2h-0.2C39.7,67,40,67.7,40.3,68.4z"/>
	<path class="st1" d="M47.9,86.9l-1.1-1.7l1.6,1.6l1.5,1.3c0.8,0.8,1.7,1.6,2.7,2.3c0.9,0.7,1.8,1.3,2.7,2s2,1.2,3.3,1.9l-0.3-0.1
		c0.6,0.3,1.2,0.6,1.9,0.8c0.6,0.3,1.4,0.7,2.6,1.3c0.6,0.3,1.3,0.6,2,0.9l2.7,1.2l0,0c0.3,0,0.6,0.1,0.9,0.2
		c-0.5-0.2-1-0.4-1.4-0.6c0.9,0.2,1.7,0.2,2.9,0.5c0.2,0.1,0.3,0.2,0.3,0.2l1.5,0.3c0.5,0.1,1,0.2,1.5,0.2l0.9,0.3
		c1-0.2,2-0.2,3,0.1c-0.9-0.3,1.2-0.1,0.9-0.3c0.1,0,0.4,0.1,0.6,0.2L81,100c0.7,0,1.4-0.1,2.1-0.2l-0.9-0.1c-0.7,0-1.4-0.1-2.1-0.3
		c-1.3-0.2-2.7-0.5-4-0.8c2,0.2,0.5,0,0.2-0.1h-0.1c-0.6-0.1-1.2-0.3-1.8-0.5c0,0,0,0,0,0.1h0.1c0.1,0,0,0.1,0,0.1s0,0.1-0.4,0h0.1
		c-0.5,0-1.3-0.2-1.7-0.3v-0.2c-0.9,0.1-5.6-1.8-6.6-2.3c-0.6-0.3-1.2-0.6-1.8-0.8c-0.7-0.3-1.3-0.6-1.9-0.9c-2.1-1-0.9-0.7-1.9-1.3
		c-1.2-0.8,0.2,0.3-0.3,0l-1.4-1.1c0.9,0.5,0.4,0.1,0.3,0c-0.6-0.4-1.4-0.9-2.1-1.4c-0.4-0.4-0.9-0.8-1.5-1c-1.5-1.3-1.5-1.4-2.1-2
		c0.2,0.3,0.6,0.6,0.5,0.7c-0.5-0.6-0.3-0.2-0.1,0c-0.9-0.8-1.8-1.6-2.6-2.5c-0.5-0.5-0.9-1.1-1.3-1.5s-0.6-0.7-0.7-0.7l0,0
		c-0.4,0-0.2,0.4-0.9-0.1l-0.3-0.5c-0.2-0.2-0.5-0.4-0.7-0.6c-0.3-0.5-0.1-0.3,0-0.3c-0.5-0.5-1-1.2-1.5-1.9l-0.8-1.1l-0.7-1.1
		c0.1,0.6,0.3,1.3,0.4,1.9c-0.7-1.3-1.7-3.7-2.1-3.8c-0.1-0.3-0.2-0.6-0.2-0.9c-0.9-2.8-1-1.7-1.4-2.8c-0.2-0.5-0.3-0.9-0.3-1.4
		c0.2,0.5,0.3,0.9,0.5,1.3c-0.3-1-0.6-2-0.8-3.1l0,0c0,0,0,0.1,0,0.1l-0.1-0.2c-0.4-0.5-0.7-1.1-0.8-1.8c-0.2-0.7-0.4-1.3-0.5-2
		c-0.1-0.4-0.2-0.8-0.3-1.2c0-0.2-0.1-0.5-0.1-0.7V62l-0.3-0.5L38,59.6h0.2c0.1,0.8,0.3,2,0.5,3.3s0.7,2.5,1,3.5h0.1
		c-0.3-1.2-0.8-2.6-1-3.4c-0.1-0.4,0-1.5,0.2-0.8l-0.3-0.7c-0.3-1.4-0.5-2.8-0.5-4.2v-1.8c0-0.9,0-1.7,0.1-2.6l-0.1,0.4
		c-0.1-0.7-0.1-1.3,0.1-2c0.2-2.4,0.6-4.7,1.4-6.9l-0.1-0.4c0.2-0.5,0.7-1.3,0.5-1.6l0.2-1.2c0.2-0.7,0.4-1.4,0.7-2l0,0l0.1-0.2l0,0
		c0.3-0.8,0.3-0.8,0.3-0.8s0,0,0-0.2c0-0.1,0.1-0.2,0.1-0.3v-0.1v-0.1l0,0l0,0c0-0.1,0.1-0.1,0.1-0.2c0-0.1,0.1-0.3,0.1-0.4
		c0-0.7-0.3-1.3-0.9-1.6c-0.6-0.4-1.4-0.4-2,0l-0.2,0.1l-0.1,0.1l0,0l0,0l-0.1,0.1c-0.6,0.3-0.3,0.7-1.1,1.4l-1,0.5
		c-1.3,1.3-1.3,1.7-3.1,3.8c-0.9,0.9-1.5,1.2-1.2,0.4c-0.2,0.7-0.6,1.3-1,1.9c-0.2,0.1-0.2,0,0-0.4c-1,1-0.4,0.8-1.1,1.6
		c0,0.4,0.1,0.9-0.1,1.2l0.3-0.3c-0.6,1-1.2,2.1-1.9,3l-0.1-0.1l-0.7,1.2h-0.2c-0.3,0.6-0.6,1.1-1,1.7l0.2-0.2
		c-0.2,0.4-0.9,1.8-1.4,2.5l-0.1-0.1c-1.4,2-1.9,4-2.9,6.7v-0.4c-0.5,0.8,0.1,0.3-0.4,1.4h-0.2c-0.1,1.1-0.5,1.2-0.8,1.9l0.4-0.2
		c-0.2,0.4-0.3,0.8-0.5,1.2c-0.5,1.4-0.6,0.8-0.7,0.5l-0.1,1l-0.3,0.1c0.1,0.8-0.2,0.7-0.4,2c-0.1,0.1-0.1-0.3-0.2,0.2l-0.1,2.1
		l0.1-1.3l0.3,0.2c-0.1,0.9-0.3,1.8-0.5,2.7v-0.7c-0.1,0.8-0.3,1.6-0.6,2.4c0.1-0.3,0.3-0.7,0.2,0c-0.1,0.4-0.2,0.2-0.3,0.6
		c0.2,0.1,0.1,1.2-0.1,2.2c0,0-0.1-0.1-0.1-0.1c0,0.3,0,0.6-0.1,0.8l-0.2-0.3l0.1,0.9c-0.1,0.6,0,1.4-0.2,1.3v-0.3
		c-0.2,1.4-0.3,2.9-0.4,4.3L17,83c0.3,0.4-0.1,2.4,0.2,2.2C17,86,17.4,88.4,17,88c0,1.2,0.2,2.5,0.4,3.7c0.1,1.2,0.4,2.4,0.5,4.1
		c-0.1,1,0,2,0.3,3c0.2,1.3,0.5,2.6,0.8,3.7s0.6,2,0.9,2.9s0.6,1.8,0.9,2.6l1,2.6c0.4,0.9,0.8,1.8,1.3,2.8c0.4,1.5,1.1,2.9,1.9,4.3
		c0.9,1.4,1.8,2.9,2.4,4.2l0.6,0.6c0.7,1.8,2.7,4,4.1,6.2l0.8,0.8c-0.1-0.1-0.2-0.3-0.1-0.4c0.4,0.6,1.5,1.7,1.2,1.8l-0.1-0.1
		c-0.1,0,0.3,0.5,0.8,1c0.5,0.4,0.9,0.9,1.3,1.4l-0.1-0.5l1,1.1l-0.3-0.2c0.6,0.5,1.1,1,1.7,1.4l1.7,1.5l0.3,0.2l0.2,0.1h0.1l0,0
		v0.1l0,0c0.2,0.1,0.5,0.1,0.7,0.1l1.1,0.1l1.7,0.1c1.1,0.1,2.3,0.1,3.5,0c0.6,0,1.3-0.1,1.9-0.1c0.7-0.1,1.3-0.3,2.1-0.4
		c-0.7,0.4,1.1-0.3,1.3,0c1.5,0.1,2.7-0.6,3.9-1c0,0,0,0,0.1-0.1l2.1-0.6c-1.1,0.7,1.4-0.8,0.3-0.1c5.5-1.3,11.9-5.2,16.8-9.4
		l-0.3,0.1l3.5-3.3c0.5-0.4,0.9-0.9,1.2-1.4c0.3-0.5,0.5-1,0.7-1.2c0.7-1.2,1.7-2,1.3-1.5c0.4-0.6,0.8-1.3,1.1-2
		c0.3-0.7,0.8-1.4,1.3-2.3c0.6-0.8,1.1-1.7,1.4-2.6c0.4-1.2,0.9-2.4,1.1-2.3l0,0c0.2-0.3,0.3-0.6,0.4-0.9s0.2-0.6,0.3-0.9
		c0.2-0.6,0.4-1.2,0.6-1.8l0.1-0.5c0.1-0.2,0.1-0.3,0.1-0.5c0.1-0.4,0.1-0.8,0.2-1.2c0-0.8-0.1-1.7-0.4-2.5c0,0,0.1,0.1,0.1,0.2
		c-0.6-1-1.5-1.8-2.6-2.2c-1-0.4-2-0.5-3-0.2c0.5,0.4,1,0.9,1.2,1.4c0.9,0.6,1.4,1.7,1.3,2.7c0,0.3,0,0.5,0,0.8
		c-0.1,0.4-0.2,0.8-0.4,1.3c-0.3,1-0.6,2-1,2.9s-0.8,1.9-1.2,2.8s-1,1.8-1.5,2.8c-1.8,2.7-4,5.2-6.3,7.5
		c-5.6,5.7-12.6,9.8-20.4,11.7l-1.6,0.6c-2.4,0.2-5,0.5-7.8,0.6c-0.7,0-1.4,0-2,0l-1.5-0.1c-0.1,0-0.1-0.1-0.1-0.1l-0.8-0.8
		c-0.5-0.5-0.9-0.9-1.3-1.4l-0.3,0.1c-0.4-0.4-0.8-0.9-1-1.4c-4.6-4.9-8.5-10.6-11.4-16.7c-2.8-5.8-4.6-12.1-5.3-18.5
		c0-1.2-0.4-4.7-0.3-5.6c-0.1-1-0.2-2-0.3-3s0-2,0-3c0.1-2,0.2-4,0.5-6v0.2c0.1-0.6,0.1-1.2,0.2-1.8c0-0.1,0.1-0.1,0.1,0
		c0.3-2.6,0.9-5.3,1.8-7.8v0.2c2-7.1,5.1-13.8,9.3-19.8c2.1-3,4.4-5.8,6.9-8.4l1-1l0.2-0.2l0.1-0.1l0,0c1.2,1.2-1.6-1.7-1.3-1.4l0,0
		c-3.5-1.5-1-0.4-1.8-0.7l0,0l-0.3,0.7c-0.4,0.9-0.7,1.8-1,2.8c-0.6,1.9-1.2,3.8-1.6,5.8c-0.9,3.9-1.2,7.9-0.8,11.9l0.1,1.6l0.3,1.6
		l0.5,3.2l0.8,3.1c0.1,0.5,0.2,1.1,0.4,1.6l0.5,1.5c1,3.3,2.4,6.4,4.3,9.3c0.3,0.5,0.6,1,1,1.5l1,1.4l1,1.3l0.5,0.6l0.5,0.5
		C46.6,85.7,47.6,86.7,47.9,86.9z"/>
	<path class="st0" d="M70,99L70,99C69.9,99.1,70,99.1,70,99z"/>
	<polygon class="st0" points="44.2,77.1 44.2,77.2 44.2,76.8 	"/>
	<path class="st0" d="M59.5,91.7c-0.8-0.5-0.9-0.5-0.8-0.4C59,91.5,59.3,91.6,59.5,91.7z"/>
	<path class="st0" d="M78.2,100.1c0.5,0,0.3,0,0-0.1h-0.9L78.2,100.1z"/>
	<path class="st0" d="M76.2,98.5l0.2-0.1C76.1,98.4,76.1,98.4,76.2,98.5z"/>
	<path class="st0" d="M80.4,113.3C80.4,113.3,80.4,113.3,80.4,113.3z"/>
	<path class="st0" d="M51.8,91.1L51.8,91.1h-0.2H51.8z"/>
	<path class="st0" d="M45.7,85.1L45.7,85.1C45.7,85.1,45.6,85.1,45.7,85.1z"/>
	<path class="st0" d="M69.7,99c0,0,0.1,0,0.2,0C69.8,99,69.7,99,69.7,99z"/>
	<path class="st0" d="M71.1,124.3L71.1,124.3L71.1,124.3L71.1,124.3z"/>
	<path class="st0" d="M71.2,124.1c0.2-0.1,0,0.1,0,0.1c0.2-0.1,0.3-0.2,0.5-0.3C71.6,123.9,71.3,124.1,71.2,124.1z"/>
	<path class="st0" d="M47.1,134L47.1,134L47.1,134z"/>
	<path class="st0" d="M69.8,95.1h0.1C69.8,95.1,69.8,95.1,69.8,95.1z"/>
	<path class="st0" d="M51.2,133.6v-0.1C51.2,133.5,51.2,133.6,51.2,133.6z"/>
	<path class="st0" d="M51.5,91.1L51.5,91.1z"/>
	<path class="st0" d="M40.9,78.8C41,78.8,41,78.8,40.9,78.8L40.9,78.8L40.9,78.8z"/>
	<path class="st0" d="M37.5,41.2L37.5,41.2v0.2C37.5,41.3,37.5,41.3,37.5,41.2z"/>
	<path class="st0" d="M36.8,68.9L36.8,68.9c0.1,0.4,0.2,0.8,0.4,1.2h0.2L36.8,68.9z"/>
	<path class="st1" d="M37.9,57.2l-0.3,1.1c-0.2-1.7-0.2-2.9-0.2-4.1s0.1-2.3,0.1-3.8l0.1,0.2c0-0.2-0.1-0.4-0.1-1.1
		c0.1-1.4,0.4-2.8,1-4.2l0,0c0-0.2,0-0.3,0.1-0.5l-0.3,0.8c0-0.5,0-1.1,0.1-1.6c0.1-0.1,0.1-0.2,0.2-0.2c0.1-0.5,0.2-1,0.3-1.5
		l0.3-0.4c0-0.5-0.4-0.4,0.2-1.6c-0.4,0.4,0-0.7-0.1-0.6l0.2-0.3c0.3-0.8,0.6-1.7,0.8-2.5l-0.9,1.4c-0.5,0.7-1,1.6-1.3,2
		c0.4-1,0.1-0.3-0.1-0.1v0.1c-0.3,0.6-0.4,0.6-0.6,0.9h0l0,0c0,0,0,0,0.1,0s0.1,0,0,0.2l0,0c-0.1,0.3-0.2,0.7-0.3,1H37
		c0.1,0.5-1.2,3.2-1.3,3.9c-0.2,0.8-0.3,1.6-0.4,2.4c-0.2,1.3-0.3,0.7-0.5,1.3c-0.2,0.8,0.2-0.2,0.2,0.2l-0.3,1
		c0-0.6-0.1-0.3-0.2-0.2c-0.1,0.9-0.4,2.3-0.1,2.6c-0.1,1.2-0.2,1.2-0.2,1.7c0-0.2,0.1-0.5,0.1-0.5c-0.1,0.5,0,0.2,0.1,0
		c0.2,0.7-0.4,3.9,0,4h-0.1c0.3,0.2,0.5-0.2,0.7,0.3L35,59.5l0.2,0.5c0,0.4-0.1,0.2-0.2,0.2c0.2,1,0.3,2,0.4,3L36,62
		c-0.1,0.9,0,2.4,0.3,2.6l-0.1,0.6c0,1.8,0.5,1.1,0.5,1.8c0,0.3,0,0.6,0,0.9c-0.1-0.3-0.2-0.5-0.2-0.8c0.1,0.9,0.2,1.2,0.3,1.9l0,0
		c0,0,0-0.1,0-0.1v0.1c0.3,0.3,0.5,0.6,0.6,1c0.3,0.8,0.6,1.4,1,2.8l0.4,0.2l0.3,1L38.8,74c-0.2-0.5-0.5-1.1-0.9-1.8
		s-0.6-1.5-0.9-2.1H37c0.3,0.7,0.6,1.6,0.8,2c0.1,0.2,0.2,0.9-0.2,0.5l0.4,0.4c1.2,2.3,1.1,2.4,2.3,4.8v-0.3
		c0.3,0.4,0.7,0.9,0.6,1.1l0.6,1.1l0.6,1c0.4,0.6,0.7,1.2,1,1.8h0.3c0.2,0.3,0.2,0.9,0.6,0.9l0.6,0.5c0.3,0.3,0.6,0.6,0.9,1l0,0V85
		l0,0c0.7,0.9,0.2-0.2,0.9,0.9c0.1,0.4,0.5,0.1,0.9,0.6c0.1,0.2,0.1,0.4,0.2,0.7c0.7,0.9,1,0.8,2.2,1.8c0.5,0.6,0.6,1.1,0,0.9
		c0.4,0.1,0.8,0.3,1.2,0.6c0,0.2-0.1,0.2-0.3,0.1c0.6,0.6,0.5,0.2,1,0.6c0.3-0.1,0.7-0.3,0.8-0.2l-0.1-0.2c0.6,0.3,1.2,0.7,1.7,1.2
		L54,92c0.2,0.1,0.5,0.3,0.7,0.4v0.2l1,0.6L55.6,93c0.5,0.3,1,0.5,1.4,0.9l-0.1,0.1c1.1,1,2.3,1.1,3.8,1.9l-0.3,0.1
		c0.4,0.4,0.3-0.2,0.8,0.2l-0.1,0.2c0.7,0,0.7,0.4,1,0.6l-0.1-0.3l0.7,0.3c0.8,0.4,0.4,0.5,0.2,0.6h0.6v0.3c0.5-0.1,0.4,0.2,1.1,0.3
		c0,0.1-0.2,0.1,0.1,0.2l1.3,0.1l-0.8-0.1l0.2-0.3c0.8,0,1,0.3,1.6,0.4h-0.4c0.5,0.1,1,0.2,1.4,0.5c-0.1-0.1-0.3-0.3,0-0.2
		s0.1,0.2,0.3,0.3c0.1-0.2,0.8-0.2,1.3,0.1c0,0,0,0.1-0.1,0.1c0.2,0,0.3,0,0.5,0.1L70,99.3l0.5-0.1c0.3,0.1,0.8,0,0.8,0.2h-0.2
		l2.5,0.4v0.2c0.3-0.3,1.3,0.3,1.3-0.1c0.5,0.3,1.9,0,1.6,0.4c0.7,0.1,1.4,0.1,2.2,0c0.7,0,1.4,0,2.4,0c0.2,0.1,0.5,0.2,0.8,0.2h0.5
		h0.5c0.3,0,0.6,0.1,0.9,0.2c0.5,0.2,0.9,0.6,1.1,1.1c0.1,0.3,0.2,0.7,0.1,1v0.1l-0.1,0.2l-0.2,0.8c-0.5,0.7-0.8,1.5-0.9,2.3
		c-0.2,0.8-0.6,1.6-1,2.4v0.5c-0.7,0.8-1.1,2.3-2.1,3.4c-0.1,0.3-0.2,0.5-0.2,0.6c0.1-0.1,0.2-0.1,0.3-0.1c-0.3,0.3-0.7,1.1-0.8,0.9
		v-0.1c-0.2-0.2-0.6,1.1-1,1.4c0.1,0,0.2,0,0.4,0c-0.2,0.2-0.3,0.4-0.5,0.6l0.1-0.2c-0.6,1.2-1.4,2.3-2.3,3.3
		c-0.4,0.4-0.8,0.8-1.3,1.3s-0.9,1-1.4,1.6c0.1-0.5-0.3,0.5-0.6,0.3c-0.8,0.3-1,1.1-1.5,1.6c0,0,0,0.1,0,0.1l-0.9,0.7
		c0.3-0.8-0.4,0.8-0.2,0.1c-2.6,1.6-5.7,4-9,5.3h0.2c-0.8,0.4-1.6,0.8-2.5,1c-0.7,0.1-1.3,0.8-1.5,0.9c-0.7,0.4-1.4,0.2-1.1,0.2
		c-0.8,0.5-1.6,0.8-2.5,1c-0.4-0.3-2.9,1-3,0.6l0,0c-1.4-0.1-2.7,0.6-4.2,0.4L47,134l-3,1.3l0.9,1.3l2.9,0.9l3.9-0.6l3.8-0.9l3-0.7
		c1-0.2,2-0.6,3-0.9c4.7-1.9,9-4.6,12.9-8c0.2-0.3,0.4-0.6,0.6-0.9c2.5-1.7,4.8-4.8,6.9-7.3l-0.2-0.2c0.2-0.3,0.5-0.6,0.8-0.8
		c2.3-3.5,4.2-7.3,5.5-11.3l0.5-1.5l0.1-0.4c0-0.1,0.1-0.3,0.1-0.5c0.1-0.4,0.1-0.7,0.1-1.1c0-1.5-0.5-2.9-1.4-4
		c-0.9-1.1-2.2-1.8-3.6-2c-0.3-0.1-0.7-0.1-1-0.1H82h-1.3c-1.1-0.1-2.1-0.2-3.2-0.3c-0.6,0-1.1,0.1-1.7,0.1s-1.1-0.1-1.7-0.2
		l-1.7-0.2c-0.6-0.1-1.1-0.2-1.7-0.3h0.1l-1-0.2c0,0,0-0.1,0-0.1c-0.7-0.1-1.4-0.2-2.1-0.5c-0.8-0.3-1.5-0.7-2.2-0.9h0.1
		c-2-0.7-3.9-1.6-5.8-2.5c-1.8-1-3.6-2.1-5.2-3.3c-1.7-1.2-3.2-2.6-4.7-4c-1.5-1.5-2.8-3.1-3.9-4.8c-0.5-0.8-1.1-1.7-1.6-2.6
		s-1.1-1.8-1.7-2.7l-1.5-3c-0.4-1-0.8-2.1-1.1-3.2c0-0.2-0.1-0.4-0.2-0.7c-0.1-0.4-0.2-0.8-0.3-1.2c-0.2-1-0.5-2.1-0.9-3.3l-0.6-3.4
		C38,58.2,38,57.4,37.9,57.2z"/>
	<path class="st0" d="M38.6,43.9L38.6,43.9C38.7,44,38.7,43.9,38.6,43.9z"/>
	<polygon class="st0" points="35.5,63.2 35.5,63.2 35.4,63.4 	"/>
	<path class="st0" d="M34.6,50.4c-0.1,0.6,0,0.6,0,0.5C34.6,50.7,34.6,50.6,34.6,50.4z"/>
	<path class="st0" d="M39.7,39.6c0.1-0.3,0-0.2-0.1,0L39.4,40L39.7,39.6z"/>
	<path class="st0" d="M38,40.3l0-0.1C37.9,40.3,37.9,40.3,38,40.3z"/>
	<path class="st0" d="M149.6,98L149.6,98z"/>
	<path class="st0" d="M146.1,110.1L146.1,110.1C146.1,110.1,146.1,110.2,146.1,110.1L146.1,110.1z"/>
	<path class="st0" d="M144.5,110.2L144.5,110.2C144.5,110.2,144.5,110.3,144.5,110.2z"/>
	<path class="st0" d="M157.3,106.8C157.3,106.7,157.3,106.7,157.3,106.8C157.3,106.7,157.3,106.7,157.3,106.8z"/>
	<path class="st0" d="M157.8,94.8L157.8,94.8z"/>
	<path class="st0" d="M157.7,94.9C157.6,94.9,157.7,94.9,157.7,94.9c-0.1-0.1-0.3,0-0.5,0.1C157.3,95,157.6,94.9,157.7,94.9z"/>
	<path class="st0" d="M148.4,85.5L148.4,85.5z"/>
	<path class="st0" d="M153.3,105.4L153.3,105.4z"/>
	<path class="st0" d="M150.4,86.5L150.4,86.5C150.5,86.5,150.5,86.5,150.4,86.5z"/>
	<path class="st0" d="M146,110.2L146,110.2z"/>
	<path class="st0" d="M146,112.1C146,112.1,146,112.1,146,112.1L146,112.1L146,112.1z"/>
	<path class="st0" d="M138.7,119.7L138.7,119.7L138.7,119.7L138.7,119.7z"/>
	<path class="st0" d="M149.3,116.8L149.3,116.8c-0.1-0.2-0.2-0.4-0.4-0.6h-0.1L149.3,116.8z"/>
	<path class="st1" d="M147.4,119c0,0.1,0.1,0.2,0.2,0.2h-0.1h-0.3l-1.1-0.1c-0.7-0.1-1.5-0.1-2.2-0.1h0.1c-0.2-0.1-0.4,0.4-3.1-0.5
		c-0.1,0-0.2,0-0.3,0l0.4,0.2c-0.3,0.1-0.6,0.1-0.9,0.1c-0.1,0-0.1-0.1-0.1-0.1l-0.9-0.1l-0.3-0.2c-0.3,0-0.2,0.3-0.9,0.1
		c0.3,0.2-0.4,0.1-0.3,0.2l-0.2-0.1c-0.5-0.1-1-0.1-1.4-0.1c0,0,1.7,0.7,2.1,1c-0.6-0.2-0.2,0,0,0.1l0,0c0.4,0.1,0.4,0.2,0.5,0.3
		l0,0l0,0c0,0,0,0,0.1,0s0.4,0.1,0.5,0.1v0.1c0.3-0.2,1.8,0.6,2.2,0.6s0.8,0.1,1.3,0.2c0.8,0.1,0.4,0.2,0.7,0.3s-0.1-0.1,0.1-0.1
		l0.6,0.2c-0.3,0-0.2,0.1-0.1,0.1c0.5,0.1,1.2,0.3,1.4,0.1c0.6,0.2,0.6,0.3,0.9,0.3c-0.1,0-0.3-0.1-0.3-0.2c0.3,0.1,0.1,0,0,0
		c0.2,0,0.3,0,0.5,0l0.3,0.1c0.1,0,0.3,0.1,0.4,0.1c0.7,0.1,1.5,0.2,1.5,0.1v0.1c0-0.2-0.3-0.4,0-0.5l0.3,0.1l0.3-0.1
		c0.3,0,0.2,0.1,0.2,0.1c0.2-0.1,0.5-0.1,0.8-0.2c0.3-0.2,0.5-0.5,0.5-0.8c-0.2,0.2-0.4,0.3-0.7,0.4c0.2-0.2,0.4-0.5,0.3-0.8
		c-0.1-0.2-0.1-0.5-0.3-0.5c0-0.1,0-0.2,0.1-0.3c0-0.3-0.2-0.6-0.5-0.8c-0.1-0.1-0.3-0.1-0.4-0.3s-0.1-0.4-0.2-0.6l0.4,0.5l-0.4-0.7
		c-0.1-0.2-0.1-0.3-0.2-0.5c0-0.1,0-0.1,0,0.1l0,0c-0.1,0-0.3-0.2-0.5-0.4c-0.4-0.4-0.7-0.8-0.9-1.3h-0.3l-0.3-0.5l0.1-0.1
		c0.3,0.4,1.1,1.2,1.5,1.8h0.1c-0.3-0.3-0.6-0.7-0.8-0.9s-0.2-0.5,0.1-0.3l-0.3-0.1c-0.6-0.7-1.2-1.5-1.7-2.3v0.1
		c-0.2-0.2-0.4-0.4-0.4-0.5c-0.3-0.3-0.6-0.7-0.8-1c-0.1-0.2-0.2-0.3-0.3-0.5s-0.1-0.1,0-0.1l0,0v-0.1l-0.2,0.1
		c0-0.1,0.2-0.1-0.1-0.1l-0.1-0.1c0,0-0.2-0.1-0.1-0.1s-0.3-0.1-0.1-0.2c0.2,0-0.3-0.2-0.2-0.2c0.1,0.1,0.3,0.1,0.4,0.2
		c0.3,0.1,0-0.1,0.3-0.1s0.2,0.3,0.2,0.4v-0.1l0.1-0.1l0.1-0.1l0.3-0.1c0.1,0.1,0,0.1,0,0.2c0.4,0,0.2-0.1,0.6-0.2
		c0.1-0.2,0.1-0.5,0.2-0.5h-0.1c0.3-0.2,0.7-0.2,1.1-0.2v0.1l0.4-0.1l0.1,0.1l0.6-0.1h-0.1c0.3-0.1,0.6-0.1,0.9-0.1v0.1
		c0.8-0.1,1.5-0.2,2.2-0.5l-0.1,0.2c0.3,0.1,0-0.2,0.4-0.2l0.1,0.2c0.3-0.3,0.4,0,0.6,0l-0.1-0.2h0.4c0.5,0,0.3,0.2,0.3,0.3l0.3-0.2
		l0.1,0.2c0.1-0.1,0.1-0.1,0.2-0.1c0,0,0.1,0,0.1,0l0.3-0.1c0.1,0.1-0.1,0.1,0.2,0.1c0.4-0.2,0.8-0.4,1.1-0.6l-0.7,0.3v-0.3
		c0.6-0.4,1-0.2,1.4-0.4l-0.3,0.2l0.8-0.3c0.2,0,0.3-0.1,0.5-0.2c-0.2,0-0.4,0.1-0.2-0.1s0.2,0,0.4-0.1c-0.2-0.2,0-0.4,0.3-0.6
		c0,0,0.1,0,0.1,0.1c0-0.1,0-0.2,0.1-0.3l0.1,0.2c0-0.1,0-0.3-0.1-0.4c0.1-0.3-0.1-0.6,0.1-0.6l0.1,0.1c0-0.2-0.1-0.5-0.2-0.7
		c-0.1-0.3-0.3-0.5-0.5-0.8l0.2-0.1c-0.1,0-0.2-0.1-0.3-0.2c-0.3-0.2-0.8-0.7-0.9-0.5c-0.2-0.2-0.5-0.5-0.8-0.6
		c-0.3-0.2-0.4-0.3-0.3-0.4c-0.7-0.4-1.4-0.8-2.1-1.3c-0.2-0.4-1.1-0.9-1.6-1.3c-0.8-0.4-1.6-0.8-2.4-1.2c0.1-0.1,0.1-0.1-0.1-0.2
		s-0.2-0.1-0.2-0.2s0.1,0,0.2,0l-0.2-0.1c0.5,0.1,0.2-0.1,0.8-0.1c0.1-0.1,0.2-0.1,0.3-0.2c-0.1,0-0.1,0-0.1-0.1
		c0.2,0,0.7-0.2,0.7,0l0,0c0,0.2,0.6-0.3,1-0.2l-0.2-0.1l0.4-0.1l-0.1,0.1c0.9-0.5,2-0.9,3-1.1c0.8-0.3,1.5-0.8,2.3-1.1
		c0.6-0.2,1.4-0.4,1.7-0.9c0.1-0.1,0.1-0.2,0.1-0.3c0-0.2,0-0.5-0.1-0.7c-0.2-0.6-0.5-1.1-0.9-1.4c-0.4-0.4-0.8-0.8-1.2-1.2
		l-0.8-0.8l-0.6-0.7c-0.2-0.2-0.3-0.3-0.4-0.5c-0.1-0.1-0.2-0.3-0.3-0.4c-0.1-0.1-0.3-0.1-0.4-0.2s-0.3-0.3-0.2-0.3
		c-0.5-0.1-1-0.3-1.4-0.5c-0.1-0.3-1.6-0.6-1.5-0.8c-0.6-0.5-1.5-0.6-2.1-1h-1.9v0.9l1,1.2c1.3,0.6,2.5,1.1,3.7,1.7
		c0.9,0.6,1.8,1.2,2.7,1.9c0.3,0.2,0.5,0.3,0.8,0.5c0.4,0.2,1,0.4,0.4,0.7c-0.4,0.2-0.3,0.6-0.7,0.8s-0.9,0.3-1.3,0.5
		c-0.9,0.4-1.8,0.7-2.7,0.9v0.2c-0.2,0.1-0.4,0.1-0.6,0.1c-0.5,0.2-1,0.4-1.6,0.5l-1.4,0.4c-0.5,0.2-1,0.3-1.4,0.4
		c-0.3,0.1-0.6,0.3-0.8,0.6c-0.1,0.1-0.2,0.2-0.2,0.3c-0.1,0.1-0.1,0.3-0.1,0.4c-0.1,0.3,0,0.6,0.1,0.8c0.1,0.3,0.3,0.5,0.6,0.8
		c0.4,0.3,0.8,0.6,1.2,0.8l1.2,0.8l1.4,0.9c0.9,0.6,1.7,1.2,2.5,1.8c0.2,0.3,1.2,1,1.4,1.3l0.4,0.2c0.1,0,0.1,0,0.1,0
		c0.1,0,0.1,0,0.2,0l0.2,0.1c0,0,0.1,0.1,0,0.1c0,0,0,0,0,0l0,0c0,0,0,0,0,0.1h-0.1c0.1,0.1,0,0.1-0.1,0.1h-0.1c0,0-0.3,0-0.5,0.1
		l0,0c-2.4,0.6-4.7,1.2-7,1.6c-0.7,0.1-1.4,0.2-2.1,0.3c-0.5,0.1-1.1,0.1-1.5,0.2c-0.3,0.1-0.6,0.3-0.9,0.5
		c-0.3,0.2-0.4,0.6-0.4,0.9c0,0.3,0.1,0.6,0.2,0.9c0.3,0.4,0.6,0.8,0.9,1.2l0.5,0.6l0.3,0.3l0.1,0.2c1.2,1.9,3.2,3.7,4.5,6
		c0.1,0.1,0.1,0.2,0.2,0.3c0,0.1,0,0,0,0.1S147.4,118.9,147.4,119z"/>
	<path class="st0" d="M140.1,118.7L140.1,118.7C140.1,118.6,140.1,118.6,140.1,118.7z"/>
	<polygon class="st0" points="151.1,120.3 151.1,120.3 151.2,120.2 	"/>
	<path class="st0" d="M143.8,121.2c0.3,0.1,0.3,0,0.3,0C144,121.2,143.9,121.2,143.8,121.2z"/>
	<path class="st0" d="M137.5,118.4C137.4,118.4,137.4,118.4,137.5,118.4l0.3,0.1L137.5,118.4z"/>
	<path class="st0" d="M138.1,119.5L138.1,119.5C138.2,119.6,138.2,119.5,138.1,119.5z"/>
	<path class="st0" d="M132.4,131"/>
	<path class="st0" d="M122.8,139.2L122.8,139.2L122.8,139.2L122.8,139.2z"/>
	<path class="st0" d="M121.4,138.4L121.4,138.4C121.4,138.4,121.4,138.5,121.4,138.4z"/>
	<path class="st0" d="M134,142.5C134,142.5,134.1,142.5,134,142.5C134.1,142.5,134,142.5,134,142.5z"/>
	<path class="st0" d="M141,132.8L141,132.8L141,132.8L141,132.8z"/>
	<path class="st0" d="M140.9,132.9c-0.2-0.1,0-0.1,0.1,0c-0.2-0.1-0.4-0.1-0.6-0.1C140.4,132.7,140.8,132.8,140.9,132.9z"/>
	<path class="st0" d="M138.1,119.8L138.1,119.8z"/>
	<path class="st0" d="M131.4,139.2L131.4,139.2C131.4,139.2,131.4,139.2,131.4,139.2z"/>
	<path class="st0" d="M139.4,121.9L139.4,121.9C139.4,121.8,139.4,121.8,139.4,121.9z"/>
	<path class="st0" d="M122.7,139.2L122.7,139.2z"/>
	<path class="st0" d="M121.7,140.8L121.7,140.8L121.7,140.8L121.7,140.8z"/>
	<path class="st0" d="M111.4,143.2L111.4,143.2L111.4,143.2C111.4,143.2,111.4,143.2,111.4,143.2z"/>
	<path class="st0" d="M121.9,146.6L121.9,146.6c0-0.2,0-0.5,0-0.7h-0.1L121.9,146.6z"/>
	<path class="st1" d="M119.1,147.4c0,0.1,0,0.2,0,0.3l-0.1-0.1h-0.1l-0.2-0.2l-0.9-0.7c-0.6-0.5-1.2-0.9-1.8-1.3h0.1
		c-0.2-0.2-0.6,0.1-2.3-2l0,0c-0.1-0.1-0.1,0-0.2-0.2l0.3,0.4c-0.3-0.1-0.5-0.3-0.8-0.4c0,0,0-0.1,0-0.2l-0.7-0.6l-0.1-0.3
		c-0.3-0.1-0.3,0.2-0.8-0.4c0.1,0.3-0.3-0.1-0.3,0c0-0.1,0-0.1-0.1-0.2c-0.4-0.3-0.8-0.6-1.2-0.9c0,0,1,1.5,1.2,2
		c-0.4-0.4-0.1-0.1-0.1,0h0.1c0.3,0.3,0.2,0.4,0.3,0.5l0,0l0,0l0,0c0,0,0,0,0.1,0l0,0c0.1,0.1,0.3,0.2,0.4,0.4l-0.1,0.1
		c0.3,0,1.2,1.5,1.5,1.7s0.7,0.5,1,0.9c0.6,0.5,0.2,0.4,0.4,0.7s0-0.2,0.2,0l0.3,0.5c-0.3-0.2-0.2,0-0.2,0c0.4,0.3,0.9,1,1.1,0.9
		c0.5,0.5,0.4,0.6,0.6,0.7c0-0.1-0.2-0.2-0.2-0.3c0.2,0.2,0.1,0.1,0,0c0.1,0.1,0.3,0.2,0.4,0.3l0.2,0.3c0.1,0.1,0.2,0.2,0.3,0.3
		c0.6,0.5,1.1,1,1.2,0.9l0,0c0.1-0.1,0-0.5,0.3-0.4l0.2,0.2l0.3,0.1c0.2,0.2,0.1,0.2,0.1,0.2c0.2,0.1,0.5,0.2,0.8,0.3
		c0.4,0,0.7-0.1,0.9-0.4c-0.3,0.1-0.5,0.1-0.8,0c0.3,0,0.6-0.2,0.7-0.5c0.1-0.2,0.1-0.5,0.1-0.6l0.2-0.2c0.1-0.3,0.2-0.6,0.1-0.9
		c-0.1-0.2-0.2-0.2-0.1-0.4s0.1-0.4,0.2-0.6v0.7l0.1-0.8c0-0.2,0.1-0.3,0.1-0.5l0,0c0,0,0,0,0,0.1v-0.1c-0.1-0.1-0.2-0.3-0.2-0.6
		c-0.1-0.5-0.1-1.1-0.1-1.6l-0.2-0.2v-0.6h0.2c0.1,0.6,0.2,1.6,0.3,2.3h0.2c0-0.4-0.2-0.9-0.2-1.2s0.1-0.5,0.3-0.3l-0.2-0.3
		c-0.1-1-0.2-1.9-0.2-2.9v0.1c-0.1-0.3-0.2-0.6-0.1-0.7c0-0.4-0.1-0.9-0.1-1.3c0-0.2,0-0.4,0-0.6c0,0,0-0.1,0-0.1l0,0h0.1h-0.2
		c0-0.1,0.3,0,0-0.1l-0.1-0.1c0,0-0.1-0.2,0-0.1l0,0l0,0c0.1,0-0.2-0.2,0-0.2c0.2,0.2-0.2-0.4,0-0.3s0.2,0.3,0.3,0.4s0.1-0.1,0.3,0
		s0,0.3-0.1,0.5v-0.1h0.1l0.4,0.1c0,0.1,0,0.1-0.2,0.1c0.3,0.3,0.3,0,0.6,0.2c0.1-0.1,0.3-0.3,0.4-0.3l-0.1-0.1
		c0.4,0.1,0.7,0.2,1,0.4l-0.1,0.1l0.4,0.1v0.1l0.6,0.2l-0.1-0.1c0.3,0.1,0.6,0.2,0.8,0.4v0.1c0.7,0.4,1.4,0.6,2.1,0.8l-0.2,0.1
		c0.2,0.2,0.2-0.2,0.5,0v0.2c0.4-0.1,0.4,0.2,0.6,0.3v-0.2l0.4,0.2c0.4,0.2,0.2,0.4,0.1,0.4h0.4v0c0.1-0.1,0.2-0.1,0.3,0
		c0,0,0.1,0.1,0.1,0.1c0.1,0,0.2,0.1,0.3,0.1c0,0.1-0.2,0.1,0.1,0.2c0.4,0,0.8,0.1,1.2,0.1l-0.7-0.1l0.1-0.3c0.7,0,0.9,0.4,1.4,0.4
		H132l0.8,0.2c0.2,0.1,0.3,0.1,0.5,0.1c-0.1,0-0.4-0.1-0.1-0.2s0.1,0.1,0.3,0.1c0-0.2,0.2-0.3,0.6-0.4c0,0,0,0.1,0,0.1
		c0.1-0.1,0.2-0.2,0.3-0.2v0.2c0.1-0.1,0.1-0.3,0.2-0.4c0.2-0.2,0.3-0.6,0.3-0.4s0,0.1,0,0.1c0.1-0.2,0.2-0.4,0.2-0.7
		c0.1-0.3,0.1-0.6,0-0.9h0.2c-0.1-0.1-0.1-0.2-0.2-0.3c-0.2-0.4-0.3-1-0.5-0.9c-0.1-0.3-0.2-0.7-0.3-1c-0.1-0.4-0.2-0.5,0-0.5
		c-0.4-0.7-0.7-1.5-1-2.2c0.1-0.5-0.4-1.4-0.6-2c-0.4-0.8-0.8-1.6-1.4-2.3c0.2,0,0.1-0.1,0-0.2s-0.1-0.2-0.1-0.2s0.1,0,0.2,0.1
		c0-0.1-0.1-0.1-0.1-0.2c0.4,0.3,0.3,0,0.7,0.4c0.1,0,0.2,0,0.4,0c-0.1,0-0.1-0.1-0.1-0.1c0.2,0.1,0.7,0.2,0.6,0.4h-0.1
		c-0.1,0.2,0.7,0.1,0.9,0.3l-0.1-0.2l0.4,0.1H134c2,0.1,2.7,0.9,4.6,0.9c-0.3,0.2,0.4,0,0.4,0.2c0.4,0.4,0.7,0.1,1.5,0.1l0,0
		l1.1,0.2c-0.3,0.1-0.1,0.1,0.1,0s0.3-0.1,0.1,0c0.4,0.2,0.9,0.2,1.3,0.1c0.4,0,0.7-0.2,0.9-0.5c0.1-0.2,0.3-0.3,0.3-0.6
		c0-0.2,0.1-0.3,0.1-0.5c0-0.4-0.1-0.9-0.2-1.3c-0.3-0.6-0.6-1.2-0.9-1.9c-0.2-0.4-0.4-0.7-0.5-1.1v0.1c-0.3-0.4-0.5-0.9-0.7-1.4
		c-0.1-0.4-0.6-0.7-0.6-0.8c-0.3-0.3-0.3-0.8-0.2-0.6c-0.3-0.4-0.7-0.6-0.9-1.2c0.1-0.3-1.1-1.3-0.8-1.5l0,0
		c-0.2-0.8-0.9-1.3-1.2-2.1c0,0,0,0,0.1,0l-1.6-1.1l-0.5,0.8l0.1,1.6c0.7,1.1,1.5,2.3,2.2,3.5c0.4,1,0.8,2,1.2,3l0.8,1.5l0.2,0.4
		v0.1l0,0l0,0c0,0,0.1,0.1,0,0.1h-0.2c0,0-0.1,0.1-0.2,0.1l-0.3,0.1c-1.5-0.6-3.6-0.7-5.1-1.3l-0.1,0.2c-0.2,0-0.4-0.1-0.5-0.3
		l-1.6-0.4l-1.4-0.4c-0.5-0.1-1-0.3-1.4-0.4c-0.3-0.1-0.7,0-1,0.1c-0.1,0-0.2,0.1-0.3,0.1c-0.1,0.1-0.3,0.2-0.4,0.3
		c-0.1,0.1-0.2,0.3-0.3,0.4c0,0.1-0.1,0.2-0.1,0.4c0,0.3,0,0.6,0.1,0.9c0.1,0.4,0.3,0.9,0.5,1.3l0.6,1.3l0.6,1.5
		c0.4,1,0.8,1.9,1,2.9c0,0.4,0.5,1.5,0.5,1.8l0.2,0.4c0,0.1,0.1,0,0.1,0.1c0,0,0.1,0.1,0.1,0.1c0,0.1,0.1,0.1,0.1,0.2
		c0,0,0,0.1,0,0.1c0,0,0,0-0.1,0l0,0c0,0,0,0-0.1,0v-0.1c0,0.1-0.1,0.1-0.2,0l-0.1-0.1c0.1,0-0.2-0.1-0.4-0.2h0.1
		c-2.3-0.8-4.6-1.6-6.7-2.5c-0.7-0.3-1.3-0.6-2-0.9c-0.5-0.2-1-0.5-1.4-0.6c-0.3-0.1-0.7-0.1-1-0.1c-0.3,0.1-0.7,0.3-0.9,0.5
		c-0.2,0.3-0.3,0.6-0.3,0.9c0,0.5,0,1,0.1,1.5l0.1,0.8v0.4v0.2c0,2.3,0.6,4.8,0.5,7.5c0,0.1,0,0.3,0,0.4c0,0.1,0,0,0,0.1s0,0,0,0
		S119.1,147.3,119.1,147.4z"/>
	<path class="st0" d="M113.1,143.1L113.1,143.1C113.1,143.1,113.1,143.1,113.1,143.1z"/>
	<polygon class="st0" points="121.5,150.5 121.5,150.5 121.6,150.5 	"/>
	<path class="st0" d="M114.8,147.3c0.2,0.2,0.3,0.2,0.2,0.2C115,147.3,114.9,147.3,114.8,147.3z"/>
	<path class="st0" d="M111.1,141.5C111,141.4,111,141.5,111.1,141.5l0.2,0.2L111.1,141.5z"/>
	<path class="st0" d="M111,142.8L111,142.8C111,142.8,111,142.8,111,142.8z"/>
	<path class="st0" d="M100,149.2L100,149.2z"/>
	<path class="st0" d="M87.4,150.8L87.4,150.8L87.4,150.8L87.4,150.8z"/>
	<path class="st0" d="M86.6,149.4L86.6,149.4C86.6,149.4,86.6,149.4,86.6,149.4z"/>
	<path class="st0" d="M95,159.8C95,159.8,95.1,159.8,95,159.8L95,159.8z"/>
	<path class="st0" d="M106.1,155.5L106.1,155.5L106.1,155.5L106.1,155.5z"/>
	<path class="st0" d="M106,155.4c-0.1-0.1,0.1,0,0.1,0c-0.1-0.2-0.2-0.3-0.4-0.4C105.7,155.1,106,155.3,106,155.4z"/>
	<path class="st0" d="M110.8,143L110.8,143L110.8,143z"/>
	<path class="st0" d="M94.6,155.6L94.6,155.6C94.6,155.6,94.6,155.6,94.6,155.6z"/>
	<path class="st0" d="M110.7,145.4L110.7,145.4L110.7,145.4z"/>
	<path class="st0" d="M87.3,150.8L87.3,150.8z"/>
	<path class="st0" d="M85.6,151.6L85.6,151.6z"/>
	<path class="st0" d="M75.6,148L75.6,148L75.6,148L75.6,148z"/>
	<path class="st0" d="M82.6,156.5L82.6,156.5c0.2-0.2,0.3-0.3,0.4-0.5l-0.1-0.1L82.6,156.5z"/>
	<path class="st1" d="M79.8,155.6c-0.1,0.1-0.1,0.2-0.1,0.3c0,0-0.1-0.1-0.1-0.1v-0.1l-0.1-0.3l-0.4-1c-0.2-0.6-0.4-1.3-0.8-2
		l0.1,0.1c0-0.2-0.6-0.2-0.8-3l0,0c-0.1-0.1-0.1-0.2-0.1-0.3v0.5c-0.2-0.2-0.3-0.5-0.4-0.8c0-0.1,0-0.1,0.1-0.1l-0.3-0.9l0.1-0.3
		c-0.2-0.2-0.4,0-0.4-0.8c-0.1,0.3-0.2-0.3-0.3-0.2c0,0,0-0.1,0-0.2c-0.1-0.5-0.3-0.9-0.5-1.4c0,0,0,1.8,0,2.3
		c-0.1-0.6-0.1-0.1-0.1,0h0.1c0,0.4-0.1,0.4,0,0.6l0,0l0,0l0,0c0,0,0,0,0.1,0.1l0,0c0.1,0.2,0.1,0.3,0.1,0.5h-0.1
		c0.3,0.2,0.2,1.9,0.3,2.3s0.3,0.8,0.4,1.3c0.2,0.7,0,0.4,0,0.8s0.1-0.1,0.2,0v0.6c-0.1-0.3-0.1-0.1-0.1,0c0.1,0.5,0.2,1.3,0.5,1.3
		c0.1,0.7,0,0.7,0.1,1c0-0.1,0-0.3,0-0.3c0,0.3,0.1,0.1,0.1,0c0.1,0.1,0.1,0.3,0.2,0.5l0.1,0.3c0,0.1,0,0.2,0.1,0.4
		c0.2,0.7,0.4,1.5,0.5,1.4v0.1c0.2-0.1,0.2-0.4,0.5-0.2c0,0.1,0,0.2,0,0.3c0.1,0.1,0.1,0.1,0.2,0.2c0.1,0.3,0,0.2,0,0.3
		c0.2,0.2,0.3,0.4,0.5,0.6c0.3,0.2,0.7,0.3,1,0.1c-0.3-0.1-0.5-0.2-0.7-0.4c0.2,0.2,0.6,0.2,0.8,0c0.2-0.1,0.4-0.3,0.4-0.4
		s0.2,0,0.3,0c0.3-0.2,0.5-0.4,0.6-0.7c0-0.2,0-0.3,0.1-0.4s0.3-0.3,0.5-0.4l-0.3,0.6l0.5-0.6l0.4-0.4l0,0l0,0v-0.1
		c0-0.1,0-0.3,0.2-0.6c0.2-0.5,0.5-1,0.8-1.4l-0.1-0.3l0.3-0.4L84,154l-1,2h0.1c0.2-0.4,0.4-0.8,0.5-1.1s0.4-0.3,0.4-0.1v-0.3
		c0.4-0.9,0.9-1.7,1.4-2.5l-0.1,0.1c0.1-0.3,0.2-0.6,0.3-0.6c0.2-0.4,0.4-0.8,0.6-1.1l0.3-0.5c0,0,0.1-0.1,0.1-0.1h0.1
		c0,0-0.1-0.1-0.1-0.1c0,0,0.2,0.2,0.1-0.1v-0.2c0,0,0-0.2,0.1-0.1l0,0l0,0c0.1,0-0.1-0.3,0.1-0.2s0.1-0.4,0.1-0.2v0.5
		c0,0.3,0.1,0,0.2,0.2s-0.2,0.3-0.3,0.4h0.1h0.1l0.1,0c0,0,0.1,0.1,0.3,0.3c0,0.1-0.1,0.1-0.2,0c0.1,0.4,0.2,0.2,0.4,0.5
		c0.2,0,0.5-0.1,0.5,0v-0.1c0.3,0.3,0.5,0.6,0.6,0.9h-0.1l0.3,0.3l-0.1,0.1l0.4,0.5v-0.1c0.2,0.2,0.3,0.5,0.5,0.7h-0.1
		c0.3,0.7,0.8,1.1,1.4,1.8h-0.2c0.1,0.3,0.2,0,0.4,0.3l-0.1,0.1c0.4,0.1,0.2,0.4,0.3,0.6l0.1-0.2l0.2,0.4c0.2,0.4,0,0.4-0.2,0.4
		l0.3,0.1l-0.1,0.2c0.2,0,0.2,0.1,0.2,0.2c0,0,0,0.1,0.1,0.1l0.2,0.2c0,0.1-0.2,0,0,0.2c0.3,0.3,0.7,0.6,0.9,0.8l-0.5-0.5l0.2-0.1
		c0.6,0.4,0.6,0.8,0.9,1.1l-0.3-0.2l0.5,0.6c0.1,0.1,0.2,0.3,0.3,0.4c-0.1-0.1-0.2-0.3,0-0.2s0.1,0.2,0.2,0.3c0.1-0.2,0.4-0.1,0.7,0
		c0,0,0,0,0,0.1c0.1,0,0.2,0,0.3,0l-0.1,0.2c0.1-0.1,0.2-0.1,0.3-0.2c0.3,0,0.5-0.3,0.5-0.2l-0.1,0.1c0.2-0.1,0.4-0.3,0.6-0.4
		c0.2-0.2,0.4-0.5,0.5-0.8l0.2,0.1c0-0.1,0-0.2,0-0.4c0.1-0.4,0.3-1,0.1-1c0.1-0.3,0.2-0.7,0.3-1c0.1-0.4,0.1-0.5,0.3-0.4
		c0.1-0.8,0.2-1.6,0.3-2.4c0.3-0.6,0.5-1.3,0.6-2c0.1-0.9,0.1-1.8,0.1-2.7c0.2,0.1,0.1,0,0.1-0.2s0-0.2,0.1-0.2s0.1,0.1,0.1,0.2
		c0-0.1,0-0.1,0-0.2c0.1,0.5,0.2,0.2,0.4,0.7c0.1,0.1,0.2,0.1,0.3,0.2c0-0.1,0-0.1,0-0.2c0.1,0.2,0.5,0.5,0.3,0.6l0,0
		c-0.2,0.1,0.5,0.5,0.6,0.8v-0.2l0.3,0.4l-0.1-0.1c1.6,1.2,1.8,2.3,3.3,3.3c-0.3,0,0.3,0.2,0.2,0.4c0.1,0.6,0.6,0.5,1.2,0.9
		c0,0,0,0,0.1,0l0.8,0.8c-0.3-0.1-0.1,0,0,0.1s0.3,0.1,0.1,0.1c0.3,0.3,0.6,0.6,1,0.7c0.5,0.3,1.1,0.2,1.6-0.2
		c0.1-0.1,0.2-0.2,0.3-0.4c0.3-0.4,0.4-0.8,0.5-1.2c0.1-0.7,0.2-1.4,0.3-2c0-0.4,0.1-0.8,0.2-1.2l-0.1,0.1c0-0.5,0.1-1,0.2-1.5
		c0.2-0.4-0.1-0.9-0.1-1c-0.1-0.4,0.2-0.8,0.2-0.6c-0.1-0.5-0.1-1-0.1-1.5c0.3-0.2-0.2-1.7,0.1-1.7l0,0c0.2-0.8-0.1-1.6,0.1-2.4v0.1
		l-0.8-1.8l-0.8,0.4l-0.7,1.4c0,1.4,0,2.7-0.1,4.1c-0.2,1.1-0.4,2.1-0.6,3.2l-0.2,1.7l-0.1,0.4v0.1l0,0v0.1c0,0,0,0.2,0,0.1
		l-0.2-0.1c0,0-0.1,0-0.2-0.1l-0.3-0.1c-0.9-1.3-2.6-2.5-3.6-3.9l-0.2,0.1c-0.2-0.1-0.3-0.3-0.3-0.5l-1.1-1.2
		c-0.3-0.4-0.6-0.7-0.9-1.1s-0.7-0.8-1-1.1c-0.2-0.2-0.5-0.4-0.8-0.5c-0.1,0-0.2-0.1-0.3-0.1c-0.2,0-0.3,0-0.5,0
		c-0.2,0-0.3,0.1-0.4,0.2c-0.1,0.1-0.2,0.2-0.3,0.3c-0.2,0.2-0.4,0.5-0.5,0.8c-0.1,0.5-0.2,0.9-0.3,1.4l-0.2,1.4
		c-0.1,0.6-0.2,1.1-0.3,1.6c-0.2,1.1-0.4,2.1-0.7,3c-0.2,0.4-0.4,1.5-0.6,1.8v0.4c0,0.1,0,0.1,0,0.1c0,0.1,0,0.1,0,0.2
		c0,0.1,0,0.1,0,0.2c0,0,0,0.1-0.1,0.1c0,0,0,0,0,0l0,0h-0.1v-0.1c0,0.1-0.1,0-0.1-0.1c0,0,0-0.1,0-0.1c0,0-0.1-0.2-0.2-0.4l0,0
		c-1.5-1.9-3-3.8-4.3-5.8l-1.2-1.8c-0.3-0.5-0.5-0.9-0.8-1.3c-0.2-0.3-0.5-0.5-0.8-0.6c-0.3-0.1-0.7-0.1-1,0
		c-0.3,0.1-0.6,0.3-0.8,0.6c-0.3,0.4-0.6,0.8-0.7,1.3l-0.4,0.7l-0.2,0.4l-0.1,0.2c-0.6,1-1.2,2.1-1.7,3.2c-0.6,1.2-1.2,2.3-2,3.4
		c-0.1,0.1-0.2,0.2-0.3,0.3c-0.1,0.1,0,0,0,0l0,0C80,155.5,79.9,155.6,79.8,155.6z"/>
	<path class="st0" d="M77.2,148.8L77.2,148.8C77.2,148.8,77.2,148.8,77.2,148.8z"/>
	<polygon class="st0" points="80.2,159.6 80.1,159.6 80.3,159.6 	"/>
	<path class="st0" d="M76.3,153.3c0.1,0.3,0.1,0.3,0.1,0.3C76.4,153.4,76.4,153.3,76.3,153.3z"/>
	<path class="st0" d="M76.3,146.4C76.3,146.3,76.3,146.3,76.3,146.4l0,0.3L76.3,146.4z"/>
	<path class="st0" d="M75.6,147.4L75.6,147.4C75.6,147.4,75.6,147.4,75.6,147.4z"/>
	<path class="st0" d="M62.8,146.7L62.8,146.7z"/>
	<path class="st0" d="M50.4,144.3L50.4,144.3L50.4,144.3L50.4,144.3z"/>
	<path class="st0" d="M50.5,142.7L50.5,142.7C50.5,142.7,50.5,142.7,50.5,142.7z"/>
	<path class="st0" d="M52.9,152.9C52.9,152.9,52.9,152.9,52.9,152.9L52.9,152.9z"/>
	<path class="st0" d="M64.6,155.4L64.6,155.4L64.6,155.4z"/>
	<path class="st0" d="M64.5,155.3C64.5,155.1,64.5,155.3,64.5,155.3c0.1-0.1,0.1-0.3,0-0.5C64.4,154.8,64.5,155.2,64.5,155.3z"/>
	<path class="st0" d="M75.3,147.5L75.3,147.5C75.3,147.5,75.3,147.5,75.3,147.5z"/>
	<path class="st0" d="M54.8,149.2L54.8,149.2z"/>
	<path class="st0" d="M73.9,149.4L73.9,149.4C73.9,149.5,74,149.4,73.9,149.4z"/>
	<path class="st0" d="M50.3,144.2L50.3,144.2C50.3,144.2,50.3,144.2,50.3,144.2z"/>
	<path class="st0" d="M48.5,143.9C48.5,143.9,48.5,143.9,48.5,143.9L48.5,143.9L48.5,143.9z"/>
	<path class="st0" d="M42.1,135.4L42.1,135.4L42.1,135.4C42.1,135.5,42.1,135.5,42.1,135.4z"/>
	<path class="st0" d="M43.3,146.4L43.3,146.4c0.2-0.1,0.4-0.2,0.6-0.3V146L43.3,146.4z"/>
	<path class="st1" d="M40.5,147.2c0.5,0,0.9-0.1,1.4-0.2c0.7-0.4,1.5-0.7,2.2-0.9c0.2,0,0.5-0.1,0.7-0.1c0.2-0.1,0.5-0.2,0.7-0.4
		c0.8-0.6,1.6-1.1,2.5-1.4h-0.1c0.2-0.2,0.5-0.4,0.6-0.3c0.4-0.2,0.8-0.4,1.1-0.6c0.2-0.1,0.3-0.2,0.5-0.2h0.1l0,0l0,0
		c0-0.1,0-0.1,0-0.2c0,0,0.1,0.3,0.1,0l0.1-0.1c0,0,0.1-0.2,0.1-0.1s0.1-0.3,0.2-0.1s0.2-0.1,0.3-0.1c-0.4,0.7,0.1,1.6,0.3,2.3
		c0.3,1.1,0.4,2.3,0.5,3.5c0.1,0.6,0.1,1.2,0.3,1.8c0.1,0.5,0,1,0.1,1.4L52,151l0.1,0.8c0,0.2,0,0.3,0.1,0.5c0-0.2,0-0.4,0.1-0.2
		s0,0.2,0,0.4c0.2-0.1,0.4,0.1,0.6,0.4c0,0,0,0-0.1,0c0.1,0,0.2,0.1,0.3,0.2l-0.2,0.1h0.4c0.2,0.1,0.6,0,0.5,0.1h-0.1
		c0.2,0,0.5,0,0.7-0.1c0.3-0.1,0.6-0.2,0.8-0.4v0.2c0-0.1,0.1-0.2,0.2-0.3c0.3-0.3,0.8-0.6,0.7-0.8c0.3-0.2,0.5-0.4,0.8-0.7
		c0.3-0.3,0.3-0.3,0.4-0.2c0.6-0.6,0.8-1.2,1.6-1.9c0.5-0.1,1.1-0.9,1.6-1.4c0.6-0.7,1.1-1.4,1.5-2.2c0.1,0.1,0.1,0.1,0.2-0.1
		s0.1-0.2,0.2-0.1s0,0.1,0,0.2c0-0.1,0.1-0.1,0.1-0.1c-0.2,0.5,0.1,0.2-0.1,0.8c0.1,0.1,0.1,0.2,0.1,0.3c0-0.1,0-0.1,0.1-0.1
		c0,0.2,0.1,0.7-0.1,0.7v-0.1c-0.2,0,0.2,0.7,0.1,1l0.2-0.2v0.4v-0.1c0.7,1.9,0.3,2.8,1,4.6c-0.3-0.2,0.2,0.3,0,0.4
		c-0.2,0.6,0.2,0.7,0.5,1.4c0,0,0,0,0.1,0l0.2,1.1c-0.2-0.2-0.1-0.1,0,0.1s0.2,0.3,0,0.1c0.1,0.4,0.2,0.8,0.5,1.1
		c0.2,0.3,0.5,0.5,0.8,0.7c0.2,0.1,0.4,0.1,0.7,0.1c0.2,0,0.3-0.1,0.5-0.1c0.4-0.2,0.8-0.4,1.1-0.7c0.4-0.5,0.9-1.1,1.3-1.6
		c0.3-0.3,0.5-0.6,0.8-0.9h-0.1c0.3-0.4,0.6-0.8,1-1.2c0.3-0.2,0.4-0.8,0.4-0.9c0.2-0.4,0.6-0.6,0.5-0.4c0.2-0.4,0.3-0.9,0.8-1.3
		c0.3,0,0.8-1.5,1-1.4c0.6-0.5,0.8-1.4,1.4-2c0,0,0,0,0,0.1l0.3-1.9l-0.9-0.1c-0.5,0.3-0.9,0.5-1.4,0.8c-0.7,1.1-1.5,2.3-2.3,3.4
		c-0.7,0.8-1.5,1.6-2.3,2.4l-1.1,1.3l-0.3,0.3v0.1v0.1c0,0-0.1,0.1-0.1,0.1l-0.1-0.2c0,0-0.1-0.1-0.2-0.2l-0.2-0.3
		c0-1.6-0.8-3.5-0.9-5.2h-0.2c-0.1-0.2-0.1-0.4,0-0.6c-0.1-0.5-0.2-1.1-0.3-1.6l-0.2-1.4c-0.1-0.5-0.1-1-0.2-1.5
		c-0.1-0.3-0.2-0.6-0.4-0.9c-0.1-0.1-0.2-0.2-0.2-0.3c-0.1-0.1-0.3-0.2-0.4-0.2c-0.2,0-0.3-0.1-0.5-0.1c-0.1,0-0.2,0-0.4,0.1
		c-0.3,0.1-0.6,0.2-0.8,0.4c-0.4,0.3-0.7,0.6-1,1l-1,1.1l-1.1,1.2c-0.8,0.8-1.5,1.5-2.2,2.1c-0.3,0.2-0.6,0.5-0.9,0.7
		c-0.2,0.1-0.6,0.7-0.9,0.7c-0.5,0.1-0.5-2.2-0.7-2.7c-0.6-1.7-1-3.5-1.2-5.4c0-0.7-0.3-1.6-1.1-1.7c-0.3-0.1-0.7,0-1,0.1
		c-0.5,0.2-0.9,0.4-1.3,0.7l-0.7,0.4l-0.4,0.2l-0.2,0.1c-2,0.9-4.2,2.5-6.7,3.5c-0.1,0-0.3,0.1-0.4,0.1c-0.1,0,0,0,0,0s-0.1,0-0.1,0
		c-0.1,0-0.2,0.1-0.3,0.1c0,0,0-0.1,0-0.1v-0.1v-0.3l0.3-1.1c0.2-0.7,0.3-1.4,0.4-2.1v0.1c0.1-0.2-0.4-0.5,0.9-2.9
		c0-0.1,0-0.2,0.1-0.3l-0.3,0.4c0-0.3,0-0.6,0.1-0.9c0-0.1,0.1-0.1,0.1-0.1l0.2-0.9l0.2-0.2c0-0.3-0.3-0.2,0.1-0.9
		c-0.3,0.2,0-0.4-0.1-0.3c0.1-0.1,0.1-0.1,0.2-0.2c0.1-0.4-0.7,0.3-0.8,0.4l-0.2,0.2l-0.6,0.4c-0.2,0.1-0.4,0.2-0.6,0.2
		c-0.1,0-0.1,0-0.2,0.1c-0.1,0.2,0,0.3,0.1,0.5c-0.2,1.5-0.9,2.9-1.2,4.4c-0.1,0.3-0.6,1.1-0.4,1.4c-0.3,0.6-0.3,0.6-0.4,0.9
		c0.1-0.1,0.1-0.3,0.2-0.3c-0.2,0.2,0,0.1,0,0c0,0.2-0.1,0.3-0.1,0.5l-0.1,0.3c0,0.1-0.1,0.2-0.2,0.4c-0.3,0.7-0.4,1.5-0.4,2.3
		c0,0,0,0.1,0,0.1c0,0.1,0.1,0.1,0.1,0.1c0.3,0.2,0.2,0.6,0.4,0.9c0.3,0.5,0.5,0.2,0.9,0.1C40,147.2,40.2,147.2,40.5,147.2z"/>
	<path class="st0" d="M42.9,137L42.9,137C43,137,43,137,42.9,137z"/>
	<polygon class="st0" points="39.5,147.6 39.5,147.6 39.6,147.7 	"/>
	<path class="st0" d="M39.8,140.2c-0.1,0.3-0.1,0.3,0,0.3C39.8,140.4,39.8,140.3,39.8,140.2z"/>
	<path class="st0" d="M43.5,134.5C43.6,134.3,43.5,134.4,43.5,134.5l-0.2,0.3L43.5,134.5z"/>
	<path class="st0" d="M42.4,134.9L42.4,134.9C42.3,135,42.4,135,42.4,134.9z"/>
	<path class="st0" d="M50.7,30.2"/>
	<path class="st0" d="M62.3,24.4L62.3,24.4L62.3,24.4L62.3,24.4z"/>
	<path class="st0" d="M63.5,25.5L63.5,25.5C63.5,25.5,63.5,25.4,63.5,25.5z"/>
	<path class="st0" d="M52,18.5C52,18.5,52,18.5,52,18.5L52,18.5z"/>
	<path class="st0" d="M42.7,26.4L42.7,26.4L42.7,26.4L42.7,26.4z"/>
	<path class="st0" d="M42.9,26.4c0.2,0.1,0,0-0.1,0c0.2,0.1,0.3,0.2,0.5,0.3C43.3,26.6,42.9,26.5,42.9,26.4z"/>
	<path class="st0" d="M42.3,39.9L42.3,39.9z"/>
	<path class="st0" d="M53.8,22.3L53.8,22.3C53.8,22.3,53.8,22.3,53.8,22.3z"/>
	<path class="st0" d="M41.6,37.6L41.6,37.6z"/>
	<path class="st0" d="M62.4,24.4L62.4,24.4z"/>
	<path class="st0" d="M63.8,23.1L63.8,23.1L63.8,23.1L63.8,23.1z"/>
	<path class="st0" d="M74.6,23.2L74.6,23.2L74.6,23.2L74.6,23.2z"/>
	<path class="st0" d="M65.1,17.4L65.1,17.4c-0.1,0.2-0.1,0.5-0.2,0.7H65L65.1,17.4z"/>
	<path class="st1" d="M68.1,17.3c0-0.1,0.1-0.2,0.1-0.3l0.1,0.1h0.1l0.2,0.2l0.7,0.9c0.5,0.6,0.9,1.1,1.4,1.7h-0.1
		c0.1,0.2,0.6,0,1.8,2.5l0,0c0.1,0.1,0.1,0,0.2,0.2l-0.2-0.5c0.2,0.2,0.5,0.4,0.7,0.6c0,0.1,0,0.1,0,0.2l0.6,0.7v0.3
		c0.2,0.2,0.4-0.1,0.7,0.6c0-0.4,0.3,0.2,0.3,0.1c0,0,0,0.1,0,0.2c0.3,0.4,0.6,0.8,1,1.1c0,0-0.6-1.7-0.7-2.2c0.3,0.5,0.1,0.1,0.1,0
		h-0.1c-0.2-0.3-0.1-0.4-0.2-0.6l0,0l0,0l0,0c0,0,0,0-0.1-0.1l0,0c-0.1-0.1-0.2-0.3-0.3-0.5l0.1-0.1c-0.3-0.1-0.8-1.7-1.1-2
		s-0.5-0.7-0.8-1.1c-0.4-0.6-0.1-0.4-0.3-0.8s0,0.2-0.2,0l-0.2-0.5c0.2,0.3,0.2,0.1,0.2,0c-0.3-0.4-0.6-1.1-0.9-1.1
		c-0.3-0.6-0.3-0.6-0.4-0.9c0,0.1,0.1,0.3,0.1,0.3c-0.1-0.3-0.1-0.1,0,0c-0.1-0.1-0.2-0.2-0.3-0.4l-0.2-0.3
		c-0.1-0.1-0.1-0.3-0.2-0.4c-0.4-0.6-0.9-1.3-1-1.2v-0.1c-0.2,0.1-0.1,0.5-0.4,0.3l-0.2-0.3l-0.3-0.1c-0.2-0.2-0.1-0.2-0.1-0.2
		c-0.2-0.1-0.4-0.3-0.7-0.4c-0.3-0.1-0.7,0-1,0.2c0.3,0,0.5,0.1,0.8,0.2c-0.3-0.1-0.6,0.1-0.8,0.3c-0.1,0.2-0.3,0.4-0.2,0.6L66,14.8
		c-0.2,0.2-0.3,0.6-0.3,0.9c0,0.2,0.1,0.3,0,0.5c-0.1,0.2-0.2,0.4-0.3,0.6l0.1-0.6l-0.3,0.7c-0.1,0.2-0.2,0.3-0.2,0.5l0,0l0,0v0.1
		c0.1,0.1,0.1,0.3,0,0.7c0,0.5-0.2,1.1-0.3,1.6l0.2,0.2l-0.2,0.5h-0.2l0.3-2.3h-0.1c-0.1,0.4-0.1,0.9-0.2,1.2c0,0.1-0.3,0.5-0.3,0.2
		l0.1,0.3c-0.1,1-0.3,1.9-0.5,2.8l0.2-0.1c0,0.3,0,0.6-0.1,0.6c-0.1,0.4-0.2,0.9-0.2,1.3c0,0.2-0.1,0.4-0.1,0.6s0,0.1,0,0.1l0,0
		h-0.1c0.1,0,0.1,0,0.2,0.1c0,0.1-0.3-0.1,0,0.1l0.1,0.1c0,0,0.1,0.2,0,0.1l0,0l0,0c-0.1,0,0.2,0.3,0,0.2s0.1,0.4,0,0.3
		c-0.1-0.1-0.1-0.3-0.2-0.4c-0.1-0.3-0.1,0.1-0.3-0.1s0.1-0.3,0.2-0.5l0,0H63l-0.3-0.2c0-0.1,0-0.1,0.2-0.1
		c-0.3-0.4-0.3-0.1-0.5-0.3c-0.2,0.1-0.4,0.2-0.5,0.2l0.1,0.1c-0.4-0.1-0.7-0.4-0.9-0.7l0,0l-0.4-0.2l0-0.1l-0.5-0.3v0.1
		c-0.3-0.1-0.5-0.3-0.7-0.5v0c-0.5-0.6-1.2-0.8-1.9-1.3h0.2c-0.2-0.3-0.2,0.1-0.5-0.1l0.1-0.1c-0.4,0-0.3-0.3-0.5-0.5L57,21
		l-0.3-0.3c-0.3-0.3-0.1-0.4,0-0.4h-0.4l0.1-0.2c-0.2,0-0.2,0-0.3-0.1L56,19.9l-0.3-0.1c0-0.1,0.2,0,0-0.2c-0.4-0.2-0.8-0.3-1.2-0.4
		l0.7,0.3L55,19.6c-0.7-0.1-0.8-0.5-1.3-0.7l0.3,0.1l-0.7-0.4c-0.1-0.1-0.3-0.2-0.5-0.3c0.1,0.1,0.3,0.2,0.1,0.2s-0.1-0.1-0.3-0.2
		c0,0.2-0.3,0.3-0.7,0.2c0,0,0,0,0-0.1c-0.1,0.1-0.2,0.1-0.3,0.1v-0.2c-0.1,0.1-0.2,0.2-0.3,0.3c-0.3,0.1-0.4,0.5-0.5,0.4L51,19
		c-0.2,0.2-0.3,0.4-0.4,0.6c-0.1,0.3-0.2,0.6-0.2,0.9l-0.2-0.1c0.1,0.1,0.1,0.2,0.1,0.3c0.1,0.4,0,1,0.2,1c0,0.3,0,0.7,0.1,1
		c0.1,0.4,0,0.5-0.1,0.5c0.2,0.8,0.4,1.6,0.5,2.4c-0.1,0.7,0,1.5,0.2,2.1c0.2,0.9,0.4,1.7,0.8,2.6c-0.2,0-0.1,0,0,0.2s0,0.2,0,0.2
		s-0.1,0-0.2-0.1c0,0.1,0,0.1,0,0.2c-0.3-0.4-0.2-0.1-0.6-0.5c-0.1,0-0.2-0.1-0.3-0.1c0,0.1,0,0.1,0,0.2c-0.2-0.2-0.6-0.3-0.5-0.5
		h0.1c0.1-0.1-0.7-0.3-0.8-0.5v0.2l-0.4-0.2h0.1c-1.9-0.5-2.4-1.5-4.3-1.9c0.3-0.1-0.4-0.1-0.3-0.3c-0.3-0.5-0.7-0.3-1.4-0.5l0,0
		l-1-0.5c0.3,0,0.1-0.1-0.1-0.1s-0.3,0-0.1,0c-0.4-0.2-0.8-0.3-1.2-0.3c-0.3,0-0.7,0-1,0.2c-0.2,0.1-0.4,0.3-0.5,0.5
		c-0.1,0.1-0.2,0.3-0.2,0.5c-0.1,0.4-0.1,0.9-0.1,1.3l0.4,2c0.1,0.4,0.2,0.8,0.2,1.2l0.1-0.1c0.1,0.5,0.2,1,0.3,1.5
		c0,0.4,0.4,0.8,0.5,0.9c0.2,0.4,0.1,0.8,0,0.6c0.3,0.5,0.5,1,0.6,1.6c-0.2,0.3,0.7,1.6,0.5,1.7l0,0c0,0.8,0.6,1.4,0.7,2.3h-0.1
		l1.3,1.4l0.7-0.7l0.2-1.6c-0.5-1.3-0.9-2.6-1.3-3.9c-0.2-1.1-0.3-2.2-0.5-3.3c-0.1-0.6-0.3-1.1-0.4-1.7l-0.1-0.4v-0.1l0,0l0,0l0,0
		c0,0-0.1-0.1,0-0.1h0.2c0,0,0.1,0,0.2,0h0.3c1.3,1,3.3,1.4,4.7,2.4l0.1-0.1c0.4,0.2,0.3,0.3,0.4,0.4l1.5,0.8l1.3,0.7
		c0.4,0.2,0.9,0.5,1.3,0.7c0.3,0.1,0.7,0.2,1,0.2c0.1,0,0.2,0,0.4,0c0.2,0,0.3-0.1,0.4-0.2c0.1-0.1,0.3-0.2,0.4-0.3
		c0.1-0.1,0.1-0.2,0.2-0.3c0.1-0.3,0.2-0.6,0.2-0.9c0-0.5-0.1-0.9-0.2-1.4L54.5,30c-0.1-0.6-0.2-1.1-0.3-1.6
		c-0.1-1.1-0.3-2.1-0.3-3.1c0.1-0.4-0.1-1.6,0-1.9l-0.1-0.4c0-0.1,0,0-0.1-0.1c0,0-0.1-0.1-0.1-0.1c0-0.1,0-0.1,0-0.2
		c0,0,0-0.1,0.1-0.1c0,0,0,0,0,0l0,0c0,0,0,0,0.1,0v0.1c0-0.1,0.1,0,0.2,0c0,0,0.1,0.1,0.1,0.1c-0.1,0,0.2,0.2,0.4,0.3l0,0l3.1,2
		c1,0.7,2,1.4,3,2l1.6,1.2c0.4,0.4,0.8,0.7,1.2,1c0.3,0.2,0.6,0.3,1,0.3c0.4,0,0.7-0.1,1-0.3c0.2-0.2,0.4-0.5,0.6-0.8
		c0.2-0.5,0.3-1,0.3-1.5l0.1-0.8l0.1-0.4v-0.2c0.6-2.2,0.6-4.9,1.4-7.4c0.1-0.1,0.1-0.2,0.1-0.4c0-0.1,0,0,0,0l0,0
		C68,17.3,68,17.3,68.1,17.3z"/>
	<path class="st0" d="M72.9,22.9L72.9,22.9C72.8,22.9,72.9,22.9,72.9,22.9z"/>
	<polygon class="st0" points="66.5,13.7 66.5,13.7 66.4,13.7 	"/>
	<path class="st0" d="M74.9,23.7L74.9,23.7C74.9,23.7,74.9,23.7,74.9,23.7z"/>
	<path class="st0" d="M87.5,20.2L87.5,20.2z"/>
	<path class="st0" d="M100.4,21.8L100.4,21.8h0.1H100.4z"/>
	<path class="st0" d="M100.8,23.4L100.8,23.4C100.8,23.4,100.8,23.4,100.8,23.4z"/>
	<path class="st0" d="M95.2,11.2C95.1,11.2,95.1,11.2,95.2,11.2L95.2,11.2z"/>
	<path class="st0" d="M83,12.6L83,12.6L83,12.6L83,12.6z"/>
	<path class="st0" d="M83.1,12.7c0.1,0.2-0.1,0-0.1-0.1c0.1,0.2,0.2,0.4,0.3,0.5C83.3,13.1,83.1,12.8,83.1,12.7z"/>
	<path class="st0" d="M75.1,23.5L75.1,23.5C75.1,23.5,75.1,23.5,75.1,23.5z"/>
	<path class="st0" d="M94.5,15.4L94.5,15.4z"/>
	<path class="st0" d="M75.8,21.2L75.8,21.2C75.8,21.2,75.8,21.2,75.8,21.2z"/>
	<path class="st0" d="M100.5,21.9L100.5,21.9z"/>
	<path class="st0" d="M102.4,21.6C102.4,21.6,102.4,21.6,102.4,21.6L102.4,21.6L102.4,21.6z"/>
	<path class="st0" d="M111.3,27.7L111.3,27.7L111.3,27.7C111.2,27.7,111.3,27.7,111.3,27.7z"/>
	<path class="st0" d="M106.6,17.6L106.6,17.6c-0.2,0.1-0.4,0.3-0.5,0.5l0.1,0.1L106.6,17.6z"/>
	<path class="st1" d="M109.1,19.2c0.1-0.1,0.2-0.1,0.2-0.2v0.1v0.1v0.3l0.1,1.1c0.1,0.7,0.1,1.5,0.3,2.2l-0.1-0.1
		c0,0.3,0.5,0.4,0.1,3.1l0,0c0,0.1,0,0.2,0,0.3l0.1-0.5c0.1,0.3,0.2,0.6,0.2,0.9c0,0.1,0,0.1-0.1,0.1l0.1,0.9l-0.1,0.3
		c0.1,0.3,0.4,0.1,0.2,0.9c0.2-0.3,0.1,0.4,0.2,0.3s-0.1,0.1-0.1,0.2c0,0.5,0.1,1,0.2,1.5c0,0,0.4-1.8,0.6-2.3c0,0.6,0,0.2,0.1,0
		l0,0c0-0.4,0.2-0.4,0.2-0.6l0,0l0,0l0,0c0,0-0.1,0,0-0.1l0,0c0-0.2,0-0.4,0-0.5h0.1c-0.2-0.3,0.3-1.9,0.3-2.3s-0.1-0.8,0-1.3
		c0-0.8,0.1-0.4,0.2-0.8s-0.1,0.1-0.2-0.1l0.1-0.6c0,0.3,0.1,0.1,0.1,0.1c0-0.5,0.1-1.3-0.1-1.4c0-0.7,0.1-0.7,0.1-1
		c0,0.1-0.1,0.3-0.1,0.3c0.1-0.3,0-0.1,0,0c0-0.2,0-0.3,0-0.5v-0.4c0-0.1,0-0.2,0-0.4c0-0.8,0-1.5-0.2-1.5l0,0c-0.2,0-0.3,0.3-0.5,0
		c0-0.1,0-0.2,0-0.3c0-0.1-0.1-0.2-0.2-0.3c0-0.3,0.1-0.2,0.1-0.2c-0.1-0.2-0.3-0.5-0.3-0.7c-0.2-0.3-0.6-0.5-0.9-0.4
		c0.2,0.1,0.4,0.4,0.5,0.6c-0.2-0.2-0.5-0.3-0.8-0.2c-0.2,0.1-0.4,0.2-0.5,0.3h-0.3c-0.3,0.1-0.6,0.3-0.7,0.6
		c-0.1,0.2,0,0.3-0.3,0.4s-0.4,0.2-0.6,0.3l0.5-0.5l-0.7,0.5c-0.1,0.1-0.3,0.2-0.5,0.3l0,0l0,0v0.1c0,0.1-0.1,0.3-0.3,0.6
		c-0.3,0.4-0.7,0.8-1.2,1.1v0.3l-0.5,0.3l-0.1-0.1c0.4-0.4,1-1.2,1.6-1.7v0c-0.3,0.3-0.6,0.7-0.8,0.9s-0.5,0.2-0.4,0l-0.1,0.3
		c-0.6,0.7-1.3,1.4-2,2l0.1,0c-0.2,0.3-0.3,0.5-0.5,0.5c-0.3,0.3-0.6,0.6-0.9,0.9l-0.4,0.4L101,23l0,0h-0.1c0,0,0.1,0.1,0.1,0.2
		c0,0-0.2-0.2-0.1,0v0.2c0,0-0.1,0.2-0.1,0.1l0,0l0,0c-0.1-0.1,0,0.3-0.1,0.1c0-0.2-0.2,0.4-0.2,0.2s0.1-0.3,0.1-0.5
		c0.1-0.3-0.1,0-0.2-0.3s0.2-0.2,0.4-0.3h-0.1l-0.1-0.1c0,0-0.1,0-0.1-0.1c0,0-0.1-0.1-0.2-0.3c0.1-0.1,0.1-0.1,0.2,0
		c0-0.5-0.2-0.2-0.3-0.5c-0.2,0-0.5,0-0.5-0.1v0.1c-0.2-0.3-0.3-0.7-0.4-1h0.1l-0.2-0.4l0.1-0.1l-0.2-0.6v0.1
		c-0.1-0.3-0.2-0.5-0.3-0.8l0,0c-0.2-0.7-0.5-1.5-0.9-2.1l0.2,0.1c0-0.3-0.2,0-0.3-0.4l0.1-0.1c-0.3-0.2-0.1-0.4-0.1-0.6L97.8,16
		l-0.1-0.4c-0.1-0.4,0.2-0.4,0.3-0.3l-0.3-0.2l0.2-0.1c-0.2-0.1-0.2-0.1-0.2-0.2c0,0,0-0.1,0-0.1c0-0.1-0.1-0.2-0.2-0.3
		c0-0.1,0.2,0.1,0.1-0.2c-0.3-0.4-0.5-0.7-0.7-1l0.4,0.6L97,13.8c-0.5-0.5-0.4-0.9-0.7-1.3l0.2,0.2L96.2,12
		c-0.1-0.2-0.1-0.3-0.3-0.5c0.1,0.1,0.2,0.4-0.1,0.2s0-0.2-0.2-0.3c-0.1,0.2-0.4,0-0.7-0.2c0,0,0,0,0-0.1c-0.1,0-0.2,0-0.3-0.1
		l0.1-0.2c-0.1,0-0.3,0.1-0.4,0.1c-0.3-0.1-0.6,0.2-0.6,0L94,11c-0.2,0.1-0.5,0.2-0.7,0.3c-0.3,0.2-0.5,0.4-0.7,0.6l-0.1-0.2
		c0,0.1,0,0.2-0.1,0.3c-0.2,0.4-0.6,0.8-0.4,1c-0.2,0.3-0.4,0.6-0.5,0.9c-0.2,0.4-0.2,0.4-0.3,0.3c-0.3,0.8-0.6,1.5-1,2.3
		c-0.4,0.2-0.8,1.2-1.1,1.8c-0.3,0.8-0.6,1.7-0.7,2.6c-0.2-0.1-0.1,0-0.2,0.1s-0.1,0.2-0.1,0.2S88,21.3,88,21.1c0,0.1,0,0.1-0.1,0.2
		c0-0.5-0.2-0.2-0.2-0.8c-0.1-0.1-0.2-0.2-0.2-0.3c0,0.1,0,0.1-0.1,0.2c0-0.2-0.3-0.6-0.2-0.7l0,0c0.2-0.1-0.4-0.6-0.4-0.9L86.8,19
		l-0.2-0.4l0.1,0.1c-1.3-1.5-1.2-2.6-2.5-4c0.3,0.1-0.3-0.3-0.1-0.4c0-0.6-0.4-0.6-0.9-1.2h-0.1l-0.6-1c0.3,0.1,0.1,0,0-0.1
		s-0.3-0.2-0.1-0.1c-0.2-0.4-0.5-0.7-0.8-0.9c-0.5-0.4-1.1-0.5-1.7-0.3c-0.2,0.1-0.3,0.2-0.4,0.3c-0.3,0.3-0.6,0.6-0.8,1
		c-0.3,0.6-0.5,1.3-0.8,1.9c-0.2,0.4-0.3,0.8-0.5,1.1l0.1-0.1c-0.1,0.5-0.3,1-0.6,1.4c-0.3,0.3-0.1,0.9-0.1,1c0,0.4-0.4,0.7-0.3,0.5
		c0,0.5-0.1,1-0.3,1.5c-0.3,0.1-0.3,1.7-0.6,1.6l0,0c-0.4,0.7-0.3,1.5-0.7,2.3c0,0,0,0,0,0l0.3,2l1-0.2c0.3-0.4,0.7-0.8,1.1-1.2
		c0.3-1.3,0.7-2.6,1.1-4c0.5-1,1-2,1.5-3l0.6-1.6l0.2-0.4v-0.1l0,0v-0.1c0,0,0-0.2,0.1-0.1l0.1,0.1c0,0,0.1,0.1,0.2,0.1l0.3,0.2
		c0.5,1.5,2,3.1,2.6,4.7l0.2-0.1c0.1,0.2,0.2,0.4,0.2,0.6l0.8,1.4l0.7,1.5c0.2,0.4,0.4,1,0.7,1.3c0.2,0.3,0.4,0.5,0.7,0.7
		c0.1,0.1,0.2,0.1,0.3,0.2c0.1,0.1,0.3,0.1,0.5,0.1c0.2,0,0.3,0,0.5-0.1c0.1,0,0.2-0.1,0.3-0.2c0.3-0.2,0.5-0.4,0.7-0.7
		c0.2-0.4,0.4-0.8,0.6-1.3l0.6-1.3l0.7-1.5c0.5-1,1-1.9,1.5-2.7c0.3-0.3,0.8-1.4,1-1.6l0.1-0.4c0-0.1,0-0.1,0-0.1c0-0.1,0-0.1,0-0.2
		c0-0.1,0-0.1,0.1-0.2c0,0,0.1-0.1,0.1,0c0,0,0,0,0,0l0,0h0.1c0,0,0,0.1,0,0.1c0-0.1,0.1,0,0.1,0.1c0,0,0,0.1,0,0.1
		c0,0,0.1,0.3,0.1,0.4l0,0c1,2.3,2,4.5,2.8,6.7l0.7,2c0.2,0.5,0.3,1.1,0.5,1.5c0.2,0.3,0.4,0.6,0.7,0.8c0.3,0.2,0.6,0.3,1,0.3
		c0.3-0.1,0.6-0.2,0.9-0.4c0.4-0.3,0.8-0.7,1.1-1.1l0.6-0.6l0.3-0.3l0.2-0.2c1.7-1.5,3.2-3.7,5.3-5.4c0.1-0.1,0.2-0.1,0.3-0.2
		c0.1,0,0,0,0,0l0,0C109,19.3,109.1,19.2,109.1,19.2z"/>
	<path class="st0" d="M110,26.5L110,26.5C109.9,26.5,110,26.6,110,26.5z"/>
	<polygon class="st0" points="109.8,15.3 109.9,15.3 109.8,15.2 	"/>
	<path class="st0" d="M112,22.4c0-0.3,0-0.3,0-0.3C112,22.3,112,22.4,112,22.4z"/>
	<path class="st0" d="M110.2,29.1C110.2,29.2,110.2,29.2,110.2,29.1l0.1-0.3L110.2,29.1z"/>
	<path class="st0" d="M111.2,28.3L111.2,28.3C111.3,28.3,111.2,28.3,111.2,28.3z"/>
	<path class="st0" d="M123.6,32.5C123.6,32.5,123.6,32.4,123.6,32.5z"/>
	<path class="st0" d="M133.4,41L133.4,41L133.4,41L133.4,41z"/>
	<path class="st0" d="M132.9,42.6L132.9,42.6z"/>
	<path class="st1" d="M135,29.3C135,29.3,135,29.3,135,29.3L135,29.3z"/>
	<path class="st1" d="M124.1,23.6L124.1,23.6L124.1,23.6L124.1,23.6z"/>
	<path class="st1" d="M124.2,23.8c0,0.2,0,0-0.1-0.1c0,0.2,0,0.4,0,0.6C124.2,24.2,124.2,23.9,124.2,23.8z"/>
	<path class="st1" d="M111.5,28.3L111.5,28.3C111.5,28.2,111.5,28.3,111.5,28.3z"/>
	<path class="st1" d="M132.1,32.4L132.1,32.4z"/>
	<path class="st1" d="M113.4,26.8L113.4,26.8C113.4,26.7,113.4,26.8,113.4,26.8z"/>
	<path class="st1" d="M133.4,41.1L133.4,41.1z"/>
	<path class="st1" d="M135.2,41.9C135.2,42,135.2,42,135.2,41.9L135.2,41.9L135.2,41.9z"/>
	<path class="st1" d="M139.2,52L139.2,52L139.2,52C139.2,51.9,139.2,52,139.2,52z"/>
	<path class="st1" d="M140.9,41L140.9,41c-0.2,0-0.5,0-0.7,0.1v0.1L140.9,41z"/>
	<path class="st1" d="M142.1,43.7c0.1,0,0.2,0,0.3,0c0,0,0,0.1,0,0.1v0.1l-0.1,0.2l-0.5,1c-0.4,0.6-0.7,1.3-1,2V47
		c-0.2,0.2,0.2,0.6-1.7,2.6l0,0c0,0.1,0,0.1-0.1,0.2l0.4-0.3c-0.1,0.3-0.2,0.6-0.3,0.8c0,0-0.1,0-0.1,0l-0.4,0.8l-0.3,0.2
		c-0.1,0.3,0.2,0.3-0.3,0.8c0.3-0.1-0.1,0.4,0,0.3l-0.2,0.1c-0.3,0.4-0.5,0.9-0.6,1.3c0,0,1.3-1.2,1.8-1.5c-0.4,0.5-0.1,0.2,0.1,0.1
		v-0.1c0.2-0.3,0.4-0.2,0.5-0.4l0,0l0,0l0,0c0,0,0,0,0-0.1l0,0c0.1-0.2,0.2-0.3,0.3-0.5h0.1c0-0.3,1.3-1.4,1.5-1.7s0.4-0.7,0.7-1.1
		c0.4-0.6,0.3-0.2,0.6-0.5s-0.2,0-0.1-0.2l0.4-0.4c-0.1,0.3,0,0.2,0.1,0.2c0.3-0.4,0.8-1,0.7-1.2c0.4-0.5,0.5-0.5,0.6-0.7
		c-0.1,0.1-0.2,0.2-0.2,0.2c0.2-0.2,0-0.1,0,0c0.1-0.2,0.2-0.3,0.3-0.4l0.2-0.3c0.1-0.1,0.1-0.2,0.3-0.4c0.4-0.6,0.8-1.3,0.7-1.3
		h0.1c-0.2-0.1-0.5,0.1-0.4-0.3l0.2-0.2c0-0.1,0-0.2,0-0.3s0.2-0.1,0.2-0.2c0-0.3,0.1-0.5,0.1-0.8c0-0.4-0.2-0.7-0.6-0.9
		c0.1,0.2,0.1,0.5,0.1,0.8c0-0.3-0.3-0.5-0.6-0.6c-0.2-0.1-0.4-0.1-0.6,0l-0.2-0.2c-0.3-0.1-0.6-0.1-0.9,0.1
		c-0.1,0.1-0.2,0.2-0.4,0.2c-0.2,0-0.4-0.1-0.6-0.1l0.7-0.1h-0.8c-0.2,0-0.3,0-0.5,0l0,0l0,0H141c0,0.1-0.3,0.2-0.6,0.3
		c-0.5,0.2-1.1,0.2-1.6,0.3l-0.1,0.2h-0.6v-0.2l2.3-0.5v0c-0.4,0.1-0.9,0.3-1.1,0.3s-0.5-0.1-0.3-0.2l-0.2,0.2
		c-0.9,0.2-1.9,0.4-2.8,0.6h0.1c-0.3,0.1-0.5,0.2-0.6,0.1c-0.4,0.1-0.9,0.2-1.3,0.3c-0.2,0-0.4,0.1-0.6,0.1h-0.1l0,0v-0.1
		c0,0.1,0,0.1,0,0.2s0-0.3-0.1,0l-0.1,0.1c0,0-0.2,0.1-0.1,0l0,0l0,0c0-0.1-0.2,0.3-0.2,0c0.1-0.2-0.3,0.2-0.3,0
		c0.1-0.1,0.2-0.2,0.4-0.3c0.2-0.2-0.1-0.1,0-0.3s0.3-0.1,0.5,0h-0.1v-0.1c0,0,0-0.1,0-0.1c0-0.1,0-0.1,0-0.4c0.1,0,0.1,0,0.2,0.1
		c0.2-0.4,0-0.3,0.1-0.6c-0.1-0.1-0.4-0.3-0.4-0.4l-0.1,0.1c0-0.4,0.1-0.8,0.3-1.1h0.1l0.1-0.4h0.1l0.1-0.6l-0.1,0.1
		c0-0.3,0.1-0.6,0.2-0.9h0.1c0.3-0.7,0.4-1.5,0.4-2.3l0.1,0.2c0.2-0.3-0.2-0.1,0-0.5h0.2c-0.1-0.4,0.1-0.4,0.3-0.6h-0.2l0.1-0.4
		c0.2-0.4,0.3-0.2,0.4-0.1l-0.1-0.3h0.2c-0.1-0.1-0.1-0.2,0-0.3c0.1-0.1,0.1-0.3,0.1-0.5c0.1,0,0.1,0.2,0.2-0.1c0-0.5,0-0.9-0.1-1.2
		v0.7l-0.3-0.1c-0.1-0.7,0.2-1,0.2-1.4v0.3l0.1-0.8c0-0.2,0.1-0.3,0.1-0.5c0,0.1-0.1,0.4-0.2,0.1s0.1-0.2,0.1-0.4
		c-0.2,0.1-0.4-0.2-0.4-0.6c0,0,0,0,0.1,0c-0.1-0.1-0.2-0.1-0.2-0.3l0.2-0.1c-0.1-0.1-0.3-0.1-0.4-0.1c-0.2-0.2-0.6-0.2-0.5-0.3h0.1
		c-0.2-0.1-0.5-0.1-0.7-0.1c-0.3,0-0.6,0-0.9,0.1v-0.2c-0.1,0.1-0.2,0.2-0.3,0.2c-0.4,0.2-0.9,0.4-0.8,0.6c-0.3,0.1-0.6,0.3-0.9,0.5
		c-0.4,0.2-0.4,0.2-0.5,0.1c-0.7,0.6-1.5,1.1-2.3,1.6c-0.5,0-1.3,0.6-1.9,0.9c-0.7,0.5-1.4,1.1-2.1,1.7c-0.1-0.2-0.1-0.1-0.2,0
		s-0.2,0.1-0.2,0.1s0-0.1,0-0.2l-0.2,0.1c0.3-0.4,0-0.3,0.3-0.8c0-0.1,0-0.2,0-0.4c0,0.1-0.1,0.1-0.1,0.1c0.1-0.2,0.1-0.7,0.3-0.7
		V32c0.2,0,0-0.7,0.2-1l-0.2,0.1l0.1-0.4v0.1c-0.2-2,0.5-2.8,0.2-4.7c0.2,0.3-0.1-0.4,0.2-0.4c0.3-0.5,0-0.8-0.1-1.5l0,0v-1.1
		c0.2,0.3,0.1,0.1,0-0.1s-0.2-0.3,0-0.1c0-0.4,0-0.8-0.2-1.2c-0.1-0.4-0.3-0.7-0.6-0.9c-0.2-0.1-0.4-0.2-0.6-0.3c-0.2,0-0.3,0-0.5,0
		c-0.4,0.1-0.8,0.2-1.2,0.4l-1.7,1.1l-1,0.7h0.1c-0.4,0.3-0.8,0.6-1.3,0.9c-0.4,0.1-0.6,0.7-0.7,0.8c-0.3,0.4-0.7,0.4-0.6,0.3
		c-0.3,0.3-0.5,0.8-1.1,1.1c-0.3-0.1-1.2,1.3-1.4,1l0,0c-0.7,0.4-1.1,1.1-1.9,1.5c0,0,0,0,0-0.1l-0.8,1.8l0.9,0.4
		c0.5-0.1,1-0.3,1.6-0.4c1-0.9,2.1-1.8,3.2-2.6c0.9-0.6,1.9-1.1,2.9-1.6l1.4-1l0.4-0.2l0,0l0,0l0,0c0,0,0.1-0.1,0.1,0v0.2
		c0,0,0.1,0.1,0.1,0.2l0.1,0.3c-0.4,1.6-0.1,3.6-0.5,5.3h0.2c0,0.2-0.1,0.4-0.2,0.6l-0.2,1.6l-0.2,1.4c0,0.5-0.2,1-0.2,1.5
		c0,0.3,0.1,0.7,0.2,1c0.1,0.1,0.1,0.2,0.2,0.3c0.1,0.1,0.2,0.2,0.3,0.3c0.1,0.1,0.3,0.2,0.5,0.2c0.1,0,0.3,0,0.4,0
		c0.3,0,0.6-0.1,0.9-0.2c0.4-0.2,0.8-0.4,1.2-0.7l1.3-0.8l1.4-0.8c0.9-0.5,1.8-1,2.8-1.5c0.4-0.1,1.4-0.7,1.8-0.7l0.4-0.3
		c0.1,0,0-0.1,0.1-0.1c0,0,0.1-0.1,0.1-0.1l0.2-0.1c0,0,0.1,0,0.1,0c0,0,0,0,0,0.1l0,0c0,0,0,0,0,0.1c0,0,0,0-0.1,0
		c0.1,0,0.1,0.1,0,0.2c0,0,0,0.1-0.1,0.1c-0.1,0.1-0.1,0.3-0.1,0.5v0c-0.4,2.5-0.9,4.8-1.4,7.1c-0.2,0.7-0.4,1.4-0.6,2.1
		c-0.1,0.5-0.4,1-0.4,1.5c0,0.4,0,0.7,0.1,1c0.1,0.3,0.3,0.6,0.7,0.8c0.3,0.2,0.7,0.2,1,0.2c0.5,0,1-0.1,1.5-0.3l0.8-0.2l0.4-0.1
		h0.2c2.2-0.3,4.8-1.3,7.4-1.5c0.1,0,0.3,0,0.4,0c0.1,0,0,0,0.1,0s0,0,0,0S142.1,43.7,142.1,43.7z"/>
	<path class="st1" d="M138.8,50.3L138.8,50.3C138.7,50.2,138.7,50.3,138.8,50.3z"/>
	<polygon class="st1" points="144.9,40.9 144.9,40.9 144.8,40.8 	"/>
	<path class="st1" d="M142.6,48c0.2-0.3,0.2-0.3,0.1-0.3C142.7,47.8,142.7,47.9,142.6,48z"/>
	<path class="st1" d="M137.5,52.5C137.4,52.6,137.5,52.6,137.5,52.5l0.2-0.2L137.5,52.5z"/>
	<path class="st1" d="M138.8,52.4L138.8,52.4C138.8,52.4,138.8,52.4,138.8,52.4z"/>
	<path class="st1" d="M120.4,75.4C120.4,75.4,120.3,75.4,120.4,75.4z"/>
	<path class="st1" d="M146.5,81.8L146.5,81.8l0.1-0.1L146.5,81.8z"/>
	<path class="st1" d="M149.9,84.7L149.9,84.7C149.9,84.7,149.9,84.7,149.9,84.7z"/>
	<path class="st1" d="M137.3,77.6C137.3,77.6,137.3,77.6,137.3,77.6C137.3,77.6,137.3,77.6,137.3,77.6z"/>
	<path class="st1" d="M112.6,77.6L112.6,77.6z"/>
	<path class="st1" d="M112.6,77.4C112.7,77.4,112.6,77.5,112.6,77.4c0.1,0.1,0.2,0.1,0.3,0C112.9,77.4,112.7,77.5,112.6,77.4z"/>
	<path class="st1" d="M100.5,85.6L100.5,85.6C100.5,85.6,100.5,85.6,100.5,85.6z"/>
	<path class="st1" d="M136.4,81.3L136.4,81.3C136.3,81.3,136.4,81.3,136.4,81.3z"/>
	<path class="st1" d="M102.2,84.1L102.2,84.1C102.2,84,102.2,84,102.2,84.1z"/>
	<path class="st1" d="M146.7,81.8L146.7,81.8L146.7,81.8z"/>
	<path class="st1" d="M152.9,87.4C152.9,87.5,152.9,87.5,152.9,87.4L152.9,87.4L152.9,87.4z"/>
	<path class="st1" d="M156.1,92.1L156.1,92.1c-0.1-0.2-0.2-0.4-0.3-0.6l-0.1,0.1L156.1,92.1z"/>
	<path class="st1" d="M156.4,93.1c-0.1-0.4-0.2-0.6-0.3-1c-0.1-0.2-0.1-0.2,0,0.1l0,0c-0.1,0-0.3-0.1-0.5-0.4s-0.6-0.6-0.8-1.3h-0.3
		l-0.2-0.5l0.1-0.1c0.4,0.4,1,1.2,1.4,1.7h0.1c-0.2-0.3-0.6-0.6-0.7-0.9s-0.1-0.5,0.2-0.4l-0.3-0.1c-0.6-0.7-1.2-1.4-1.7-2.2v0.2
		c-0.2-0.2-0.5-0.3-0.4-0.5c-0.6-0.6-1-1.2-1.4-1.9l-0.2,0.1c-0.1-0.1-0.1-0.6-0.4-0.4l-0.4-0.2c-0.2-0.2-0.4-0.2-0.5-0.4l0,0
		c-0.4-0.4-0.1,0.2-0.5-0.3c0-0.3-0.4,0.1-0.6-0.2v-0.5c-0.3-0.5-0.6-0.3-1.3-0.7c-0.3-0.3-0.2-0.7,0.1-0.7c-0.5,0-0.3,0.1-0.7-0.1
		c0-0.1,0.1-0.1,0.2-0.2c-0.3-0.4-0.3,0-0.5-0.2c-0.2,0.2-0.5,0.4-0.6,0.4l0.1,0.1c-0.4-0.1-0.7-0.3-0.9-0.6l0.1-0.1l-0.4-0.2
		l0.1-0.2l-0.5-0.2l0.1,0.1c-0.3-0.1-0.5-0.2-0.7-0.4l0.1-0.1c-0.5-0.6-1.2-0.6-2-1l0.2-0.1c-0.2-0.3-0.2,0.2-0.5,0l0.1-0.2
		c-0.4,0.1-0.3-0.2-0.5-0.4v0.3l-0.3-0.2c-0.4-0.3-0.1-0.4,0-0.5l-0.4,0.1l0.1-0.3c-0.3,0.2-0.2-0.1-0.6-0.2c0-0.1,0.1-0.1,0-0.2
		l-0.7,0.1h0.4l-0.2,0.3c-0.5,0.1-0.5-0.3-0.8-0.3h0.2c-0.4-0.1-0.4-0.3-0.6-0.4c0.1,0.1,0.1,0.2-0.1,0.2s0-0.1-0.1-0.2
		c-0.2,0.2-0.5,0.2-0.7,0c0,0,0,0,0,0c0,0,0-0.1,0.1-0.1c-0.1,0-0.1,0-0.3,0l0.2-0.2l-0.3,0.2c-0.1-0.1-0.4,0-0.4-0.2h0.1l-1.2-0.5
		v-0.2c-0.2,0.2-0.6-0.3-0.7,0c-0.2-0.3-1-0.1-0.7-0.5c-0.8-0.2-1.4,0-2.4-0.4c-0.3-0.4-1.3-0.5-2-0.6h-1.8l-1.8,0.1
		c-0.8-0.5-2,0-2.9-0.1l-0.2,0.2c-0.6-0.3-1.4,0.1-2.3-0.1c-0.1,0.1-0.2,0.1-0.3,0.2c0,0,0.1,0,0.1,0.2c-0.2-0.1-0.7,0.1-0.7-0.1
		l0,0c0-0.3-0.7,0.2-1,0l0.2,0.2h-0.4l0.1-0.1c-0.7,0.3-1.5,0.5-2.2,0.6c-0.7,0.1-1.5,0.3-2.1,0.7c0.1-0.3-0.3,0.2-0.4-0.1
		c-0.6-0.2-0.8,0.4-1.1,0.6c0,0,0,0,0,0.1l-0.6,0.2c0.2-0.5-0.3,0.5-0.1,0c-0.4,0.1-0.9,0.2-1.3,0.4c-0.5,0.2-0.9,0.4-1.3,0.7
		l-1.3,0.7l-0.7,0.3l-0.6,0.4h0.1c-0.4,0.3-0.9,0.7-1.3,0.8s-0.5,0.7-0.7,0.8c-0.3,0.3-0.7,0.3-0.6,0.2c-0.3,0.3-0.4,0.9-1,1.1
		c-0.4-0.1-1.1,1.3-1.3,1l0,0c-0.8,0.3-1,1.2-1.7,1.6c0,0,0,0,0-0.1c-0.1,0.7-0.2,1.3-0.3,2l1.3,0.6L103,88c0.4-0.4,0.8-0.9,1.2-1.3
		l1.3-1.2c0.4-0.2,0.8-0.5,1.3-0.7l1.3-0.6c0.5-0.3,0.9-0.7,1.4-1l1.5-0.8c1-0.5,2.1-1,3.1-1.4l0.4-0.4c0.8,0,1.6-0.2,2.4-0.5
		c0.4-0.1,0.8-0.3,1.1-0.3c0.4,0,0.8,0,1.2,0v-0.3c0.4-0.1,0.4,0.1,0.5,0.1c3.7-0.8,7.6-0.7,11.3,0.2c0.3,0.2,1.3,0.4,1.5,0.6
		c1.2,0,2.3,0.3,3.4,0.8h-0.1l0.5,0.1 M136.4,81.3c0.7,0,1.4,0.6,2.1,1h-0.1c0.3,0,1.2,0.6,1.5,0.7c0.5,0.3,1.1,0.5,1.6,0.8
		c1.1,0.6,2.1,1.2,3.1,1.8c2,1.3,3.5,3,5.4,4.3c1.2,0.9,2.3,1.9,3.2,3.2c0.1,0.1,0.2,0.2,0.2,0.4c0.2,0.8,0.4,0.3,0.9-0.1
		s1.7-1.2,1.9-0.4L136.4,81.3z"/>
	<polygon class="st1" points="157.4,94.8 157.4,94.8 157.5,94.7 	"/>
	<g class="st2">
		<path class="st1" d="M45.5,84.7l-0.3-0.2c0,0.1,0.1,0.2,0.1,0.2C45.3,84.8,45.4,84.7,45.5,84.7z"/>
		<path class="st1" d="M44.9,84.2L44.9,84.2L44.9,84.2L44.9,84.2z"/>
		<path class="st1" d="M44.3,84c0.1,0.1,0.2,0.1,0.3,0.1C44.5,84.1,44.4,84,44.3,84z"/>
		<path class="st1" d="M44.7,84.4c0-0.1,0-0.2,0.1-0.2l0,0h-0.2C44.6,84.3,44.6,84.3,44.7,84.4z"/>
		<path class="st1" d="M44.7,84.4c0,0.1,0,0.2,0,0.2C44.7,84.5,44.7,84.4,44.7,84.4z"/>
		<path class="st1" d="M43.7,85.8c-0.1,0,0.2-0.4,0-0.4c-0.3,0.1-0.6,0.1-0.8,0c-0.2,0-0.1-0.5-0.2-0.5s-1.2,0.3-0.8,0.5
			c0.6,0.2,1,0.2,1.5,0.4c0.5,0,1,0.1,1.5,0.2c0.1,0.1,0.2,0.1,0.3,0.3c-0.1-0.2-0.2-0.3-0.3-0.5C44.6,85.5,44,85.8,43.7,85.8z"/>
		<path class="st1" d="M47.4,86.6h-0.3c0-0.4-0.3-0.5-0.6-0.6l0,0.3c0.1,0.1,0.3,0,0.2-0.2c0,0.4,0.2,0.7,0.5,0.9
			C47.3,86.8,47.4,86.7,47.4,86.6z"/>
		<path class="st1" d="M47.4,87l-0.2-0.1l0,0L47.4,87L47.4,87z"/>
		<path class="st1" d="M42.9,83.8c-0.8-0.3-1.5-0.6-2.2-0.9c-0.1,0.1-0.2,0.2-0.2,0.1c0-0.1-0.1-0.2-0.1-0.2L40,82.7h-0.1
			c-0.1,0-0.1,0.1,0,0.2c0,0.1,0.1,0.1,0.1,0.2c0,0,0-0.1-0.1-0.2c0-0.1-0.1-0.1-0.2-0.2c-0.1,0-0.2,0-0.3,0c0.1,0,0.2,0,0.3,0h0.2
			H40c-0.2-0.1-0.5-0.2-0.7-0.2H39c-0.2,0-0.4,0.1-0.5-0.2h-0.1l0,0l0,0c-0.2-0.1-0.4-0.1-0.6-0.1c-0.1,0.1-0.3,0.2-0.4,0.3
			l-0.1-0.3c0,0.1-0.1,0.2-0.2,0.2c0.1,0.1,0.2,0.3,0.3,0.4s0.3-0.5,0.4,0c-0.1-0.5-0.3,0.3-0.4,0s-0.2-0.3-0.3-0.4
			c-0.2,0.1-0.4,0-0.6-0.3c0.2-0.2,0.4,0,0.6,0.3c0.1,0,0.2-0.1,0.2-0.2l0.1,0.3c0.1-0.1,0.3-0.2,0.4-0.3L36.7,82
			c-2.6-0.3-5.2,0.1-7.6,1.1c-1.4,0.5-2.7,1.1-4,1.8c-0.6,0.4-1.2,0.8-1.7,1.3L22.6,87l-0.7,0.8C21,89,20,90.1,19,91.2
			c-0.8,1.3-1.3,2.8-1.4,4.4c0.5,1.6,2.7,1,2.8,1c0.9-0.3,1.2-0.6,1.4-1c0.2-0.6,0.5-1.1,1-1.5c-0.4,0.4-0.6,0.1-0.6-0.3
			c0.2-0.6,0.6-1.1,1.3-1.2c0.5-0.1,0.9-0.3,1.2-0.6c0.3-0.3,0.5-0.6,0.7-0.9L26,90c0.2-0.3,0.5-0.6,0.9-0.8c0.4-0.2,0.7-0.5,1-0.8
			c1.1-0.5,2-1.2,3.1-1.7c1-0.6,2.2-1,3.4-1.2c0.6-0.2,1.2-0.5,1.8-0.8c0.4-0.1,0.9,0.2,1.3,0.2c0.5,0,1.1,0,1.6-0.2
			c-0.5,0-0.9,0-1.5,0.1c-0.4,0,0.3-0.6,0.6-0.7c0.1-0.1,0.2,0.5,0.3,0.4s0.5-0.1,0.8-0.2s0,0.4,0.1,0.3c0.4,0,0.8-0.6,1-0.4
			s0.3,0.2,0.4,0.4c0.1,0.1,0.2,0.1,0.3,0.1h0.2c0-0.2,0-0.3,0.1-0.5c0.1,0,0.2,0.2,0.3,0.3c-0.1-0.1-0.2-0.2-0.3-0.3
			c0,0.2-0.1,0.3-0.1,0.5c0.6-0.1,1.2-0.2,1.8-0.1l0,0c-0.3-0.1-0.6-0.3-0.8-0.6c0.1,0.2,0,0.3-0.1,0.2v-0.3c0.3,0,0.6,0,0.8,0.4
			l0.2-0.1c0.1,0.1,0,0.2,0,0.3l0.2,0.1C43.2,84.3,43.1,84,42.9,83.8z"/>
		<path class="st1" d="M39.7,82.7h0.2c-0.2-0.1-0.4-0.1-0.6-0.2C39.3,82.8,39.5,82.8,39.7,82.7z"/>
	</g>
	<g class="st2">
		<path class="st1" d="M45.5,84.7l-0.3-0.2c0,0.1,0.1,0.2,0.1,0.2C45.3,84.8,45.4,84.7,45.5,84.7z"/>
		<path class="st1" d="M44.9,84.2L44.9,84.2L44.9,84.2L44.9,84.2z"/>
		<path class="st1" d="M44.3,84c0.1,0.1,0.2,0.1,0.3,0.1C44.5,84.1,44.4,84,44.3,84z"/>
		<path class="st1" d="M44.7,84.4c0-0.1,0-0.2,0.1-0.2l0,0h-0.2C44.6,84.3,44.6,84.3,44.7,84.4z"/>
		<path class="st1" d="M44.7,84.4c0,0.1,0,0.2,0,0.2C44.7,84.5,44.7,84.4,44.7,84.4z"/>
		<path class="st1" d="M43.7,85.8c-0.1,0,0.2-0.4,0-0.4c-0.3,0.1-0.6,0.1-0.8,0c-0.2,0-0.1-0.5-0.2-0.5s-1.2,0.3-0.8,0.5
			c0.6,0.2,1,0.2,1.5,0.4c0.5,0,1,0.1,1.5,0.2c0.1,0.1,0.2,0.1,0.3,0.3c-0.1-0.2-0.2-0.3-0.3-0.5C44.6,85.5,44,85.8,43.7,85.8z"/>
		<path class="st1" d="M47.4,86.6h-0.3c0-0.4-0.3-0.5-0.6-0.6l0,0.3c0.1,0.1,0.3,0,0.2-0.2c0,0.4,0.2,0.7,0.5,0.9
			C47.3,86.8,47.4,86.7,47.4,86.6z"/>
		<path class="st1" d="M47.4,87l-0.2-0.1l0,0L47.4,87L47.4,87z"/>
		<path class="st1" d="M42.9,83.8c-0.8-0.3-1.5-0.6-2.2-0.9c-0.1,0.1-0.2,0.2-0.2,0.1c0-0.1-0.1-0.2-0.1-0.2L40,82.7h-0.1
			c-0.1,0-0.1,0.1,0,0.2c0,0.1,0.1,0.1,0.1,0.2c0,0,0-0.1-0.1-0.2c0-0.1-0.1-0.1-0.2-0.2c-0.1,0-0.2,0-0.3,0c0.1,0,0.2,0,0.3,0h0.2
			H40c-0.2-0.1-0.5-0.2-0.7-0.2H39c-0.2,0-0.4,0.1-0.5-0.2h-0.1l0,0l0,0c-0.2-0.1-0.4-0.1-0.6-0.1c-0.1,0.1-0.3,0.2-0.4,0.3
			l-0.1-0.3c0,0.1-0.1,0.2-0.2,0.2c0.1,0.1,0.2,0.3,0.3,0.4s0.3-0.5,0.4,0c-0.1-0.5-0.3,0.3-0.4,0s-0.2-0.3-0.3-0.4
			c-0.2,0.1-0.4,0-0.6-0.3c0.2-0.2,0.4,0,0.6,0.3c0.1,0,0.2-0.1,0.2-0.2l0.1,0.3c0.1-0.1,0.3-0.2,0.4-0.3L36.7,82
			c-2.6-0.3-5.2,0.1-7.6,1.1c-1.4,0.5-2.7,1.1-4,1.8c-0.6,0.4-1.2,0.8-1.7,1.3L22.6,87l-0.7,0.8C21,89,20,90.1,19,91.2
			c-0.8,1.3-1.3,2.8-1.4,4.4c0.5,1.6,2.7,1,2.8,1c0.9-0.3,1.2-0.6,1.4-1c0.2-0.6,0.5-1.1,1-1.5c-0.4,0.4-0.6,0.1-0.6-0.3
			c0.2-0.6,0.6-1.1,1.3-1.2c0.5-0.1,0.9-0.3,1.2-0.6c0.3-0.3,0.5-0.6,0.7-0.9L26,90c0.2-0.3,0.5-0.6,0.9-0.8c0.4-0.2,0.7-0.5,1-0.8
			c1.1-0.5,2-1.2,3.1-1.7c1-0.6,2.2-1,3.4-1.2c0.6-0.2,1.2-0.5,1.8-0.8c0.4-0.1,0.9,0.2,1.3,0.2c0.5,0,1.1,0,1.6-0.2
			c-0.5,0-0.9,0-1.5,0.1c-0.4,0,0.3-0.6,0.6-0.7c0.1-0.1,0.2,0.5,0.3,0.4s0.5-0.1,0.8-0.2s0,0.4,0.1,0.3c0.4,0,0.8-0.6,1-0.4
			s0.3,0.2,0.4,0.4c0.1,0.1,0.2,0.1,0.3,0.1h0.2c0-0.2,0-0.3,0.1-0.5c0.1,0,0.2,0.2,0.3,0.3c-0.1-0.1-0.2-0.2-0.3-0.3
			c0,0.2-0.1,0.3-0.1,0.5c0.6-0.1,1.2-0.2,1.8-0.1l0,0c-0.3-0.1-0.6-0.3-0.8-0.6c0.1,0.2,0,0.3-0.1,0.2v-0.3c0.3,0,0.6,0,0.8,0.4
			l0.2-0.1c0.1,0.1,0,0.2,0,0.3l0.2,0.1C43.2,84.3,43.1,84,42.9,83.8z"/>
		<path class="st1" d="M39.7,82.7h0.2c-0.2-0.1-0.4-0.1-0.6-0.2C39.3,82.8,39.5,82.8,39.7,82.7z"/>
	</g>
	<circle class="st1" cx="44.5" cy="108.5" r="4"/>
	<g class="st2">
		<path class="st1" d="M48.3,106.4l-0.1-0.2c0,0.1,0,0.1,0,0.2C48.2,106.4,48.2,106.4,48.3,106.4z"/>
		<path class="st1" d="M48,106L48,106L48,106z"/>
		<path class="st1" d="M47.7,105.6c0,0.1,0.1,0.1,0.2,0.2C47.8,105.7,47.8,105.7,47.7,105.6z"/>
		<path class="st1" d="M47.9,106C47.9,106,47.9,105.9,47.9,106L47.9,106l0-0.1C47.9,105.9,47.9,105.9,47.9,106z"/>
		<path class="st1" d="M47.9,106v0.1C47.9,106.1,47.9,106,47.9,106z"/>
		<path class="st1" d="M47.2,106.4c0,0,0.2-0.2,0.1-0.2c-0.2-0.1-0.3-0.1-0.5-0.2c-0.1,0,0-0.3-0.1-0.3s-0.7,0-0.5,0.1
			c0.3,0.1,0.6,0.3,0.8,0.5c0.3,0.1,0.5,0.3,0.7,0.6c0,0.1,0.1,0.2,0.1,0.2c0-0.1,0-0.2,0-0.4S47.3,106.5,47.2,106.4z"/>
		<path class="st1" d="M48.7,108.3l-0.1-0.1c0.1-0.2,0.1-0.4,0-0.6l-0.1,0.1c0,0.1,0.1,0.1,0.1,0c-0.1,0.2-0.1,0.5-0.1,0.7
			C48.6,108.4,48.7,108.4,48.7,108.3z"/>
		<path class="st1" d="M48.5,108.6v-0.1l0,0V108.6L48.5,108.6z"/>
		<path class="st1" d="M46.8,105.1c-0.5-0.3-1-0.5-1.5-0.7c0,0-0.1,0.1-0.1,0c0,0-0.1-0.1-0.1-0.1h-0.2h-0.1c0,0,0,0.1,0,0.1
			c0,0,0.1,0.1,0.1,0.1l-0.1-0.1c0,0-0.1-0.1-0.1-0.1c-0.1,0-0.1,0-0.2,0c0.1,0,0.1,0,0.2,0h0.1l0,0c-0.2,0-0.4,0-0.5,0h-0.1
			c-0.1,0-0.3,0.1-0.3,0h-0.1l0,0l0,0c-0.1,0-0.3,0-0.4,0.1c-0.1,0.1-0.1,0.2-0.2,0.2l-0.1-0.1c0,0.1-0.1,0.1-0.1,0.2l0.3,0.1
			c0.1,0.1,0.1-0.3,0.3-0.1c-0.2-0.2-0.2,0.2-0.3,0.1l-0.3-0.1c-0.1,0.1-0.3,0.1-0.4,0.1c0.1-0.1,0.3-0.2,0.4-0.1c0,0,0,0,0,0
			c0-0.1,0.1-0.1,0.1-0.2l0.1,0.1c0.1-0.1,0.1-0.1,0.2-0.2c-0.3,0.1-0.5,0.2-0.8,0.3c-1.8,0.9-2.7,2.9-2.3,4.8
			c0.2,1.1,0.8,2.1,1.6,2.9c0.8,0.7,2,1.1,3.1,1.1c1.2-0.1,2.3-0.4,3.3-1c0.5-0.3,1-0.8,1.3-1.4c0.3-0.6,0.5-1.2,0.5-1.8
			c-0.1-0.7-0.5-0.8-0.8-0.8c-0.2,0-0.4,0.1-0.6,0.2c-0.3,0.1-0.6,0.4-0.7,0.7c-0.1,0.4-0.4,0.7-0.7,0.8c0.3-0.2,0.3,0,0.2,0.2
			c-0.2,0.4-0.6,0.5-1,0.5c-0.5-0.1-0.9-0.1-1.4,0.1c-0.4,0.2-0.9,0.1-1.3-0.1c-0.2-0.1-0.4-0.2-0.6-0.4c-0.4-0.4-0.7-1-0.9-1.6
			c-0.2-0.7-0.1-1.4,0.3-1.9c0.2-0.3,0.3-0.7,0.5-1c0.2-0.1,0.4-0.2,0.7-0.3c0.3-0.1,0.6-0.2,0.8-0.3c-0.3,0.1-0.6,0.2-0.8,0.3
			c-0.2,0.1,0-0.3,0.2-0.4s0.2,0.2,0.3,0.1c0.2-0.1,0.3-0.1,0.4-0.2c0.1-0.1,0.1,0.2,0.1,0.2c0.2,0,0.4-0.3,0.6-0.2s0.2,0.1,0.3,0.2
			l0.2,0.1h0.1c0-0.1,0-0.2,0-0.3c0.1,0,0.1,0.1,0.2,0.2s-0.1-0.1-0.2-0.2c0,0.1,0,0.2,0,0.3c0.4,0,0.8,0.1,1.1,0.2l0,0
			c-0.2-0.1-0.4-0.3-0.5-0.5c0.1,0.1,0,0.1-0.1,0.1v-0.1c0.2,0,0.4,0.1,0.5,0.3h0.2c0,0.1,0,0.1,0,0.2l0.1,0.1
			C46.9,105.5,46.9,105.3,46.8,105.1z"/>
		<path class="st1" d="M44.6,104.4h0.1c-0.2,0-0.3,0-0.5,0C44.3,104.5,44.5,104.4,44.6,104.4z"/>
	</g>
</g>
</svg>
